<svg width="30" height="48" viewBox="0 0 30 48" fill="none" xmlns="http://www.w3.org/2000/svg">
<path d="M24.3985 0H5.45827C4.01064 0 2.62231 0.575062 1.59869 1.59869C0.575066 2.62231 0 4.01064 0 5.45827V39.2177C0.00325157 40.5025 0.459642 41.745 1.28883 42.7264C2.11802 43.7079 3.26685 44.3653 4.53309 44.5831V47.0748C4.53309 47.3202 4.63056 47.5555 4.80407 47.729C4.97757 47.9025 5.21289 48 5.45827 48C5.70364 48 5.93896 47.9025 6.11247 47.729C6.28597 47.5555 6.38344 47.3202 6.38344 47.0748V44.6677H24.1828V47.0748C24.1828 47.3202 24.2803 47.5555 24.4538 47.729C24.6273 47.9025 24.8627 48 25.108 48C25.3534 48 25.5887 47.9025 25.7622 47.729C25.9357 47.5555 26.0332 47.3202 26.0332 47.0748V44.4194C27.1417 44.0708 28.11 43.3775 28.7972 42.4404C29.4844 41.5034 29.8546 40.3715 29.854 39.2095V5.45827C29.854 4.01112 29.2793 2.6232 28.2563 1.59965C27.2332 0.576106 25.8456 0.000723575 24.3985 0Z" fill="#1F157C"/>
<path d="M14.931 8.33218C16.694 8.33218 18.4598 8.33218 20.2228 8.33218C20.4264 8.31972 20.6302 8.35232 20.8197 8.42766C21.0092 8.50301 21.1798 8.61922 21.3192 8.76805C21.4587 8.91688 21.5635 9.09464 21.6264 9.28866C21.6893 9.48268 21.7086 9.68818 21.6829 9.89051C21.6119 10.6246 21.017 11.135 20.1819 11.1377C17.903 11.1377 15.6242 11.1377 13.359 11.1377C12.1582 11.1377 10.9547 11.1377 9.75383 11.1377C8.79864 11.1377 8.18185 10.5646 8.19277 9.71039C8.20369 8.85617 8.81228 8.33218 9.74565 8.33218C11.4595 8.32945 13.1925 8.33218 14.931 8.33218Z" fill="#DEE4F3"/>
<path d="M14.9722 14.0278C16.7215 14.0278 18.4682 14.0278 20.2175 14.0278C21.1236 14.0278 21.7158 14.6419 21.6831 15.4879C21.6732 15.7786 21.5706 16.0584 21.3905 16.2867C21.2103 16.515 20.9619 16.6798 20.6815 16.757C20.4852 16.8062 20.2835 16.8309 20.0811 16.8306C16.6478 16.8306 13.2146 16.8306 9.78134 16.8306C8.84798 16.8306 8.23119 16.323 8.17661 15.5398C8.1193 14.6719 8.72244 14.036 9.6367 14.0278C11.3069 14.0278 12.9744 14.0278 14.6447 14.0278H14.9722Z" fill="#DEE4F3"/>
<path d="M16.2491 31.4834V32.2039C16.2491 33.9123 16.2491 35.6217 16.2491 37.3319C16.2584 37.6205 16.2401 37.9093 16.1946 38.1943C16.1088 38.6046 15.9225 38.9872 15.6524 39.3078C15.3823 39.6283 15.0369 39.8769 14.6471 40.031C14.4048 40.1355 14.157 40.2266 13.9048 40.304C13.7547 40.3504 13.6674 40.304 13.6319 40.1375C13.6196 40.0792 13.6141 40.0197 13.6155 39.9601C13.6155 38.4372 13.6155 36.9144 13.6155 35.3915C13.6096 34.9621 13.6971 34.5365 13.8721 34.1443C14.2476 33.2836 14.8064 32.5152 15.5095 31.8928C15.7126 31.6894 15.969 31.5475 16.2491 31.4834Z" fill="#DEE4F3"/>
<path d="M13.6074 29.876L13.6293 33.3802C14.2869 32.5039 15.2035 31.8566 16.2492 31.5298V29.876H13.6074Z" fill="#FDAF17"/>
</svg>
