<svg width="49" height="48" viewBox="0 0 49 48" fill="none" xmlns="http://www.w3.org/2000/svg">
<path d="M42.3873 0H6.6127C3.23675 0 0.5 2.73675 0.5 6.1127V41.8873C0.5 45.2633 3.23675 48 6.6127 48H42.3873C45.7633 48 48.5 45.2633 48.5 41.8873V6.1127C48.5 2.73675 45.7633 0 42.3873 0Z" fill="#1F157C"/>
<mask id="mask0_0_4047" style="mask-type:luminance" maskUnits="userSpaceOnUse" x="7" y="7" width="35" height="34">
<path d="M24.4986 40.9034C33.8331 40.9034 41.4002 33.3362 41.4002 24.0017C41.4002 14.6672 33.8331 7.1001 24.4986 7.1001C15.164 7.1001 7.59692 14.6672 7.59692 24.0017C7.59692 33.3362 15.164 40.9034 24.4986 40.9034Z" fill="white"/>
</mask>
<g mask="url(#mask0_0_4047)">
<path d="M24.4986 24.491L24.4924 24.5063V24.4849L24.4986 24.491Z" fill="url(#paint0_linear_0_4047)"/>
<path d="M24.85 24.3628V24.8365L24.8164 24.7998C24.8164 24.6501 24.8347 24.4942 24.8409 24.3628H24.85Z" fill="url(#paint1_linear_0_4047)"/>
<path d="M26.8734 30.5454C26.8771 32.842 25.9947 35.0514 24.4101 36.7136C22.8254 38.3759 20.6606 39.3627 18.3665 39.4687C16.0724 39.5746 13.8258 38.7915 12.0947 37.2825C10.3636 35.7734 9.28127 33.6547 9.07324 31.3676C9.10489 31.3859 9.13459 31.4074 9.16188 31.4318C9.27665 31.5358 9.39926 31.6308 9.52864 31.716C9.81804 31.9431 10.1246 32.1475 10.4455 32.3273C10.5617 32.4006 10.6839 32.4557 10.797 32.5229C10.9101 32.5901 11.0415 32.6513 11.1638 32.7093L11.5519 32.8805C11.8056 32.9783 12.0654 33.0761 12.3252 33.1556C12.3252 33.1556 12.3252 33.1556 12.3435 33.1556L12.7256 33.2686C12.8142 33.2839 12.8967 33.3084 12.9701 33.3267L13.3338 33.4062L13.7097 33.4795C13.8962 33.504 14.0826 33.5284 14.269 33.5468C14.4555 33.5651 14.5961 33.5712 14.7489 33.5773C14.9017 33.5834 15.0545 33.5957 15.2318 33.5957C16.4918 33.5993 17.7401 33.3529 18.9042 32.8707C20.0684 32.3886 21.1253 31.6803 22.0138 30.7869C22.1544 30.6493 22.2828 30.5118 22.4142 30.3651C22.6624 30.0894 22.8931 29.7985 23.105 29.4941C23.1875 29.3718 23.2669 29.2587 23.3403 29.1456C23.5701 28.7939 23.7744 28.4262 23.9516 28.0453C24.0646 27.7947 24.1808 27.541 24.2572 27.2812C24.3061 27.1529 24.355 27.0123 24.3947 26.8839C24.4345 26.7556 24.4773 26.615 24.5078 26.4835C24.5384 26.3521 24.5751 26.2176 24.6056 26.077C24.6362 25.9365 24.6637 25.802 24.6881 25.6706C24.737 25.3955 24.7707 25.1174 24.7951 24.8423C24.9235 24.989 25.0457 25.1479 25.1588 25.3038C25.2261 25.3955 25.2902 25.4841 25.3483 25.5727C25.4706 25.7439 25.5745 25.9242 25.6815 26.1107C25.7491 26.2185 25.8114 26.3297 25.8679 26.4438C26.1138 26.9216 26.3183 27.4196 26.4792 27.9323C26.5189 28.079 26.5586 28.2165 26.5923 28.3632C26.6259 28.5099 26.6564 28.6413 26.69 28.788C26.7237 28.9347 26.739 29.0539 26.7542 29.1854C26.8011 29.4891 26.8307 29.7952 26.8429 30.1023C26.8429 30.1603 26.8429 30.2092 26.8429 30.2643C26.8429 30.3193 26.8734 30.4568 26.8734 30.5454Z" fill="#1F157C"/>
<path d="M25.2779 24.3474H24.8378V24.3627C24.8386 24.5098 24.8304 24.6567 24.8134 24.8028L24.847 24.8334V24.3627C25.009 24.3627 25.1526 24.3627 25.3177 24.378C25.3062 24.3656 25.2928 24.3553 25.2779 24.3474ZM24.9723 24.0143C24.9376 23.9625 24.8965 23.9153 24.85 23.8737V24.0204C24.8546 24.0661 24.8546 24.1122 24.85 24.1579C24.8931 24.1195 24.9339 24.0787 24.9723 24.0357H24.9937L24.9723 24.0143ZM24.6514 23.675H24.5138C24.5626 23.6705 24.6117 23.6705 24.6605 23.675H24.6514ZM24.5047 23.5283L24.4802 23.5681C24.4833 23.5609 24.4879 23.5544 24.4937 23.5491C24.4995 23.5439 24.5064 23.5399 24.5138 23.5375L24.5047 23.5283ZM24.3671 23.6659C24.302 23.6705 24.2366 23.6705 24.1715 23.6659H24.5047C24.4636 23.6654 24.4227 23.6613 24.3824 23.6536L24.3671 23.6659ZM24.3671 24.3505H24.5047C24.4555 24.3515 24.4063 24.3474 24.358 24.3383L24.3671 24.3505ZM24.1715 24.7814V24.8456L24.5047 24.5216V24.4972C24.3971 24.5958 24.2827 24.6867 24.1624 24.7692L24.1715 24.7814ZM24.1715 24.1702V24.3566C24.2003 24.3231 24.2332 24.2934 24.2693 24.268L24.1715 24.1702Z" fill="url(#paint2_linear_0_4047)"/>
<path d="M24.9938 24.0202H24.9602C24.9195 24.0172 24.8786 24.0172 24.8379 24.0202V23.8735L24.9693 24.0019L24.9938 24.0202Z" fill="url(#paint3_linear_0_4047)"/>
<path d="M25.336 23.7055C25.2198 23.8002 25.1037 23.9041 24.9937 24.0111L25.2993 23.7055C25.3113 23.7023 25.3239 23.7023 25.336 23.7055Z" fill="url(#paint4_linear_0_4047)"/>
<path d="M39.9699 30.5488C39.9685 32.7732 39.1361 34.9168 37.6361 36.5594C36.136 38.2019 34.0765 39.2248 31.8614 39.4275C31.8886 39.3982 31.9132 39.3665 31.9347 39.3327C32.0233 39.2288 32.1059 39.128 32.1884 39.0271C32.8369 38.1621 33.3349 37.1939 33.6616 36.1633C33.7043 36.0258 33.7441 35.8943 33.7777 35.7599C33.7991 35.6773 33.8205 35.5948 33.8388 35.5184C33.875 35.3972 33.9026 35.2737 33.9213 35.1486C33.9489 35.0172 33.9702 34.8888 33.9916 34.7574C34.0191 34.574 34.0467 34.3967 34.0589 34.2103C34.0711 34.0239 34.0864 33.9047 34.0925 33.7366C34.0986 33.5685 34.1078 33.4156 34.1078 33.2567C34.1098 31.996 33.8627 30.7473 33.3807 29.5824C32.8987 28.4174 32.1912 27.3592 31.299 26.4686C31.1829 26.3524 31.0667 26.2424 30.9506 26.1415C30.8344 26.0407 30.7091 25.9276 30.5869 25.8359C30.4646 25.7442 30.3454 25.6372 30.2232 25.5303C30.1009 25.4233 29.9175 25.3255 29.7769 25.2246C29.6363 25.1238 29.5447 25.0718 29.4285 25.0046C29.2669 24.9015 29.0995 24.8076 28.9273 24.7234C28.805 24.6561 28.6736 24.595 28.5513 24.54C27.7683 24.1735 26.9382 23.9174 26.0849 23.779C25.9901 23.7587 25.8941 23.7445 25.7976 23.7362C25.6863 23.7169 25.5741 23.7037 25.4614 23.6964C25.4207 23.6934 25.3798 23.6934 25.3391 23.6964C25.9617 23.1694 26.6564 22.734 27.4021 22.4036C27.5947 22.315 27.7995 22.2325 28.0134 22.156L28.1357 22.1163C28.2457 22.0796 28.3496 22.0399 28.4596 22.0124C28.6858 21.9452 28.9181 21.881 29.1504 21.8351C29.2558 21.8071 29.363 21.7867 29.4713 21.774C29.6383 21.7362 29.8079 21.7106 29.9787 21.6976C30.0765 21.6976 30.1712 21.6701 30.2659 21.664C30.3607 21.6579 30.5013 21.6426 30.6235 21.6426C30.7458 21.6426 30.9292 21.6426 31.0698 21.6426C33.43 21.6466 35.6924 22.5864 37.3608 24.256C39.0292 25.9255 39.9674 28.1885 39.9699 30.5488Z" fill="#1F157C"/>
<path d="M25.3422 23.6965C25.3828 23.692 25.4238 23.692 25.4645 23.6965C25.4239 23.6915 25.3828 23.6915 25.3422 23.6965ZM25.2933 23.6965L24.9877 24.0021C25.0916 23.9043 25.2138 23.7973 25.33 23.6965C25.3198 23.695 25.3095 23.695 25.2994 23.6965H25.2933ZM25.009 24.0204L24.9938 24.0052L24.8654 23.8737V24.0204C24.87 24.0662 24.87 24.1122 24.8654 24.158C24.9084 24.1196 24.9492 24.0788 24.9877 24.0357H24.9938C25.0977 24.1427 25.1894 24.2558 25.278 24.3628H25.3269L25.009 24.0204ZM24.5139 23.6751C24.5627 23.6705 24.6118 23.6705 24.6606 23.6751C24.6917 23.7031 24.7213 23.7327 24.7493 23.7637C24.7756 23.7302 24.8053 23.6995 24.8379 23.672L24.5139 23.6751ZM25.278 24.3597H24.8379V24.375C24.9999 24.375 25.1435 24.375 25.3086 24.3903C25.301 24.3743 25.2906 24.3598 25.278 24.3475V24.3597ZM24.3672 23.6659H24.5048C24.4637 23.6655 24.4228 23.6614 24.3825 23.6537L24.3672 23.6659ZM24.3672 24.3505H24.5048C24.4556 24.3516 24.4064 24.3475 24.3581 24.3383L24.3672 24.3505ZM24.1716 24.1641V24.3505C24.2004 24.3171 24.2333 24.2873 24.2694 24.2619L24.1716 24.1641ZM24.0494 24.0082L24.1899 24.1458C24.1291 24.1026 24.0737 24.0523 24.0249 23.996L24.0494 24.0082ZM24.9113 23.1952C25.0182 23.1035 25.1221 23.0149 25.2383 22.9263C25.0977 23.0027 24.9938 23.0944 24.8868 23.183L24.9113 23.1952Z" fill="url(#paint5_linear_0_4047)"/>
<path d="M24.1288 24.809C24.1288 24.9435 24.1013 25.0749 24.0829 25.2063C24.0646 25.3377 24.0493 25.4569 24.0218 25.5884C23.9943 25.7198 23.9729 25.842 23.9454 25.9643C23.8844 26.2477 23.8069 26.5274 23.7131 26.8017C23.6856 26.8904 23.6489 26.9851 23.6153 27.0737C23.4865 27.4341 23.3312 27.7845 23.1508 28.1221C23.0957 28.226 23.0407 28.3299 22.9796 28.4277C22.8757 28.6141 22.7657 28.7914 22.6495 28.9626C22.5762 29.0787 22.4936 29.1887 22.4111 29.2988C22.3286 29.4088 22.3011 29.4485 22.24 29.5188C22.1788 29.5891 22.1361 29.6533 22.0749 29.7236C21.9038 29.9284 21.7265 30.1209 21.5401 30.3043C19.9152 31.913 17.7342 32.8356 15.4482 32.8814C13.1622 32.9272 10.946 32.0926 9.25802 30.5502C7.57006 29.0079 6.53944 26.8758 6.37932 24.595C6.2192 22.3141 6.94183 20.0589 8.39775 18.2959C8.42526 18.5771 8.45887 18.8522 8.50778 19.1242C8.52611 19.2342 8.54751 19.3442 8.56891 19.4543C8.56891 19.5154 8.59642 19.5765 8.60864 19.6468C8.62087 19.7171 8.65754 19.8455 8.68505 19.9524C8.75227 20.2219 8.83493 20.4872 8.93261 20.7471C8.99374 20.9244 9.06098 21.0955 9.13738 21.2697C9.17788 21.3739 9.2238 21.4759 9.27492 21.5754C9.3819 21.8138 9.5072 22.0399 9.63557 22.2753C9.70587 22.3914 9.77922 22.5076 9.84952 22.6176C9.91982 22.7276 9.99317 22.8346 10.0696 22.9446C10.146 23.0546 10.1857 23.1097 10.2468 23.1922C10.308 23.2747 10.4027 23.4031 10.4852 23.4978C10.7053 23.7637 10.9315 24.0174 11.1699 24.2588C12.0624 25.1495 13.122 25.855 14.288 26.3349C15.454 26.8149 16.7033 27.0597 17.9641 27.0554C18.1261 27.0554 18.285 27.0554 18.444 27.0401C18.6029 27.0248 18.7649 27.0218 18.9208 27.0065C19.0766 26.9912 19.3059 26.9668 19.4984 26.9301L19.853 26.869C19.963 26.8486 20.073 26.8241 20.183 26.7956C20.2778 26.7742 20.3756 26.7528 20.4642 26.7253C20.6018 26.6917 20.7301 26.6489 20.8677 26.6092C22.0661 26.2364 23.1772 25.6262 24.1349 24.8151C24.1349 24.8151 24.1288 24.8151 24.1288 24.809Z" fill="#DEE4F3"/>
<path d="M24.1624 24.3413H24.1501V24.3474H24.1624V24.3413Z" fill="url(#paint6_linear_0_4047)"/>
<path d="M24.4925 24.4849V24.5063L24.1655 24.8363V24.7722C24.2796 24.6823 24.3887 24.5864 24.4925 24.4849Z" fill="url(#paint7_linear_0_4047)"/>
<path d="M24.4986 24.3472H24.355C24.4028 24.3502 24.4508 24.3502 24.4986 24.3472Z" fill="url(#paint8_linear_0_4047)"/>
<path d="M24.52 23.5007V23.516L24.4956 23.5557C24.4987 23.5485 24.5033 23.5421 24.5091 23.5368C24.5149 23.5316 24.5218 23.5276 24.5292 23.5252C24.6362 23.4213 24.7431 23.3235 24.8562 23.2196V23.1768L24.52 23.5007ZM24.52 23.6627C24.5688 23.6582 24.6179 23.6582 24.6667 23.6627C24.6978 23.6907 24.7274 23.7203 24.7554 23.7514C24.7818 23.7179 24.8115 23.6872 24.844 23.6597V23.6749L24.52 23.6627ZM24.3733 23.6535H24.5109C24.4682 23.6575 24.4252 23.6575 24.3825 23.6535H24.3733ZM24.3733 24.3382H24.5109C24.4601 24.3437 24.4088 24.3437 24.3581 24.3382H24.3733ZM24.1777 24.7691V24.8333L24.5109 24.5093V24.4849C24.4017 24.5879 24.2853 24.6829 24.1624 24.7691H24.1777ZM24.1777 24.1578V24.3443C24.2065 24.3108 24.2394 24.281 24.2755 24.2556L24.1777 24.1578ZM24.0555 23.9989V24.0142L24.1961 24.1517C24.1328 24.1071 24.0753 24.0547 24.0249 23.9959L24.0555 23.9989ZM24.1533 24.8211C24.1487 24.8862 24.1487 24.9516 24.1533 25.0167C24.1533 24.9525 24.1533 24.8791 24.1777 24.8119C24.1319 24.818 24.1319 24.818 24.1227 24.818L24.1533 24.8211Z" fill="url(#paint9_linear_0_4047)"/>
<path d="M33.4201 33.2627C33.4184 34.9568 32.9347 36.6154 32.0253 38.0447C31.116 39.474 29.8186 40.615 28.2848 41.3343C26.751 42.0536 25.0442 42.3215 23.3638 42.1067C21.6835 41.8918 20.0989 41.2032 18.7954 40.1212C19.0705 40.0876 19.3547 40.054 19.6328 40.0051C19.7698 39.9865 19.9055 39.96 20.0393 39.9256C20.1769 39.9011 20.3144 39.8675 20.455 39.8278C20.7222 39.7612 20.9855 39.6795 21.2436 39.5833C21.9072 39.3373 22.5425 39.0207 23.1385 38.6389L23.4441 38.428C23.548 38.3546 23.655 38.2721 23.7498 38.1988C24.0954 37.9322 24.4241 37.6443 24.7339 37.3369C25.6271 36.4464 26.3349 35.3877 26.8165 34.2221C27.298 33.0564 27.5438 31.8069 27.5396 30.5457C27.5396 30.3898 27.5396 30.24 27.5244 30.0658V29.968C27.5244 29.8457 27.5091 29.7235 27.4907 29.5921C27.4755 29.4148 27.451 29.2284 27.4265 29.0389C27.4021 28.9105 27.3868 28.7882 27.3532 28.666C27.3299 28.5234 27.2972 28.3825 27.2554 28.2442C27.214 28.0423 27.1599 27.8433 27.0934 27.6482C27.0537 27.5199 27.0109 27.3884 26.962 27.2601L26.8153 26.8689C26.7022 26.6152 26.5891 26.3707 26.4669 26.1201C26.4516 26.0864 26.4332 26.062 26.418 26.0314C26.3446 25.8908 26.2621 25.7625 26.1826 25.6249C26.1032 25.4874 26.0206 25.356 25.9289 25.2245C25.8372 25.0931 25.7578 24.9739 25.6691 24.8517C25.5549 24.6877 25.4325 24.5296 25.3024 24.3779C25.3452 24.3779 25.3941 24.3779 25.4338 24.3963L25.8067 24.4452L26.2376 24.5185C26.3843 24.5491 26.5158 24.5827 26.6625 24.6163C26.9467 24.6866 27.2157 24.7691 27.4907 24.8578L27.558 24.8822C27.775 24.9648 27.995 25.0534 28.2059 25.1512C28.848 25.4469 29.4523 25.8183 30.0061 26.2576C30.0795 26.3065 30.1436 26.3707 30.2078 26.4196C30.3389 26.5271 30.4644 26.6414 30.5838 26.7619C30.6571 26.82 30.7213 26.8841 30.7947 26.9483C31.6267 27.776 32.287 28.7599 32.7376 29.8435C33.1881 30.9272 33.4201 32.0892 33.4201 33.2627Z" fill="#DEE4F3"/>
<path d="M23.6581 24.3075C23.6414 24.3255 23.623 24.3418 23.6031 24.3564C23.4931 24.4511 23.377 24.5398 23.2608 24.6223L22.8971 24.8759C22.781 24.9585 22.6557 25.0349 22.5334 25.1082C22.4112 25.1816 22.2797 25.258 22.1514 25.3283C22.023 25.3986 21.8977 25.4567 21.7663 25.5208C21.4763 25.6565 21.1794 25.7769 20.8769 25.8815C20.7668 25.9182 20.6629 25.9579 20.5529 25.9854C20.3267 26.0526 20.0944 26.1168 19.8683 26.1627C19.746 26.1902 19.6299 26.2116 19.5046 26.233C19.1384 26.3018 18.7675 26.3427 18.3951 26.3552C18.2453 26.3552 18.0895 26.3705 17.9519 26.3705C15.6559 26.3726 13.4476 25.4891 11.7866 23.9039C10.1256 22.3188 9.13991 20.1541 9.03476 17.8605C8.92961 15.5669 9.71307 13.3211 11.2221 11.5906C12.7311 9.86016 14.8493 8.77831 17.1359 8.57031L17.0686 8.66201C16.9647 8.77815 16.87 8.9004 16.7783 9.02266V9.03793C16.5023 9.41532 16.2531 9.81158 16.0325 10.2238C16.0186 10.2546 16.0023 10.2842 15.9836 10.3124C15.8614 10.5569 15.7422 10.8045 15.6352 11.0582C15.5282 11.3119 15.4366 11.5778 15.354 11.8406C15.3112 11.9751 15.2715 12.1065 15.2379 12.2441C15.2165 12.3266 15.1951 12.4091 15.1737 12.4824C15.1402 12.6041 15.1137 12.7276 15.0942 12.8523C15.0667 12.9837 15.0453 13.1151 15.0239 13.2435C14.9964 13.4207 14.9689 13.6072 14.9567 13.7845C14.9445 13.9617 14.9292 14.0901 14.92 14.2582C14.9109 14.4263 14.92 14.5791 14.92 14.738C14.9131 15.9981 15.1549 17.2472 15.6317 18.4136C16.1084 19.58 16.8107 20.6409 17.6983 21.5354L17.8083 21.6393C18.0018 21.8347 18.2059 22.0194 18.4195 22.1925C18.5204 22.2811 18.6304 22.3636 18.7405 22.4462C18.8505 22.5287 18.9605 22.6112 19.0767 22.6846C19.9771 23.3082 20.9808 23.7676 22.0413 24.0416C22.2889 24.1027 22.5365 24.1577 22.7901 24.2066C23.0772 24.2578 23.367 24.2915 23.6581 24.3075Z" fill="#1F157C"/>
<path d="M24.1562 24.1366L24.0217 23.999H24.0431C24.0778 24.0473 24.1156 24.0932 24.1562 24.1366Z" fill="url(#paint10_linear_0_4047)"/>
<path d="M24.2603 24.2462C24.2267 24.2738 24.193 24.3074 24.1655 24.3349V24.1484L24.2603 24.2462Z" fill="url(#paint11_linear_0_4047)"/>
<path d="M24.8561 23.8734V24.0201C24.8606 24.0658 24.8606 24.1119 24.8561 24.1576C24.8991 24.1192 24.9399 24.0784 24.9784 24.0354L24.8561 23.8734ZM24.5138 23.6625C24.5626 23.6579 24.6117 23.6579 24.6605 23.6625C24.6915 23.6905 24.7211 23.7201 24.7491 23.7511C24.7755 23.7177 24.8052 23.6869 24.8378 23.6594L24.5138 23.6625ZM24.3671 23.6625C24.302 23.6671 24.2366 23.6671 24.1715 23.6625H24.5046C24.4637 23.663 24.4228 23.66 24.3824 23.6533L24.3671 23.6625ZM24.3671 24.3471H24.5046C24.4555 24.3492 24.4064 24.3461 24.3579 24.3379L24.3671 24.3471ZM24.1715 24.1607V24.3471C24.2003 24.3136 24.2331 24.2839 24.2693 24.2585L24.1715 24.1607ZM24.0492 24.0017C23.9514 23.9039 23.8567 23.7878 23.7589 23.6747H23.71L24.0431 24.0017L24.1837 24.1393C24.1254 24.0977 24.072 24.0495 24.0248 23.9956L24.0492 24.0017Z" fill="url(#paint12_linear_0_4047)"/>
<path d="M24.0219 23.9804H24.0066L23.6765 23.6748H23.7254C23.8232 23.7787 23.918 23.8887 24.0219 23.9804Z" fill="url(#paint13_linear_0_4047)"/>
<path d="M30.2078 7.88577C29.9266 7.90717 29.6454 7.9469 29.3704 7.99581C29.2328 8.0172 29.0953 8.0447 28.9608 8.07832C28.8263 8.11194 28.6919 8.13945 28.5543 8.17307C28.4168 8.20669 28.2884 8.24948 28.157 8.29227C28.0222 8.32975 27.8895 8.37463 27.7597 8.42674C27.4987 8.51492 27.2426 8.61695 26.9925 8.73238C26.6138 8.91006 26.2482 9.11433 25.8984 9.34365C25.7822 9.417 25.663 9.49341 25.556 9.57593C25.4491 9.65846 25.3421 9.72569 25.2504 9.8021C24.9022 10.0644 24.5743 10.3525 24.2693 10.664C23.3744 11.5536 22.6648 12.6119 22.1816 13.7776C21.6984 14.9434 21.4513 16.1933 21.4544 17.4552C21.4544 17.6111 21.4544 17.7608 21.4544 17.932C21.4544 18.1032 21.4697 18.2376 21.488 18.3996C21.5064 18.5616 21.5308 18.7633 21.5583 18.9406C21.5858 19.1179 21.5981 19.2004 21.6256 19.3318C21.6502 19.4751 21.6829 19.617 21.7234 19.7566C21.8059 20.0898 21.9068 20.4199 22.029 20.7408C22.1329 21.0159 22.2491 21.2818 22.3713 21.5446C22.4539 21.7219 22.5425 21.893 22.6403 22.0642C22.6922 22.1681 22.7473 22.2629 22.8023 22.3698C22.8573 22.4768 22.9734 22.6449 23.0651 22.7824C23.1568 22.92 23.2363 23.0361 23.331 23.1645C23.4258 23.2928 23.5694 23.4701 23.7008 23.6321C23.5633 23.6321 23.4349 23.6046 23.3035 23.5832L22.9215 23.5221L22.5425 23.4487C22.2888 23.3937 22.0443 23.3234 21.7967 23.25C21.536 23.1614 21.2799 23.0594 21.0296 22.9444C20.9134 22.8986 20.7973 22.8497 20.6873 22.7947C20.5533 22.7358 20.4227 22.6695 20.2961 22.596C20.1677 22.5349 20.0424 22.4585 19.9201 22.3851C19.2908 22.0057 18.7108 21.5499 18.1933 21.0281L18.1047 20.9456C16.5165 19.3062 15.617 17.1205 15.5914 14.8382C15.5657 12.5559 16.4158 10.3505 17.9667 8.6759C19.5176 7.00127 21.6514 5.98476 23.9289 5.83551C26.2065 5.68626 28.4547 6.41563 30.2109 7.87354L30.2078 7.88577Z" fill="#DEE4F3"/>
<path d="M23.6917 23.6229C23.5603 23.6045 23.432 23.5984 23.3005 23.5801L23.7009 23.629C23.7009 23.629 23.6917 23.629 23.6917 23.6229ZM25.009 24.0202L24.9938 24.0049L24.8654 23.8735V24.0202C24.8699 24.0659 24.8699 24.112 24.8654 24.1577C24.9084 24.1193 24.9492 24.0785 24.9876 24.0355H24.9938C25.0977 24.1425 25.1894 24.2555 25.278 24.3625H25.3269L25.009 24.0202ZM24.5139 23.6748C24.5627 23.6703 24.6118 23.6703 24.6606 23.6748H24.5139ZM24.5139 23.5373L24.4895 23.577C24.4926 23.5698 24.4972 23.5634 24.503 23.5581C24.5088 23.5528 24.5156 23.5489 24.5231 23.5465L24.5139 23.5373ZM24.2083 23.1889C24.2083 23.1889 24.2083 23.2194 24.2083 23.2286L24.5139 23.5342C24.4069 23.3937 24.303 23.2806 24.2052 23.1675L24.2083 23.1889ZM24.3703 23.6748C24.3051 23.6794 24.2398 23.6794 24.1747 23.6748H24.5078C24.4655 23.6716 24.4235 23.6644 24.3825 23.6534L24.3703 23.6748ZM24.1655 24.173V24.3595C24.1943 24.326 24.2272 24.2962 24.2633 24.2708L24.1655 24.173ZM24.028 24.0141C23.9301 23.9163 23.8354 23.8001 23.7376 23.6871H23.6887L24.0218 24.0141L24.1624 24.1516C24.1109 24.105 24.0648 24.0527 24.0249 23.9957L24.028 24.0141Z" fill="url(#paint14_linear_0_4047)"/>
<path d="M24.5078 23.6748H24.1716C24.2328 23.6748 24.2939 23.6748 24.3642 23.6748C24.412 23.6781 24.46 23.6781 24.5078 23.6748Z" fill="url(#paint15_linear_0_4047)"/>
<path d="M24.52 23.4977V23.5344C24.5048 23.5344 24.4925 23.5496 24.4864 23.5619L24.5139 23.5282L24.2083 23.2226C24.2053 23.2075 24.2053 23.1919 24.2083 23.1768C24.303 23.2929 24.4069 23.409 24.5139 23.5252L24.52 23.4977Z" fill="url(#paint16_linear_0_4047)"/>
<path d="M39.9271 16.6451L39.8385 16.5748C39.7223 16.4739 39.597 16.3761 39.4748 16.2875C39.215 16.0949 38.9552 15.9238 38.6862 15.7588C38.5517 15.6793 38.4142 15.6029 38.2767 15.5265C38.0016 15.3828 37.7204 15.2453 37.4331 15.1291C37.2895 15.068 37.1458 15.013 36.996 14.9641C36.8463 14.9152 36.7546 14.8755 36.6385 14.8418C36.5223 14.8082 36.3848 14.7654 36.2564 14.7318L36.015 14.6707L35.6451 14.5882C35.5168 14.5607 35.3854 14.5393 35.2539 14.5209C35.1225 14.5026 34.8933 14.4659 34.713 14.4506C34.5326 14.4354 34.4073 14.4231 34.2423 14.417C34.0772 14.4109 33.9183 14.417 33.7624 14.417C32.5005 14.4139 31.2505 14.6616 30.0851 15.1459C28.9198 15.6302 27.8623 16.3414 26.9743 17.238C26.5738 17.6359 26.2106 18.0697 25.8893 18.5339L25.657 18.8823C25.5836 18.9985 25.5072 19.1146 25.44 19.2399C25.2989 19.4765 25.1704 19.7203 25.0549 19.9704C24.9326 20.2332 24.8226 20.5053 24.7187 20.7926C24.6698 20.9362 24.6239 21.0982 24.575 21.2327C24.5261 21.3672 24.4864 21.5383 24.4528 21.685C24.4099 21.8358 24.3752 21.9889 24.3489 22.1435C24.3193 22.2787 24.2968 22.4154 24.2816 22.553C24.2471 22.7256 24.2236 22.9001 24.2113 23.0757C24.2082 23.1123 24.2082 23.1491 24.2113 23.1857C24.1026 23.0565 24.0006 22.9219 23.9057 22.7822C23.727 22.5524 23.5646 22.3104 23.4197 22.0579C23.3433 21.9326 23.2669 21.8042 23.1997 21.6728C23.0629 21.4196 22.9395 21.1595 22.8299 20.8934C22.6565 20.4804 22.5165 20.0542 22.4111 19.6189C22.3775 19.5089 22.3561 19.3927 22.3286 19.2766C22.2828 19.0504 22.2461 18.8151 22.2186 18.5828C22.2186 18.482 22.1911 18.378 22.185 18.2772C22.1789 18.1763 22.1636 18.051 22.1636 17.9349C22.1636 17.8187 22.1636 17.6292 22.1636 17.4917C22.2301 15.2465 23.1414 13.1091 24.7153 11.5066C26.2892 9.90405 28.4099 8.95445 30.6535 8.84752C32.8972 8.74059 35.0985 9.4842 36.8177 10.9298C38.5369 12.3753 39.6473 14.4164 39.9271 16.6451Z" fill="#1F157C"/>
<path d="M24.5016 23.6626C24.5504 23.6581 24.5995 23.6581 24.6483 23.6626C24.6793 23.6906 24.7089 23.7202 24.7369 23.7513C24.7633 23.7178 24.793 23.6871 24.8256 23.6596L24.5016 23.6626ZM24.8347 23.8674V24.0049C24.8303 23.9612 24.8303 23.9172 24.8347 23.8735V23.8674ZM24.8347 24.1517V24.0141C24.8403 24.0597 24.8413 24.1058 24.8378 24.1517H24.8347ZM24.8347 24.3473V24.3625C24.8355 24.5096 24.8273 24.6566 24.8103 24.8027L24.8439 24.8332V24.3473H24.8347ZM24.5169 23.5006V23.5159L24.4924 23.5557C24.4955 23.5485 24.5001 23.542 24.5059 23.5368C24.5117 23.5315 24.5186 23.5275 24.5261 23.5251C24.633 23.4212 24.74 23.3234 24.8531 23.2195V23.1767L24.5169 23.5006ZM24.1929 23.195L24.4985 23.5006C24.4007 23.3784 24.2968 23.2653 24.1929 23.1522C24.196 23.1736 24.196 23.1981 24.196 23.2072L24.1929 23.195ZM24.3641 23.6412C24.2989 23.6458 24.2336 23.6458 24.1685 23.6412H24.5016C24.4623 23.6488 24.4224 23.6528 24.3824 23.6535L24.3641 23.6412ZM24.3641 24.3259H24.5016C24.4543 24.3348 24.4061 24.3389 24.358 24.3381L24.3641 24.3259ZM39.9698 17.5866C39.8964 17.5224 39.8139 17.4399 39.7406 17.3818C39.8384 17.4735 39.9362 17.5622 40.0279 17.66L39.9698 17.5866Z" fill="url(#paint17_linear_0_4047)"/>
<path d="M24.8501 23.1768V23.2196C24.734 23.3143 24.63 23.409 24.52 23.5252V23.5099L24.8501 23.1768Z" fill="url(#paint18_linear_0_4047)"/>
<path d="M24.8623 23.6748C24.8287 23.7023 24.8012 23.7359 24.7645 23.7634C24.7366 23.7313 24.707 23.7007 24.6759 23.6717C24.628 23.6687 24.5801 23.6687 24.5322 23.6717L24.8623 23.6748Z" fill="url(#paint19_linear_0_4047)"/>
<path d="M42.681 24.0051C42.6888 26.0922 41.9556 28.1143 40.6118 29.7113C40.5843 29.4301 40.5507 29.152 40.5018 28.8769C40.4834 28.7669 40.4621 28.6507 40.4407 28.5468C40.407 28.3848 40.3642 28.2198 40.3245 28.0547C40.2848 27.8897 40.2481 27.7888 40.2084 27.6574C40.1686 27.526 40.1259 27.3976 40.077 27.2662C40.0281 27.1348 39.9822 27.0064 39.9272 26.875C39.8722 26.7436 39.8049 26.5877 39.7346 26.4501C39.5274 26.0077 39.2852 25.5825 39.0103 25.1787C38.9339 25.0595 38.8514 24.9525 38.7688 24.8425C38.6863 24.7325 38.6588 24.6897 38.5977 24.6163L38.4143 24.3902C38.234 24.1701 38.0353 23.9653 37.8366 23.7606C36.949 22.8636 35.8915 22.1525 34.7261 21.6687C33.5606 21.1849 32.3104 20.938 31.0485 20.9426C30.8834 20.9426 30.7276 20.9426 30.5686 20.9579C30.4097 20.9732 30.2477 20.9793 30.0888 20.9915C29.9299 21.0037 29.7129 21.0343 29.5295 21.0618C29.4042 21.0801 29.2819 21.1076 29.1597 21.129L28.7899 21.2116L28.5484 21.2727C28.42 21.3063 28.2947 21.3399 28.1664 21.3827C28.038 21.4255 27.931 21.4591 27.8088 21.505C27.6865 21.5508 27.5031 21.6089 27.3717 21.67C27.0828 21.7877 26.8011 21.9224 26.5281 22.0734C26.4332 22.1184 26.3414 22.1694 26.2531 22.2263C26.1583 22.2782 26.0605 22.3332 25.9658 22.3974C25.871 22.4616 25.7671 22.5258 25.6601 22.5869C25.5532 22.648 25.4798 22.7122 25.3912 22.7795L25.2017 22.9231L24.8716 23.1921C24.8686 23.1626 24.8686 23.1329 24.8716 23.1034C24.8716 22.9659 24.8991 22.8314 24.9205 22.6939C24.9419 22.5564 24.9694 22.3883 24.9969 22.2629C25.0244 22.1376 25.0519 22.0001 25.0855 21.8717C25.1192 21.7434 25.162 21.5661 25.2078 21.4194C25.2446 21.2797 25.2885 21.142 25.3392 21.0068C25.3942 20.857 25.4554 20.7011 25.5226 20.5483C25.5899 20.3955 25.6204 20.3222 25.6754 20.206C25.9608 19.596 26.3167 19.0215 26.736 18.4945C26.7865 18.4227 26.8416 18.3543 26.901 18.2897C27.0661 18.091 27.2433 17.8924 27.4267 17.7059C28.6146 16.5182 30.1133 15.6895 31.7508 15.3149C33.3883 14.9402 35.0982 15.0348 36.6844 15.5879C36.8189 15.6368 36.9503 15.6857 37.0817 15.7407C37.2131 15.7957 37.3415 15.8507 37.4699 15.9118C37.6014 15.9662 37.7299 16.0274 37.855 16.0952C38.0047 16.1716 38.1606 16.2542 38.3073 16.3489C38.5582 16.4963 38.8001 16.6586 39.0317 16.8349C39.1753 16.9388 39.322 17.0488 39.4565 17.1649C39.591 17.2811 39.6368 17.3086 39.7194 17.3911C39.8019 17.4736 39.8691 17.5286 39.9425 17.5959L40.0067 17.6662L40.0403 17.6998C40.8778 18.5222 41.5428 19.5035 41.9963 20.5862C42.4497 21.6689 42.6825 22.8312 42.681 24.0051Z" fill="#DEE4F3"/>
<path d="M29.3827 24.002C29.3835 24.5137 29.3031 25.0223 29.1443 25.5088C29.0908 25.6812 29.0255 25.8497 28.9487 26.0131C28.4914 27.0228 27.7047 27.8472 26.7175 28.3512C26.5548 28.4322 26.3874 28.5037 26.2163 28.5652C25.6626 28.7697 25.0767 28.8732 24.4864 28.8708C23.973 28.8707 23.4627 28.7913 22.9735 28.6355C22.8038 28.5788 22.6375 28.5124 22.4753 28.4368C21.4623 27.9785 20.637 27.1867 20.1372 26.1934C20.0535 26.0372 19.982 25.8747 19.9233 25.7075C19.5315 24.6716 19.5045 23.5332 19.8469 22.48C19.9003 22.3065 19.9657 22.137 20.0425 21.9726C20.4986 20.9606 21.2854 20.1339 22.2736 19.6284C22.4325 19.552 22.6006 19.4756 22.7657 19.4144C23.8067 19.0203 24.9514 18.9955 26.0085 19.3441C26.1757 19.3988 26.3399 19.462 26.5005 19.5336C27.5115 19.989 28.3364 20.7762 28.8386 21.7648C28.9207 21.9258 28.9942 22.0911 29.0587 22.2599C29.2713 22.8162 29.3811 23.4065 29.3827 24.002Z" fill="#DEE4F3"/>
</g>
<path d="M24.4986 40.9034C33.8331 40.9034 41.4002 33.3362 41.4002 24.0017C41.4002 14.6672 33.8331 7.1001 24.4986 7.1001C15.164 7.1001 7.59692 14.6672 7.59692 24.0017C7.59692 33.3362 15.164 40.9034 24.4986 40.9034Z" stroke="#DEE4F3" stroke-width="3" stroke-miterlimit="10"/>
<path d="M43.9065 4.62109V5.11316C43.9065 6.28986 43.9065 7.4635 43.9065 8.64019C43.9157 8.83757 43.9034 9.03536 43.8698 9.23007C43.8117 9.51243 43.684 9.7758 43.4983 9.99624C43.3125 10.2167 43.0746 10.3872 42.8062 10.4923C42.6397 10.5625 42.4693 10.6227 42.2958 10.6727C42.1949 10.7032 42.1338 10.6727 42.1124 10.5565C42.1077 10.5159 42.1077 10.4749 42.1124 10.4343C42.1124 9.389 42.1124 8.34373 42.1124 7.2954C42.1076 7.00056 42.1682 6.70831 42.2897 6.43962C42.5457 5.84736 42.9298 5.3192 43.4144 4.8931C43.5497 4.75816 43.7202 4.66392 43.9065 4.62109Z" fill="url(#paint20_linear_0_4047)"/>
<path d="M42.0908 3.50244L42.1061 5.91085C42.3768 5.54978 42.7139 5.24375 43.0994 5.00922C43.3516 4.85217 43.6227 4.7279 43.9063 4.6394V3.50244H42.0908Z" fill="#FDAF17"/>
<defs>
<linearGradient id="paint0_linear_0_4047" x1="24.4924" y1="24.4971" x2="24.4986" y2="24.4971" gradientUnits="userSpaceOnUse">
<stop stop-color="#0E172B"/>
<stop offset="1" stop-color="#1D284C"/>
</linearGradient>
<linearGradient id="paint1_linear_0_4047" x1="24.8164" y1="24.5981" x2="24.85" y2="24.5981" gradientUnits="userSpaceOnUse">
<stop stop-color="#0E172B"/>
<stop offset="1" stop-color="#1D284C"/>
</linearGradient>
<linearGradient id="paint2_linear_0_4047" x1="24.1471" y1="24.1763" x2="25.3177" y2="24.1763" gradientUnits="userSpaceOnUse">
<stop stop-color="#0E172B"/>
<stop offset="1" stop-color="#1D284C"/>
</linearGradient>
<linearGradient id="paint3_linear_0_4047" x1="24.8501" y1="23.9438" x2="25.006" y2="23.9438" gradientUnits="userSpaceOnUse">
<stop stop-color="#0E172B"/>
<stop offset="1" stop-color="#1D284C"/>
</linearGradient>
<linearGradient id="paint4_linear_0_4047" x1="24.9937" y1="23.8522" x2="25.336" y2="23.8522" gradientUnits="userSpaceOnUse">
<stop stop-color="#0E172B"/>
<stop offset="1" stop-color="#1D284C"/>
</linearGradient>
<linearGradient id="paint5_linear_0_4047" x1="24.0157" y1="23.6506" x2="25.4583" y2="23.6506" gradientUnits="userSpaceOnUse">
<stop stop-color="#0E172B"/>
<stop offset="1" stop-color="#1D284C"/>
</linearGradient>
<linearGradient id="paint6_linear_0_4047" x1="24.1501" y1="24.3444" x2="24.1654" y2="24.3444" gradientUnits="userSpaceOnUse">
<stop stop-color="white"/>
<stop offset="1" stop-color="#D2D8E9"/>
</linearGradient>
<linearGradient id="paint7_linear_0_4047" x1="24.1655" y1="24.6591" x2="24.4925" y2="24.6591" gradientUnits="userSpaceOnUse">
<stop stop-color="white"/>
<stop offset="1" stop-color="#D2D8E9"/>
</linearGradient>
<linearGradient id="paint8_linear_0_4047" x1="24.355" y1="24.3441" x2="24.4986" y2="24.3441" gradientUnits="userSpaceOnUse">
<stop stop-color="white"/>
<stop offset="1" stop-color="#D2D8E9"/>
</linearGradient>
<linearGradient id="paint9_linear_0_4047" x1="24.0157" y1="24.0937" x2="24.8471" y2="24.0937" gradientUnits="userSpaceOnUse">
<stop stop-color="white"/>
<stop offset="1" stop-color="#D2D8E9"/>
</linearGradient>
<linearGradient id="paint10_linear_0_4047" x1="24.0064" y1="24.0663" x2="24.1562" y2="24.0663" gradientUnits="userSpaceOnUse">
<stop stop-color="#0E172B"/>
<stop offset="1" stop-color="#1D284C"/>
</linearGradient>
<linearGradient id="paint11_linear_0_4047" x1="24.1655" y1="24.2432" x2="24.2603" y2="24.2432" gradientUnits="userSpaceOnUse">
<stop stop-color="#0E172B"/>
<stop offset="1" stop-color="#1D284C"/>
</linearGradient>
<linearGradient id="paint12_linear_0_4047" x1="23.6763" y1="24.0017" x2="24.9845" y2="24.0017" gradientUnits="userSpaceOnUse">
<stop stop-color="#0E172B"/>
<stop offset="1" stop-color="#1D284C"/>
</linearGradient>
<linearGradient id="paint13_linear_0_4047" x1="23.6765" y1="23.8276" x2="24.0219" y2="23.8276" gradientUnits="userSpaceOnUse">
<stop stop-color="white"/>
<stop offset="1" stop-color="#D2D8E9"/>
</linearGradient>
<linearGradient id="paint14_linear_0_4047" x1="23.3005" y1="23.7574" x2="25.3269" y2="23.7574" gradientUnits="userSpaceOnUse">
<stop stop-color="white"/>
<stop offset="1" stop-color="#D2D8E9"/>
</linearGradient>
<linearGradient id="paint15_linear_0_4047" x1="24.1716" y1="23.6595" x2="24.5078" y2="23.6595" gradientUnits="userSpaceOnUse">
<stop stop-color="#0E172B"/>
<stop offset="1" stop-color="#1D284C"/>
</linearGradient>
<linearGradient id="paint16_linear_0_4047" x1="24.1991" y1="23.3571" x2="24.52" y2="23.3571" gradientUnits="userSpaceOnUse">
<stop stop-color="#0E172B"/>
<stop offset="1" stop-color="#1D284C"/>
</linearGradient>
<linearGradient id="paint17_linear_0_4047" x1="24.1623" y1="21.1075" x2="40.0279" y2="21.1075" gradientUnits="userSpaceOnUse">
<stop stop-color="#0E172B"/>
<stop offset="1" stop-color="#1D284C"/>
</linearGradient>
<linearGradient id="paint18_linear_0_4047" x1="24.52" y1="23.3449" x2="24.8501" y2="23.3449" gradientUnits="userSpaceOnUse">
<stop stop-color="white"/>
<stop offset="1" stop-color="#D2D8E9"/>
</linearGradient>
<linearGradient id="paint19_linear_0_4047" x1="24.5139" y1="23.7145" x2="24.8623" y2="23.7145" gradientUnits="userSpaceOnUse">
<stop stop-color="white"/>
<stop offset="1" stop-color="#D2D8E9"/>
</linearGradient>
<linearGradient id="paint20_linear_0_4047" x1="42.091" y1="7.64994" x2="43.9065" y2="7.64994" gradientUnits="userSpaceOnUse">
<stop stop-color="white"/>
<stop offset="1" stop-color="#D2D8E9"/>
</linearGradient>
</defs>
</svg>
