<svg width="48" height="48" viewBox="0 0 48 48" fill="none" xmlns="http://www.w3.org/2000/svg">
<path d="M41.8873 0H6.1127C2.73675 0 0 2.73675 0 6.1127V41.8873C0 45.2633 2.73675 48 6.1127 48H41.8873C45.2633 48 48 45.2633 48 41.8873V6.1127C48 2.73675 45.2633 0 41.8873 0Z" fill="#1F157C"/>
<mask id="mask0_0_4036" style="mask-type:luminance" maskUnits="userSpaceOnUse" x="7" y="7" width="34" height="34">
<path d="M24.0015 40.9034C33.336 40.9034 40.9031 33.3362 40.9031 24.0017C40.9031 14.6672 33.336 7.1001 24.0015 7.1001C14.667 7.1001 7.09985 14.6672 7.09985 24.0017C7.09985 33.3362 14.667 40.9034 24.0015 40.9034Z" fill="white"/>
</mask>
<g mask="url(#mask0_0_4036)">
<path d="M24.0015 24.491L23.9954 24.5063V24.4849L24.0015 24.491Z" fill="url(#paint0_linear_0_4036)"/>
<path d="M24.3498 24.3628V24.8365L24.3162 24.7998C24.3162 24.6501 24.3375 24.4942 24.3437 24.3628H24.3498Z" fill="url(#paint1_linear_0_4036)"/>
<path d="M26.3732 30.5454C26.3769 32.842 25.4945 35.0514 23.9098 36.7136C22.3252 38.3759 20.1604 39.3627 17.8663 39.4687C15.5722 39.5746 13.3256 38.7915 11.5945 37.2825C9.86331 35.7734 8.78103 33.6547 8.573 31.3676C8.60564 31.3859 8.63637 31.4074 8.66469 31.4318C8.7784 31.5358 8.89999 31.6308 9.02839 31.716C9.31739 31.9437 9.62398 32.1481 9.9453 32.3273C10.0584 32.4006 10.1806 32.4557 10.2937 32.5229C10.4068 32.5901 10.5382 32.6513 10.6605 32.7093L11.0517 32.8805C11.3023 32.9783 11.5621 33.0761 11.825 33.1556C11.825 33.1556 11.825 33.1556 11.8402 33.1556L12.2223 33.2686C12.3109 33.2839 12.3934 33.3084 12.4668 33.3267L12.8336 33.4062L13.2064 33.4795C13.3929 33.504 13.5824 33.5284 13.7688 33.5468C13.9552 33.5651 14.0928 33.5712 14.2486 33.5773C14.4045 33.5834 14.5543 33.5957 14.7285 33.5957C15.989 33.5993 17.2377 33.353 18.4024 32.8709C19.567 32.3887 20.6245 31.6804 21.5136 30.7869C21.6511 30.6493 21.7795 30.5118 21.9109 30.3651C22.16 30.0902 22.3907 29.7992 22.6017 29.4941C22.6842 29.3718 22.7667 29.2587 22.837 29.1456C23.0679 28.7946 23.2723 28.4269 23.4483 28.0453C23.5633 27.7961 23.6654 27.5411 23.7539 27.2812C23.8028 27.1529 23.8517 27.0123 23.8914 26.8839C23.9312 26.7556 23.974 26.615 24.0076 26.4835C24.0412 26.3521 24.0718 26.2176 24.1054 26.077C24.139 25.9365 24.1604 25.802 24.1848 25.6706C24.2338 25.3955 24.2674 25.1174 24.2918 24.8423C24.4202 24.989 24.5424 25.1479 24.6586 25.3038C24.7228 25.3955 24.7869 25.4841 24.845 25.5727C24.9673 25.7439 25.0712 25.9242 25.1782 26.1107C25.247 26.2178 25.3093 26.3291 25.3646 26.4438C25.6131 26.9204 25.8177 27.4186 25.9759 27.9323C26.0156 28.079 26.0553 28.2165 26.0889 28.3632C26.1226 28.5099 26.1531 28.6413 26.1868 28.788C26.2204 28.9347 26.2357 29.0539 26.2509 29.1854C26.2973 29.4892 26.3279 29.7953 26.3426 30.1023C26.3426 30.1603 26.3426 30.2092 26.3426 30.2643C26.3426 30.3193 26.3732 30.4568 26.3732 30.5454Z" fill="#DEE4F3"/>
<path d="M24.7778 24.3474H24.3408V24.3627C24.34 24.5097 24.3318 24.6566 24.3163 24.8028L24.3469 24.8334V24.3627C24.5089 24.3627 24.6525 24.3627 24.8206 24.378C24.808 24.3657 24.7936 24.3554 24.7778 24.3474ZM24.4722 24.0143C24.4375 23.9625 24.3964 23.9153 24.3499 23.8737V24.0204C24.353 24.0662 24.353 24.1121 24.3499 24.1579C24.3937 24.1203 24.4346 24.0794 24.4722 24.0357V24.0143ZM24.1513 23.675H24.0138C24.0625 23.6705 24.1117 23.6705 24.1605 23.675H24.1513ZM23.9924 23.5161L23.9679 23.5558C23.975 23.5419 23.987 23.531 24.0015 23.5253L23.9924 23.5161ZM23.8548 23.6536C23.7897 23.6582 23.7243 23.6582 23.6592 23.6536H23.9924C23.9507 23.6574 23.9087 23.6574 23.867 23.6536H23.8548ZM23.8548 24.3383H23.9924C23.9487 24.3425 23.9046 24.3425 23.8609 24.3383H23.8548ZM23.6592 24.7692V24.8334L23.9924 24.5094V24.485C23.8894 24.5865 23.7802 24.6814 23.6653 24.7692H23.6592ZM23.6592 24.1579V24.3444C23.6873 24.3102 23.7202 24.2803 23.757 24.2557L23.6592 24.1579Z" fill="url(#paint2_linear_0_4036)"/>
<path d="M24.5088 24.0202H24.4721C24.4314 24.0172 24.3905 24.0172 24.3499 24.0202V23.8735L24.4813 24.0019L24.5088 24.0202Z" fill="url(#paint3_linear_0_4036)"/>
<path d="M24.8357 23.7053C24.7196 23.8001 24.6034 23.904 24.4934 24.0109L24.799 23.7053C24.811 23.7017 24.8238 23.7017 24.8357 23.7053Z" fill="url(#paint4_linear_0_4036)"/>
<path d="M39.4695 30.5488C39.4667 32.7733 38.6334 34.9166 37.133 36.5589C35.6326 38.2012 33.5731 39.2242 31.358 39.4275C31.3853 39.3974 31.4108 39.3658 31.4344 39.3327C31.523 39.2288 31.6055 39.128 31.6881 39.0271C32.3356 38.162 32.8326 37.1938 33.1582 36.1633C33.201 36.0258 33.2407 35.8943 33.2774 35.7599C33.2957 35.6773 33.3171 35.5948 33.3385 35.5184C33.3599 35.442 33.3996 35.2709 33.421 35.1486C33.4424 35.0263 33.4669 34.8888 33.4883 34.7574C33.5158 34.574 33.5433 34.3967 33.5555 34.2103C33.5677 34.0239 33.583 33.9047 33.5922 33.7366C33.6013 33.5685 33.5922 33.4156 33.5922 33.2567C33.5942 31.996 33.3471 30.7473 32.8651 29.5824C32.3831 28.4174 31.6756 27.3592 30.7834 26.4686C30.6672 26.3524 30.5511 26.2424 30.435 26.1415C30.3188 26.0407 30.1935 25.9276 30.0713 25.8359C29.949 25.7442 29.8329 25.6372 29.7075 25.5303C29.5822 25.4233 29.4019 25.3255 29.2644 25.2246C29.1268 25.1238 29.029 25.0718 28.9129 25.0046C28.7523 24.9015 28.5859 24.8076 28.4147 24.7234C28.2894 24.6561 28.161 24.595 28.0357 24.54C27.2529 24.1731 26.4227 23.917 25.5692 23.779C25.4745 23.7585 25.3785 23.7442 25.2819 23.7362C25.1717 23.7171 25.0605 23.7038 24.9488 23.6964C24.9071 23.6934 24.8652 23.6934 24.8235 23.6964C25.4466 23.1701 26.1412 22.7348 26.8865 22.4036C27.0791 22.315 27.2838 22.2325 27.4978 22.156L27.6231 22.1163C27.7331 22.0796 27.834 22.0399 27.9288 22.0124C28.1549 21.9452 28.3872 21.881 28.6195 21.8351C28.7258 21.8068 28.8341 21.7864 28.9435 21.774C29.1105 21.7362 29.28 21.7106 29.4508 21.6976C29.5456 21.6976 29.6403 21.6701 29.7381 21.664C29.8359 21.6579 29.9704 21.6426 30.0927 21.6426C30.2149 21.6426 30.3983 21.6426 30.5389 21.6426C32.9018 21.6466 35.1666 22.5879 36.8364 24.2599C38.5061 25.9319 39.4443 28.1981 39.4451 30.561L39.4695 30.5488Z" fill="#DEE4F3"/>
<path d="M24.845 23.6965C24.8856 23.6919 24.9267 23.6919 24.9673 23.6965C24.9267 23.6913 24.8856 23.6913 24.845 23.6965ZM24.7961 23.6965L24.4905 24.0021C24.5975 23.9043 24.7197 23.7973 24.8328 23.6965C24.8207 23.694 24.8082 23.694 24.7961 23.6965ZM24.5088 24.0204V24.0052L24.3805 23.8737V24.0204C24.3835 24.0662 24.3835 24.1122 24.3805 24.158C24.4242 24.1203 24.4651 24.0795 24.5027 24.0357H24.5272C24.6341 24.1427 24.7228 24.2558 24.8114 24.3628H24.8603L24.5088 24.0204ZM24.0137 23.6751C24.0625 23.6705 24.1116 23.6705 24.1604 23.6751C24.1929 23.7015 24.2226 23.7312 24.249 23.7637C24.2826 23.7301 24.3071 23.6965 24.3377 23.672L24.0137 23.6751ZM24.7778 24.3597H24.3407V24.375C24.5027 24.375 24.6464 24.375 24.8145 24.3903C24.8047 24.3741 24.7923 24.3596 24.7778 24.3475V24.3597ZM23.867 23.6659H24.0045C23.9584 23.6664 23.9123 23.6623 23.867 23.6537V23.6659ZM23.867 24.3505H24.0045C23.9563 24.3516 23.9082 24.3475 23.8609 24.3383L23.867 24.3505ZM23.6714 24.1641V24.3505C23.6994 24.3163 23.7324 24.2865 23.7692 24.2619L23.6714 24.1641ZM23.5308 24.0082L23.6683 24.1458C23.6117 24.101 23.5595 24.0508 23.5125 23.996L23.5308 24.0082ZM24.3957 23.1952C24.4997 23.1035 24.6066 23.0149 24.7197 22.9263C24.6005 23.0027 24.4935 23.0944 24.3896 23.183L24.3957 23.1952Z" fill="url(#paint5_linear_0_4036)"/>
<path d="M23.6316 24.809C23.6316 24.9435 23.6041 25.0749 23.5827 25.2063C23.5613 25.3377 23.5491 25.4569 23.5216 25.5884C23.4941 25.7198 23.4727 25.842 23.4452 25.9643C23.3842 26.2477 23.3066 26.5274 23.2129 26.8017C23.1854 26.8904 23.1518 26.9851 23.1181 27.0737C22.9883 27.4342 22.832 27.7846 22.6505 28.1221C22.5955 28.226 22.5405 28.3299 22.4794 28.4277C22.3794 28.6114 22.2702 28.7899 22.1523 28.9626C22.0759 29.0787 21.9934 29.1887 21.9109 29.2988C21.8284 29.4088 21.8009 29.4485 21.7397 29.5188C21.6786 29.5891 21.6358 29.6533 21.5747 29.7236C21.4035 29.9284 21.2262 30.1209 21.0398 30.3043C19.4149 31.913 17.234 32.8356 14.9479 32.8814C12.6619 32.9272 10.4458 32.0926 8.75779 30.5502C7.06982 29.0079 6.03919 26.8758 5.87907 24.595C5.71895 22.3141 6.44159 20.0589 7.89751 18.2959C7.92501 18.5771 7.95863 18.8522 8.00753 19.1242C8.02893 19.2342 8.04727 19.3442 8.06866 19.4543C8.06866 19.5154 8.09617 19.5765 8.1084 19.6468C8.12062 19.7171 8.1573 19.8455 8.18481 19.9524C8.25343 20.2215 8.33607 20.4867 8.43237 20.7471C8.4935 20.9244 8.56073 21.0955 8.63714 21.2697C8.67993 21.3716 8.72578 21.4735 8.77468 21.5754C8.88471 21.8138 9.00696 22.0399 9.13839 22.2753C9.20563 22.3914 9.28204 22.5076 9.34927 22.6176C9.41651 22.7276 9.49292 22.8346 9.56933 22.9446C9.64574 23.0546 9.68547 23.1097 9.7466 23.1922C9.80772 23.2747 9.90553 23.4031 9.98805 23.4978C10.2033 23.7629 10.4318 24.0169 10.6727 24.2588C11.5634 25.151 12.6217 25.8583 13.7866 26.3403C14.9515 26.8224 16.2001 27.0695 17.4608 27.0676C17.6259 27.0676 17.7818 27.0676 17.9407 27.0523C18.0996 27.0371 18.2463 27.034 18.4205 27.0187C18.5947 27.0034 18.8026 26.979 18.9951 26.9423L19.3527 26.8812L19.6797 26.8078C19.7776 26.7864 19.8723 26.765 19.9609 26.7375C20.0985 26.7039 20.2268 26.6611 20.3644 26.6214C21.5628 26.2486 22.6739 25.6384 23.6316 24.8273C23.6316 24.8273 23.6316 24.8151 23.6316 24.809Z" fill="#1F157C"/>
<path d="M23.6621 24.3413H23.6499V24.3474H23.6621V24.3413Z" fill="#1F157C"/>
<path d="M23.9923 24.4849V24.5063L23.6653 24.8363V24.7722C23.78 24.6831 23.8892 24.5871 23.9923 24.4849Z" fill="#1F157C"/>
<path d="M24.0013 24.3472H23.8577C23.9055 24.3503 23.9535 24.3503 24.0013 24.3472Z" fill="#1F157C"/>
<path d="M24.0229 23.5007V23.516L23.9984 23.5557C24.0055 23.5418 24.0175 23.5309 24.032 23.5252C24.136 23.4213 24.2429 23.3235 24.356 23.2196V23.1768L24.0229 23.5007ZM24.0229 23.6627C24.0717 23.6582 24.1208 23.6582 24.1696 23.6627C24.2021 23.6891 24.2318 23.7188 24.2582 23.7514C24.2918 23.7177 24.3163 23.6841 24.3468 23.6597V23.6749L24.0229 23.6627ZM23.8762 23.6535H24.0137C23.9649 23.6587 23.9157 23.6587 23.867 23.6535H23.8762ZM23.8762 24.3382H24.0137C23.9629 24.3439 23.9117 24.3439 23.8609 24.3382H23.8762ZM23.6805 24.7691V24.8333L24.0137 24.5093V24.4849C23.9039 24.5871 23.7875 24.6821 23.6653 24.7691H23.6805ZM23.6805 24.1578V24.3443C23.7086 24.3101 23.7416 24.2802 23.7784 24.2556L23.6805 24.1578ZM23.54 23.9989V24.0142L23.6775 24.1517C23.6174 24.1055 23.5621 24.0532 23.5125 23.9959L23.54 23.9989ZM23.6378 24.8211C23.6378 24.8853 23.6225 24.9525 23.6225 25.0167C23.6225 24.9525 23.6378 24.8791 23.6469 24.8119C23.6316 24.818 23.6316 24.818 23.6225 24.818L23.6378 24.8211Z" fill="#1F157C"/>
<path d="M32.9229 33.2627C32.9205 34.9568 32.4361 36.6153 31.5264 38.0444C30.6167 39.4735 29.3191 40.6142 27.7852 41.3334C26.2514 42.0526 24.5446 42.3205 22.8641 42.1058C21.1837 41.8912 19.599 41.2028 18.2952 40.1212C18.5702 40.0876 18.8575 40.054 19.1326 40.0051C19.2696 39.9868 19.4053 39.9603 19.5391 39.9256C19.6793 39.9003 19.818 39.8676 19.9548 39.8278C20.2221 39.7616 20.4854 39.6799 20.7433 39.5833C21.4073 39.338 22.0426 39.0213 22.6382 38.6389L22.9439 38.428C23.0509 38.3546 23.1548 38.2721 23.2495 38.1988C23.5952 37.9322 23.9238 37.6443 24.2337 37.3369C25.1272 36.4465 25.8355 35.388 26.3176 34.2223C26.7997 33.0567 27.0461 31.8071 27.0424 30.5457C27.0424 30.3898 27.0424 30.24 27.0241 30.0658V29.968C27.0241 29.8457 27.0241 29.7235 26.9936 29.5921C26.9752 29.4148 26.9508 29.2284 26.9263 29.0389C26.9018 28.9105 26.8866 28.7882 26.853 28.666C26.8311 28.5231 26.7984 28.3821 26.7551 28.2442C26.7138 28.0423 26.6597 27.8433 26.5932 27.6482C26.5534 27.5199 26.5137 27.3884 26.4648 27.2601L26.3181 26.8689C26.2019 26.6152 26.0889 26.3707 25.9666 26.1201C25.9522 26.0895 25.9358 26.0599 25.9177 26.0314C25.8444 25.8908 25.7649 25.7625 25.6824 25.6249C25.5998 25.4874 25.5204 25.356 25.4318 25.2245C25.3431 25.0931 25.2606 24.9739 25.1689 24.8517C25.0772 24.7294 24.9336 24.546 24.8052 24.3779C24.8449 24.3779 24.8938 24.3779 24.9336 24.3963L25.3095 24.4452L25.7404 24.5185C25.8871 24.5491 26.0155 24.5827 26.1622 24.6163C26.4465 24.6866 26.7154 24.7691 26.9936 24.8578C27.0144 24.8673 27.0358 24.8754 27.0577 24.8822C27.2778 24.9648 27.4978 25.0534 27.7087 25.1512C28.3494 25.4476 28.9527 25.819 29.5059 26.2576C29.5792 26.3065 29.6434 26.3707 29.7107 26.4196C29.839 26.5266 29.9613 26.6396 30.0835 26.7619C30.1569 26.82 30.2211 26.8841 30.2944 26.9483C31.1269 27.7758 31.7876 28.7596 32.2387 29.8433C32.6898 30.9269 32.9223 32.089 32.9229 33.2627Z" fill="#1F157C"/>
<path d="M23.158 24.3075C23.1412 24.3255 23.1228 24.3418 23.103 24.3564C22.9929 24.4511 22.8768 24.5398 22.7607 24.6223C22.6445 24.7048 22.5223 24.7934 22.397 24.8759C22.2716 24.9585 22.1586 25.0349 22.0332 25.1082C21.9079 25.1816 21.7826 25.258 21.6512 25.3283C21.5198 25.3986 21.3975 25.4567 21.2661 25.5208C20.9764 25.657 20.6795 25.7774 20.3767 25.8815C20.2667 25.9182 20.1658 25.9579 20.0711 25.9854C19.8449 26.0526 19.6126 26.1168 19.3865 26.1627C19.2611 26.1902 19.145 26.2116 19.0227 26.233C18.6565 26.3015 18.2857 26.3424 17.9133 26.3552C17.7605 26.3552 17.6076 26.3705 17.4671 26.3705C15.1711 26.3726 12.9627 25.4891 11.3017 23.9039C9.64071 22.3188 8.65504 20.1541 8.54989 17.8605C8.44474 15.5669 9.22821 13.3211 10.7372 11.5906C12.2462 9.86016 14.3645 8.77831 16.651 8.57031L16.5838 8.66201C16.4819 8.77724 16.386 8.89761 16.2965 9.02266C16.2965 9.02266 16.2965 9.03793 16.2812 9.03793C16.0074 9.41677 15.7583 9.81289 15.5355 10.2238C15.5215 10.2546 15.5052 10.2842 15.4865 10.3124C15.3643 10.5569 15.2481 10.8045 15.1381 11.0582C15.0281 11.3119 14.9395 11.5778 14.8569 11.8406C14.8172 11.9751 14.7744 12.1065 14.7408 12.2441L14.6797 12.4824C14.646 12.6078 14.6186 12.73 14.5972 12.8523C14.5758 12.9745 14.5482 13.1151 14.5268 13.2435C14.4993 13.4207 14.4718 13.6072 14.4596 13.7845C14.4474 13.9617 14.4321 14.0901 14.426 14.2582C14.4199 14.4263 14.4107 14.5791 14.4107 14.738C14.405 15.9988 14.6483 17.2482 15.1266 18.4146C15.6049 19.5811 16.3089 20.6416 17.1981 21.5354L17.3081 21.6393C17.5017 21.8347 17.7057 22.0194 17.9194 22.1925C18.0203 22.2811 18.1303 22.3636 18.225 22.4462C18.3198 22.5287 18.4451 22.6112 18.5612 22.6846C19.4625 23.3088 20.4673 23.7682 21.529 24.0416C21.7735 24.1027 22.021 24.1577 22.2747 24.2066C22.5668 24.2582 22.8618 24.2919 23.158 24.3075Z" fill="#DEE4F3"/>
<path d="M23.659 24.1366L23.5215 23.999H23.5429C23.5786 24.0473 23.6174 24.0933 23.659 24.1366Z" fill="url(#paint6_linear_0_4036)"/>
<path d="M23.76 24.2462C23.7264 24.2738 23.6928 24.3074 23.6653 24.3349V24.1484L23.76 24.2462Z" fill="url(#paint7_linear_0_4036)"/>
<path d="M24.356 23.8734V24.0201C24.3591 24.0659 24.3591 24.1118 24.356 24.1576C24.3998 24.12 24.4406 24.0791 24.4783 24.0354L24.356 23.8734ZM24.0137 23.6625C24.0625 23.6579 24.1116 23.6579 24.1604 23.6625C24.1929 23.6889 24.2226 23.7186 24.249 23.7511C24.2827 23.7175 24.3071 23.6839 24.3377 23.6594L24.0137 23.6625ZM23.867 23.6625C23.8019 23.6671 23.7365 23.6671 23.6714 23.6625H24.0045C23.9585 23.664 23.9124 23.6609 23.867 23.6533V23.6625ZM23.867 24.3471H24.0045C23.9565 24.3492 23.9083 24.3461 23.8609 24.338L23.867 24.3471ZM23.6714 24.1607V24.3471C23.6995 24.3129 23.7324 24.2831 23.7692 24.2585L23.6714 24.1607ZM23.5308 24.0017C23.433 23.9039 23.3352 23.7878 23.2252 23.6747H23.1763L23.5125 23.9804L23.65 24.1179C23.6009 24.081 23.5549 24.0401 23.5125 23.9956L23.5308 24.0017Z" fill="url(#paint8_linear_0_4036)"/>
<path d="M23.5124 23.9804L23.1792 23.6748H23.2251C23.3229 23.7787 23.4176 23.8887 23.5124 23.9804Z" fill="#1F157C"/>
<path d="M29.7077 7.88577C29.4265 7.90717 29.1453 7.9469 28.8703 7.99581C28.7358 8.0172 28.5982 8.0447 28.4607 8.07832C28.3232 8.11194 28.1917 8.13945 28.0573 8.17307C27.9228 8.20669 27.7883 8.24948 27.6599 8.29227C27.5248 8.32879 27.3921 8.37369 27.2626 8.42674C27.0013 8.51384 26.7451 8.61589 26.4955 8.73238C26.1155 8.90943 25.7488 9.11372 25.3982 9.34365C25.2821 9.417 25.1659 9.49341 25.0559 9.57593C24.9459 9.65846 24.842 9.72569 24.7503 9.8021C24.4027 10.0652 24.0748 10.3532 23.7692 10.664C22.8743 11.5536 22.1647 12.6119 21.6815 13.7776C21.1983 14.9434 20.9511 16.1933 20.9543 17.4552C20.9543 17.6111 20.9543 17.7608 20.9543 17.932C20.9576 18.0883 20.9688 18.2444 20.9879 18.3996C20.9879 18.583 21.0277 18.7633 21.0552 18.9406C21.0827 19.1179 21.0979 19.2004 21.1255 19.3318C21.153 19.4632 21.1805 19.6191 21.2202 19.7566C21.3027 20.0898 21.4036 20.4199 21.5258 20.7408C21.6298 21.0159 21.7459 21.2818 21.8681 21.5446C21.9507 21.7219 22.0393 21.893 22.1371 22.0642C22.1921 22.1681 22.2471 22.2629 22.3021 22.3698C22.3572 22.4768 22.4733 22.6449 22.5619 22.7824C22.6506 22.92 22.7331 23.0361 22.8278 23.1645C22.9226 23.2928 23.0693 23.4701 23.1977 23.6321C23.0632 23.6321 22.9318 23.6046 22.8003 23.5832L22.4183 23.5221L22.0424 23.4487C21.7887 23.3937 21.5411 23.3234 21.2936 23.25C21.0328 23.1614 20.7767 23.0594 20.5264 22.9444C20.4103 22.8986 20.2941 22.8497 20.1841 22.7947C20.0511 22.7358 19.9215 22.6695 19.796 22.596C19.6645 22.5349 19.5423 22.4585 19.4169 22.3851C18.7876 22.0057 18.2076 21.5499 17.6901 21.0281L17.6015 20.9456C16.0133 19.3062 15.1139 17.1205 15.0882 14.8382C15.0625 12.5559 15.9126 10.3505 17.4635 8.6759C19.0144 7.00127 21.1482 5.98476 23.4258 5.83551C25.7033 5.68626 27.9515 6.41563 29.7077 7.87354V7.88577Z" fill="#1F157C"/>
<path d="M23.2069 23.6229C23.0785 23.6045 22.9471 23.5984 22.8157 23.5801L23.2161 23.629C23.2161 23.629 23.2069 23.629 23.2069 23.6229ZM24.5242 24.0202V24.0049L24.3958 23.8735V24.0202C24.3989 24.066 24.3989 24.1119 24.3958 24.1577C24.4396 24.1201 24.4804 24.0792 24.5181 24.0355H24.5425C24.6495 24.1425 24.7381 24.2555 24.8268 24.3625H24.8757L24.5242 24.0202ZM24.0138 23.6748C24.0626 23.6703 24.1117 23.6703 24.1605 23.6748H24.0138ZM24.0138 23.5373L23.9893 23.577C23.9964 23.5631 24.0084 23.5522 24.0229 23.5465L24.0138 23.5373ZM23.7081 23.1889C23.7081 23.1889 23.7081 23.2194 23.7081 23.2286L24.0138 23.5342C23.9068 23.3937 23.8182 23.2806 23.7051 23.1675L23.7081 23.1889ZM23.8701 23.6748C23.805 23.6794 23.7396 23.6794 23.6745 23.6748H24.0077C23.9602 23.6725 23.9131 23.6654 23.8671 23.6534L23.8701 23.6748ZM23.6684 24.173V24.3595C23.6965 24.3253 23.7294 24.2954 23.7662 24.2708L23.6684 24.173ZM23.5278 24.0141C23.43 23.9163 23.3322 23.8001 23.2222 23.6871H23.1733L23.5125 23.9805L23.6501 24.118C23.601 24.0811 23.555 24.0402 23.5125 23.9957L23.5278 24.0141Z" fill="#1F157C"/>
<path d="M24.0076 23.6748H23.6714C23.7325 23.6748 23.7936 23.6748 23.8639 23.6748C23.9118 23.6781 23.9598 23.6781 24.0076 23.6748Z" fill="url(#paint9_linear_0_4036)"/>
<path d="M24.0198 23.4977V23.5344C24.0198 23.5344 23.9923 23.5496 23.9862 23.5619L24.0137 23.5282L23.708 23.2226C23.7051 23.2075 23.7051 23.1919 23.708 23.1768C23.8058 23.2929 23.9077 23.409 24.0137 23.5252L24.0198 23.4977Z" fill="url(#paint10_linear_0_4036)"/>
<path d="M39.4268 16.6453L39.3382 16.575C39.2221 16.4742 39.0998 16.3764 38.9745 16.2877C38.7147 16.0952 38.4549 15.924 38.189 15.759L37.7764 15.5267C37.5024 15.3796 37.2208 15.2469 36.9329 15.1294C36.7892 15.0683 36.6456 15.0133 36.4958 14.9644C36.346 14.9155 36.2574 14.8757 36.1382 14.8421C36.019 14.8085 35.8876 14.7657 35.7562 14.7321L35.5147 14.6709L35.1449 14.5884C35.0165 14.5609 34.8851 14.5395 34.7567 14.5212C34.5764 14.4937 34.393 14.4662 34.2158 14.4509C34.0385 14.4356 33.9101 14.4234 33.742 14.4173C33.5739 14.4111 33.4211 14.4173 33.2622 14.4173C32.0002 14.4141 30.7502 14.6619 29.5849 15.1462C28.4195 15.6305 27.3621 16.3416 26.474 17.2383C26.0745 17.6362 25.7123 18.07 25.3921 18.5342C25.3096 18.6503 25.2332 18.7665 25.1598 18.8826C25.0864 18.9987 25.007 19.1149 24.9397 19.2402C24.7987 19.4768 24.6701 19.7206 24.5546 19.9707C24.4324 20.2335 24.3224 20.5055 24.2184 20.7928C24.1726 20.9365 24.1237 21.0985 24.0748 21.2329C24.0259 21.3674 23.9862 21.5386 23.9525 21.6853C23.9189 21.832 23.8761 21.9909 23.8486 22.1437C23.819 22.279 23.7966 22.4157 23.7814 22.5533C23.7479 22.7259 23.7254 22.9004 23.7141 23.0759C23.7095 23.1124 23.7095 23.1494 23.7141 23.1859C23.6054 23.0568 23.5034 22.9221 23.4085 22.7825C23.2308 22.5519 23.0685 22.31 22.9225 22.0581C22.8472 21.9318 22.7738 21.8035 22.7025 21.673C22.5657 21.4199 22.4423 21.1597 22.3327 20.8937C22.1594 20.4807 22.0193 20.0545 21.914 19.6192C21.8803 19.5092 21.8589 19.393 21.8314 19.2769C21.7856 19.0507 21.752 18.8154 21.7245 18.5831C21.7092 18.4822 21.697 18.3783 21.6878 18.2774C21.6786 18.1766 21.6694 18.0513 21.6694 17.9351C21.6694 17.819 21.6694 17.6295 21.6694 17.492C21.7454 15.2537 22.6607 13.126 24.2333 11.5315C25.806 9.93713 27.921 8.99276 30.158 8.8861C32.395 8.77945 34.5903 9.51832 36.3075 10.9559C38.0248 12.3934 39.1383 14.4245 39.4268 16.6453Z" fill="#DEE4F3"/>
<path d="M24.0015 23.6627C24.0503 23.6581 24.0994 23.6581 24.1482 23.6627C24.1807 23.6891 24.2104 23.7188 24.2368 23.7513C24.2704 23.7177 24.2949 23.6841 24.3254 23.6596L24.0015 23.6627ZM24.3346 23.8674V24.005C24.3302 23.9613 24.3302 23.9172 24.3346 23.8735V23.8674ZM24.3346 24.1517V24.0141C24.3397 24.0598 24.3418 24.1057 24.3407 24.1517H24.3346ZM24.3346 24.3473V24.3626C24.3338 24.5096 24.3257 24.6565 24.3102 24.8027L24.3407 24.8332V24.3473H24.3346ZM24.0168 23.5007V23.516L23.9923 23.5557C23.9994 23.5417 24.0114 23.5309 24.0259 23.5251C24.1298 23.4212 24.2368 23.3234 24.3499 23.2195V23.1767L24.0168 23.5007ZM23.6897 23.195L23.9954 23.5007C23.8976 23.3784 23.7937 23.2653 23.6897 23.1522C23.6959 23.1736 23.6958 23.1981 23.6958 23.2073L23.6897 23.195ZM23.8609 23.6413C23.7958 23.6459 23.7304 23.6459 23.6653 23.6413H23.9984C23.9551 23.6495 23.9111 23.6536 23.867 23.6535L23.8609 23.6413ZM23.8609 24.3259H23.9984C23.9531 24.3346 23.907 24.3387 23.8609 24.3381V24.3259ZM39.4697 17.5744C39.3963 17.5102 39.3169 17.4277 39.2435 17.3696C39.3413 17.4613 39.4391 17.55 39.5278 17.6478L39.4697 17.5744Z" fill="url(#paint11_linear_0_4036)"/>
<path d="M24.3499 23.1768V23.2196C24.2337 23.3143 24.1298 23.409 24.0198 23.5252V23.5099L24.3499 23.1768Z" fill="#1F157C"/>
<path d="M24.3651 23.6748C24.3315 23.7023 24.304 23.736 24.2704 23.7635C24.2424 23.7314 24.2129 23.7008 24.1817 23.6718C24.1339 23.6687 24.0859 23.6687 24.0381 23.6718L24.3651 23.6748Z" fill="#1F157C"/>
<path d="M42.1807 24.0048C42.1898 26.0922 41.4564 28.1147 40.1115 29.7111C40.0871 29.4299 40.0504 29.1517 40.0046 28.8767C39.9832 28.7666 39.9618 28.6505 39.9404 28.5466C39.9067 28.3846 39.867 28.2196 39.8242 28.0545C39.7814 27.8895 39.7509 27.7886 39.7081 27.6572C39.6653 27.5258 39.6256 27.3974 39.5797 27.266C39.5339 27.1346 39.4819 27.0062 39.4269 26.8748C39.3719 26.7433 39.3046 26.5875 39.2374 26.4499C39.0292 26.0074 38.786 25.5822 38.51 25.1785C38.4336 25.0593 38.3511 24.9523 38.2716 24.8423C38.1921 24.7323 38.1616 24.6895 38.1004 24.6161L37.914 24.39C37.7367 24.1699 37.5381 23.9651 37.3394 23.7603C36.4502 22.8629 35.3912 22.1515 34.2242 21.6677C33.0572 21.1838 31.8054 20.9373 30.5421 20.9424C30.3801 20.9424 30.2364 20.9424 30.0653 20.9577C29.8941 20.9729 29.7413 20.9791 29.5854 20.9913C29.4296 21.0035 29.2065 21.0341 29.0231 21.0616C28.9008 21.0799 28.7755 21.1074 28.6533 21.1288L28.2834 21.2113L28.042 21.2725C27.9136 21.3061 27.7883 21.3397 27.6599 21.3825C27.5316 21.4253 27.4277 21.4589 27.3024 21.5048C27.177 21.5506 26.9967 21.6087 26.8653 21.6698C26.5766 21.7881 26.295 21.9228 26.0217 22.0732C25.9278 22.1182 25.837 22.1692 25.7497 22.2261C25.6519 22.278 25.5572 22.333 25.4441 22.3972C25.331 22.4614 25.2454 22.5256 25.1385 22.5867L24.8726 22.7793C24.8023 22.8282 24.7411 22.874 24.68 22.9229L24.3499 23.1919C24.3456 23.1625 24.3456 23.1326 24.3499 23.1032C24.3499 22.9657 24.3774 22.8312 24.3958 22.6937C24.4141 22.5561 24.4447 22.388 24.4722 22.2627C24.4997 22.1374 24.5272 21.9999 24.5608 21.8715C24.5944 21.7432 24.6372 21.5659 24.6861 21.4192C24.7219 21.2796 24.7648 21.1419 24.8145 21.0066C24.8695 20.8568 24.9306 20.7009 25.0009 20.5481C25.0712 20.3953 25.0957 20.3219 25.1507 20.2058C25.4512 19.5878 25.8247 19.0081 26.2632 18.479C26.3137 18.4072 26.3688 18.3388 26.4282 18.2742C26.5933 18.0755 26.7705 17.8769 26.957 17.6904C28.1442 16.5027 29.6424 15.6739 31.2794 15.2992C32.9165 14.9246 34.626 15.0192 36.2116 15.5724C36.3491 15.6213 36.4775 15.6702 36.6089 15.7252C36.7404 15.7802 36.8687 15.8352 37.0002 15.8963C37.1316 15.9575 37.2599 16.0125 37.3822 16.0797C37.5045 16.147 37.6878 16.2387 37.8345 16.3334C38.0865 16.4808 38.3294 16.6431 38.5619 16.8194C38.7056 16.9233 38.8492 17.0333 38.9868 17.1495C39.0754 17.2259 39.164 17.2931 39.2466 17.3756C39.3291 17.4582 39.3963 17.5132 39.4727 17.5804L39.5339 17.6507L39.5675 17.6843C40.4025 18.5104 41.0638 19.4951 41.5126 20.5806C41.9614 21.6661 42.1885 22.8303 42.1807 24.0048Z" fill="#1F157C"/>
<path d="M28.8823 24.0018C28.8827 24.5132 28.8033 25.0216 28.647 25.5086C28.5925 25.681 28.5261 25.8495 28.4483 26.0129C27.9911 27.0226 27.2044 27.847 26.2172 28.351C26.0578 28.4343 25.8935 28.5078 25.7251 28.571C25.1724 28.7753 24.5875 28.8788 23.9983 28.8767C23.4798 28.878 22.9642 28.7986 22.4701 28.6413C22.3004 28.5846 22.1341 28.5183 21.9719 28.4427C20.9588 27.9844 20.1336 27.1926 19.6338 26.1993C19.5514 26.0424 19.4799 25.8801 19.4198 25.7133C19.0281 24.6775 19.0011 23.539 19.3434 22.4858C19.3969 22.3124 19.4623 22.1429 19.5391 21.9785C19.9952 20.9665 20.782 20.1398 21.7702 19.6343C21.9322 19.5578 22.0972 19.4814 22.2653 19.4203C23.3052 19.0262 24.449 19.0014 25.5051 19.35C25.6724 19.4041 25.8367 19.4674 25.9971 19.5395C27.0081 19.9949 27.833 20.7821 28.3352 21.7706C28.4186 21.9311 28.4921 22.0964 28.5553 22.2658C28.7682 22.82 28.879 23.4081 28.8823 24.0018Z" fill="#DEE4F3"/>
</g>
<path d="M24.0015 40.9034C33.336 40.9034 40.9031 33.3362 40.9031 24.0017C40.9031 14.6672 33.336 7.1001 24.0015 7.1001C14.667 7.1001 7.09985 14.6672 7.09985 24.0017C7.09985 33.3362 14.667 40.9034 24.0015 40.9034Z" stroke="#DEE4F3" stroke-width="3" stroke-miterlimit="10"/>
<path d="M44.1703 17.0759C46.0285 14.1052 44.2925 8.48147 38.8919 4.23926C33.5341 8.49064 31.8165 14.099 33.6809 17.0759C34.5978 18.5613 36.673 19.7686 38.8919 19.7808C41.1108 19.793 43.235 18.5735 44.1703 17.0759Z" fill="#DEE4F3"/>
<path d="M39.8305 10.5874V11.0795C39.8305 12.2562 39.8305 13.4298 39.8305 14.6065C39.8382 14.8039 39.8259 15.0015 39.7938 15.1964C39.7357 15.4787 39.608 15.7421 39.4223 15.9626C39.2365 16.183 38.9986 16.3535 38.7302 16.4587C38.5636 16.5283 38.3932 16.5885 38.2198 16.639C38.1159 16.6695 38.0578 16.639 38.0334 16.5228C38.0302 16.4822 38.0302 16.4413 38.0334 16.4006C38.0334 15.3553 38.0334 14.31 38.0334 13.2617C38.0286 12.9669 38.0891 12.6746 38.2106 12.4059C38.4667 11.8137 38.8508 11.2855 39.3354 10.8594C39.4719 10.7245 39.6434 10.6303 39.8305 10.5874Z" fill="#1F157C"/>
<path d="M38.0149 9.48096V11.8894C38.286 11.5298 38.6218 11.224 39.0051 10.9877C39.2593 10.8324 39.5312 10.7082 39.8151 10.6179V9.48096H38.0149Z" fill="#FDAF17"/>
<defs>
<linearGradient id="paint0_linear_0_4036" x1="23.9923" y1="24.4971" x2="24.0015" y2="24.4971" gradientUnits="userSpaceOnUse">
<stop stop-color="#0E172B"/>
<stop offset="1" stop-color="#1D284C"/>
</linearGradient>
<linearGradient id="paint1_linear_0_4036" x1="24.3162" y1="24.5981" x2="24.3498" y2="24.5981" gradientUnits="userSpaceOnUse">
<stop stop-color="#0E172B"/>
<stop offset="1" stop-color="#1D284C"/>
</linearGradient>
<linearGradient id="paint2_linear_0_4036" x1="23.647" y1="24.1763" x2="24.8206" y2="24.1763" gradientUnits="userSpaceOnUse">
<stop stop-color="#0E172B"/>
<stop offset="1" stop-color="#1D284C"/>
</linearGradient>
<linearGradient id="paint3_linear_0_4036" x1="24.3499" y1="23.9438" x2="24.5088" y2="23.9438" gradientUnits="userSpaceOnUse">
<stop stop-color="#0E172B"/>
<stop offset="1" stop-color="#1D284C"/>
</linearGradient>
<linearGradient id="paint4_linear_0_4036" x1="24.4934" y1="23.852" x2="24.8357" y2="23.852" gradientUnits="userSpaceOnUse">
<stop stop-color="#0E172B"/>
<stop offset="1" stop-color="#1D284C"/>
</linearGradient>
<linearGradient id="paint5_linear_0_4036" x1="23.5186" y1="23.6506" x2="24.9581" y2="23.6506" gradientUnits="userSpaceOnUse">
<stop stop-color="#0E172B"/>
<stop offset="1" stop-color="#1D284C"/>
</linearGradient>
<linearGradient id="paint6_linear_0_4036" x1="23.5062" y1="24.0663" x2="23.659" y2="24.0663" gradientUnits="userSpaceOnUse">
<stop stop-color="#0E172B"/>
<stop offset="1" stop-color="#1D284C"/>
</linearGradient>
<linearGradient id="paint7_linear_0_4036" x1="23.6653" y1="24.2432" x2="23.76" y2="24.2432" gradientUnits="userSpaceOnUse">
<stop stop-color="#0E172B"/>
<stop offset="1" stop-color="#1D284C"/>
</linearGradient>
<linearGradient id="paint8_linear_0_4036" x1="23.1763" y1="24.0017" x2="24.4844" y2="24.0017" gradientUnits="userSpaceOnUse">
<stop stop-color="#0E172B"/>
<stop offset="1" stop-color="#1D284C"/>
</linearGradient>
<linearGradient id="paint9_linear_0_4036" x1="23.6714" y1="23.6595" x2="24.0076" y2="23.6595" gradientUnits="userSpaceOnUse">
<stop stop-color="#0E172B"/>
<stop offset="1" stop-color="#1D284C"/>
</linearGradient>
<linearGradient id="paint10_linear_0_4036" x1="23.6989" y1="23.3571" x2="24.0198" y2="23.3571" gradientUnits="userSpaceOnUse">
<stop stop-color="#0E172B"/>
<stop offset="1" stop-color="#1D284C"/>
</linearGradient>
<linearGradient id="paint11_linear_0_4036" x1="23.6653" y1="21.1075" x2="39.5278" y2="21.1075" gradientUnits="userSpaceOnUse">
<stop stop-color="#0E172B"/>
<stop offset="1" stop-color="#1D284C"/>
</linearGradient>
</defs>
</svg>
