<svg width="41" height="48" viewBox="0 0 41 48" fill="none" xmlns="http://www.w3.org/2000/svg">
<path d="M34.1046 0H6.31636C2.82793 0 0 2.82793 0 6.31636V41.6836C0 45.1721 2.82793 48 6.31636 48H34.1046C37.593 48 40.4209 45.1721 40.4209 41.6836V6.31636C40.4209 2.82793 37.593 0 34.1046 0Z" fill="#1F157C"/>
<path d="M29.0511 0.00537109V5.14628C29.0514 5.56112 28.97 5.97196 28.8114 6.35529C28.6528 6.73862 28.4202 7.08692 28.1269 7.38025C27.8335 7.67359 27.4852 7.9062 27.1019 8.06479C26.7186 8.22338 26.3077 8.30482 25.8929 8.30446H14.5256C13.688 8.30446 12.8847 7.97173 12.2924 7.37945C11.7002 6.78718 11.3674 5.98388 11.3674 5.14628V0.00537109H29.0511Z" fill="#DEE4F3"/>
<path d="M15.3546 0.00537109V4.88719C15.361 4.99478 15.3452 5.10252 15.3084 5.20381C15.2716 5.3051 15.2145 5.3978 15.1405 5.47621C15.0666 5.55462 14.9774 5.61709 14.8784 5.6598C14.7795 5.7025 14.6729 5.72452 14.5651 5.72452C14.4573 5.72452 14.3507 5.7025 14.2517 5.6598C14.1528 5.61709 14.0636 5.55462 13.9897 5.47621C13.9157 5.3978 13.8586 5.3051 13.8218 5.20381C13.7849 5.10252 13.7692 4.99478 13.7755 4.88719V0.00537109H15.3546Z" fill="#1F157C"/>
<path d="M19.1019 0.00537109V4.88719C19.1083 4.99478 19.0925 5.10252 19.0557 5.20381C19.0189 5.3051 18.9618 5.3978 18.8878 5.47621C18.8139 5.55462 18.7247 5.61709 18.6257 5.6598C18.5268 5.7025 18.4202 5.72452 18.3124 5.72452C18.2046 5.72452 18.098 5.7025 17.999 5.6598C17.9001 5.61709 17.8109 5.55462 17.7369 5.47621C17.663 5.3978 17.6059 5.3051 17.5691 5.20381C17.5322 5.10252 17.5165 4.99478 17.5228 4.88719V0.00537109H19.1019Z" fill="#1F157C"/>
<path d="M22.8491 0.00537109V4.88719C22.8491 5.09623 22.766 5.29671 22.6182 5.44452C22.4704 5.59233 22.2699 5.67537 22.0609 5.67537C21.8518 5.67537 21.6514 5.59233 21.5036 5.44452C21.3557 5.29671 21.2727 5.09623 21.2727 4.88719V0.00537109H22.8491Z" fill="#1F157C"/>
<path d="M26.599 0.00537109V4.88719C26.6053 4.99478 26.5896 5.10252 26.5528 5.20381C26.516 5.3051 26.4588 5.3978 26.3849 5.47621C26.311 5.55462 26.2218 5.61709 26.1228 5.6598C26.0239 5.7025 25.9172 5.72452 25.8095 5.72452C25.7017 5.72452 25.595 5.7025 25.4961 5.6598C25.3971 5.61709 25.308 5.55462 25.234 5.47621C25.1601 5.3978 25.103 5.3051 25.0661 5.20381C25.0293 5.10252 25.0136 4.99478 25.0199 4.88719V0.00537109H26.599Z" fill="#1F157C"/>
<path d="M20.1846 40.5435C27.8001 40.5435 33.9737 34.3699 33.9737 26.7544C33.9737 19.1389 27.8001 12.9653 20.1846 12.9653C12.5691 12.9653 6.39551 19.1389 6.39551 26.7544C6.39551 34.3699 12.5691 40.5435 20.1846 40.5435Z" fill="#DEE4F3"/>
<path d="M21.8618 22.1675C21.8618 22.4893 21.8618 22.7866 21.8618 23.0811C21.8618 25.2629 21.8618 27.4357 21.8618 29.5993C21.8773 29.9643 21.8544 30.33 21.7936 30.6902C21.6854 31.212 21.4489 31.6986 21.1056 32.1062C20.7624 32.5137 20.323 32.8294 19.8272 33.0248C19.5198 33.1542 19.2047 33.2644 18.8836 33.3548C18.6927 33.4148 18.5809 33.3384 18.54 33.1448C18.5254 33.0702 18.519 32.9943 18.5209 32.9184C18.5209 30.9848 18.5209 29.0484 18.5209 27.1148C18.5134 26.569 18.625 26.0283 18.8481 25.5302C19.3238 24.4357 20.0342 23.459 20.929 22.6693C21.1864 22.4174 21.5098 22.2434 21.8618 22.1675Z" fill="#1F157C"/>
<path d="M18.5046 20.1274L18.5346 24.5756C19.0381 23.9107 19.6605 23.3448 20.3701 22.9065C20.8374 22.6187 21.3385 22.3897 21.8619 22.2247V20.1274H18.5046Z" fill="#FDAF17"/>
</svg>
