<svg width="49" height="26" viewBox="0 0 49 26" fill="none" xmlns="http://www.w3.org/2000/svg">
<path d="M45.7883 0H3.21171C1.71407 0 0.5 1.21407 0.5 2.71171V22.9465C0.5 24.4441 1.71407 25.6582 3.21171 25.6582H45.7883C47.2859 25.6582 48.5 24.4441 48.5 22.9465V2.71171C48.5 1.21407 47.2859 0 45.7883 0Z" fill="#1F157C"/>
<path d="M8.89827 4.38477H5.3378C4.72826 4.38477 4.23413 4.87891 4.23413 5.48845V9.04893C4.23413 9.65847 4.72826 10.1526 5.3378 10.1526H8.89827C9.50781 10.1526 10.0019 9.65847 10.0019 9.04893V5.48845C10.0019 4.87891 9.50781 4.38477 8.89827 4.38477Z" fill="#DEE4F3"/>
<path d="M17.7601 4.38477H14.1996C13.5901 4.38477 13.0959 4.87891 13.0959 5.48845V9.04893C13.0959 9.65847 13.5901 10.1526 14.1996 10.1526H17.7601C18.3696 10.1526 18.8638 9.65847 18.8638 9.04893V5.48845C18.8638 4.87891 18.3696 4.38477 17.7601 4.38477Z" fill="#DEE4F3"/>
<path d="M8.89827 14.8628H5.3378C4.72826 14.8628 4.23413 15.3569 4.23413 15.9664V19.5269C4.23413 20.1365 4.72826 20.6306 5.3378 20.6306H8.89827C9.50781 20.6306 10.0019 20.1365 10.0019 19.5269V15.9664C10.0019 15.3569 9.50781 14.8628 8.89827 14.8628Z" fill="#DEE4F3"/>
<path d="M26.6219 4.38477H23.0614C22.4519 4.38477 21.9578 4.87891 21.9578 5.48845V9.04893C21.9578 9.65847 22.4519 10.1526 23.0614 10.1526H26.6219C27.2314 10.1526 27.7256 9.65847 27.7256 9.04893V5.48845C27.7256 4.87891 27.2314 4.38477 26.6219 4.38477Z" fill="#DEE4F3"/>
<path d="M35.4864 4.38477H31.9259C31.3164 4.38477 30.8223 4.87891 30.8223 5.48845V9.04893C30.8223 9.65847 31.3164 10.1526 31.9259 10.1526H35.4864C36.0959 10.1526 36.5901 9.65847 36.5901 9.04893V5.48845C36.5901 4.87891 36.0959 4.38477 35.4864 4.38477Z" fill="#DEE4F3"/>
<path d="M44.3485 4.38477H40.788C40.1785 4.38477 39.6843 4.87891 39.6843 5.48845V9.04893C39.6843 9.65847 40.1785 10.1526 40.788 10.1526H44.3485C44.958 10.1526 45.4521 9.65847 45.4521 9.04893V5.48845C45.4521 4.87891 44.958 4.38477 44.3485 4.38477Z" fill="#DEE4F3"/>
<path d="M44.3485 14.8628H40.788C40.1785 14.8628 39.6843 15.3569 39.6843 15.9664V19.5269C39.6843 20.1365 40.1785 20.6306 40.788 20.6306H44.3485C44.958 20.6306 45.4521 20.1365 45.4521 19.5269V15.9664C45.4521 15.3569 44.958 14.8628 44.3485 14.8628Z" fill="#DEE4F3"/>
<path d="M33.9002 15.2559H15.7833C14.2991 15.2559 13.0959 16.4584 13.0959 17.9418C13.0959 19.4252 14.2991 20.6278 15.7833 20.6278H33.9002C35.3844 20.6278 36.5875 19.4252 36.5875 17.9418C36.5875 16.4584 35.3844 15.2559 33.9002 15.2559Z" fill="#FDAF17"/>
</svg>
