<svg width="48" height="48" viewBox="0 0 48 48" fill="none" xmlns="http://www.w3.org/2000/svg">
<path d="M41.6842 0H6.31579C2.82768 0 0 2.82768 0 6.31579V41.6842C0 45.1723 2.82768 48 6.31579 48H41.6842C45.1723 48 48 45.1723 48 41.6842V6.31579C48 2.82768 45.1723 0 41.6842 0Z" fill="#1F157C"/>
<path d="M40.0926 25.5787C40.5113 25.5787 40.913 25.4123 41.2091 25.1162C41.5052 24.8201 41.6715 24.4185 41.6715 23.9997C41.6715 23.5809 41.5052 23.1793 41.2091 22.8832C40.913 22.5871 40.5113 22.4208 40.0926 22.4208H36.5242C36.4459 21.7803 36.3181 21.1468 36.1421 20.526H40.0926C40.5113 20.526 40.913 20.3597 41.2091 20.0636C41.5052 19.7674 41.6715 19.3658 41.6715 18.9471C41.6715 18.5283 41.5052 18.1267 41.2091 17.8306C40.913 17.5345 40.5113 17.3681 40.0926 17.3681H34.7494C33.7172 15.7004 32.3119 14.2951 30.6442 13.2629V7.90707C30.6442 7.48831 30.4778 7.0867 30.1817 6.79059C29.8856 6.49448 29.484 6.32812 29.0652 6.32812C28.6465 6.32812 28.2448 6.49448 27.9487 6.79059C27.6526 7.0867 27.4863 7.48831 27.4863 7.90707V11.8544C26.8651 11.6791 26.2318 11.5504 25.5915 11.4692V7.90707C25.5915 7.48831 25.4252 7.0867 25.1291 6.79059C24.833 6.49448 24.4313 6.32812 24.0126 6.32812C23.5938 6.32812 23.1922 6.49448 22.8961 6.79059C22.6 7.0867 22.4336 7.48831 22.4336 7.90707V11.4692C21.7933 11.5497 21.1599 11.6785 20.5389 11.8544V7.90707C20.5389 7.48831 20.3725 7.0867 20.0764 6.79059C19.7803 6.49448 19.3787 6.32812 18.9599 6.32812C18.5412 6.32812 18.1396 6.49448 17.8435 6.79059C17.5474 7.0867 17.381 7.48831 17.381 7.90707V13.2502C15.7077 14.2808 14.2969 15.6862 13.26 17.3555H7.90732C7.48855 17.3555 7.08695 17.5218 6.79084 17.818C6.49473 18.1141 6.32837 18.5157 6.32837 18.9344C6.32837 19.3532 6.49473 19.7548 6.79084 20.0509C7.08695 20.347 7.48855 20.5134 7.90732 20.5134H11.8547C11.6801 21.1345 11.5524 21.7679 11.4726 22.4081H7.90732C7.48855 22.4081 7.08695 22.5745 6.79084 22.8706C6.49473 23.1667 6.32837 23.5683 6.32837 23.9871C6.32837 24.4058 6.49473 24.8074 6.79084 25.1035C7.08695 25.3997 7.48855 25.566 7.90732 25.566H11.4821C11.5619 26.2063 11.6896 26.8396 11.8642 27.4608H7.91679C7.49803 27.4608 7.09642 27.6271 6.80031 27.9232C6.5042 28.2193 6.33784 28.6209 6.33784 29.0397C6.33784 29.4585 6.5042 29.8601 6.80031 30.1562C7.09642 30.4523 7.49803 30.6186 7.91679 30.6186H13.2568C14.2938 32.2879 15.7046 33.6933 17.3778 34.7239V40.0923C17.3778 40.5111 17.5442 40.9127 17.8403 41.2088C18.1364 41.5049 18.538 41.6713 18.9568 41.6713C19.3756 41.6713 19.7772 41.5049 20.0733 41.2088C20.3694 40.9127 20.5357 40.5111 20.5357 40.0923V36.145C21.1567 36.3209 21.7901 36.4497 22.4305 36.5302V40.0923C22.4305 40.5111 22.5968 40.9127 22.8929 41.2088C23.189 41.5049 23.5907 41.6713 24.0094 41.6713C24.4282 41.6713 24.8298 41.5049 25.1259 41.2088C25.422 40.9127 25.5884 40.5111 25.5884 40.0923V36.5302C26.2286 36.449 26.862 36.3203 27.4831 36.145V40.0923C27.4831 40.5111 27.6495 40.9127 27.9456 41.2088C28.2417 41.5049 28.6433 41.6713 29.0621 41.6713C29.4808 41.6713 29.8824 41.5049 30.1785 41.2088C30.4747 40.9127 30.641 40.5111 30.641 40.0923V34.7492C32.308 33.7161 33.7132 32.3109 34.7463 30.6439H40.0926C40.5113 30.6439 40.913 30.4776 41.2091 30.1814C41.5052 29.8853 41.6715 29.4837 41.6715 29.065C41.6715 28.6462 41.5052 28.2446 41.2091 27.9485C40.913 27.6524 40.5113 27.486 40.0926 27.486H36.1421C36.3181 26.8652 36.4459 26.2318 36.5242 25.5913L40.0926 25.5787Z" fill="#DEE4F3"/>
<path d="M24 36.7802C31.0582 36.7802 36.78 31.0584 36.78 24.0002C36.78 16.942 31.0582 11.2202 24 11.2202C16.9418 11.2202 11.22 16.942 11.22 24.0002C11.22 31.0584 16.9418 36.7802 24 36.7802Z" fill="#DEE4F3"/>
<path d="M27.1674 19.5474H20.8326C20.1228 19.5474 19.5474 20.1228 19.5474 20.8326V27.1674C19.5474 27.8772 20.1228 28.4526 20.8326 28.4526H27.1674C27.8772 28.4526 28.4526 27.8772 28.4526 27.1674V20.8326C28.4526 20.1228 27.8772 19.5474 27.1674 19.5474Z" fill="#FDAF17"/>
</svg>
