<svg width="39" height="48" viewBox="0 0 39 48" fill="none" xmlns="http://www.w3.org/2000/svg">
<path d="M33.2262 0H9.22759C6.22776 0 3.77336 2.59348 3.77336 5.78967V15.1655L1.50439 16.3845C1.19642 16.5558 0.940532 16.8071 0.763848 17.112C0.587164 17.4169 0.496274 17.7639 0.500814 18.1162V25.5395C0.48613 26.0396 0.67064 26.525 1.01378 26.8891C1.35692 27.2532 1.83061 27.4662 2.33071 27.4812H3.77336V32.4636L1.50439 34.0017C0.888065 34.4189 0.500814 35.2644 0.500814 36.1834V45.5456C0.500814 46.9092 1.31895 48 2.33071 48H8.61672C8.69253 47.9992 8.76818 47.9928 8.84307 47.9809C8.96851 47.9809 9.09669 48 9.22486 48H33.2235C36.2233 48 38.6777 45.4092 38.6777 42.213V5.78967C38.6805 2.60712 36.2261 0 33.2262 0Z" fill="#1F157C"/>
<path d="M10.3185 14.9883C10.0654 14.9883 9.82258 14.8877 9.64358 14.7087C9.46458 14.5297 9.36401 14.287 9.36401 14.0338V3.54531C9.36401 3.29216 9.46458 3.04939 9.64358 2.87039C9.82258 2.69139 10.0654 2.59082 10.3185 2.59082C10.5717 2.59082 10.8144 2.69139 10.9934 2.87039C11.1724 3.04939 11.273 3.29216 11.273 3.54531V14.0338C11.273 14.287 11.1724 14.5297 10.9934 14.7087C10.8144 14.8877 10.5717 14.9883 10.3185 14.9883Z" fill="#DEE4F3"/>
<path d="M17.2235 14.9883C16.9704 14.9883 16.7276 14.8877 16.5486 14.7087C16.3696 14.5297 16.269 14.287 16.269 14.0338V3.54531C16.269 3.29216 16.3696 3.04939 16.5486 2.87039C16.7276 2.69139 16.9704 2.59082 17.2235 2.59082C17.4767 2.59082 17.7195 2.69139 17.8985 2.87039C18.0775 3.04939 18.178 3.29216 18.178 3.54531V14.0338C18.178 14.287 18.0775 14.5297 17.8985 14.7087C17.7195 14.8877 17.4767 14.9883 17.2235 14.9883Z" fill="#FDAF17"/>
<path d="M24.1339 14.9883C23.8808 14.9883 23.638 14.8877 23.459 14.7087C23.28 14.5297 23.1794 14.287 23.1794 14.0338V3.54531C23.1794 3.29216 23.28 3.04939 23.459 2.87039C23.638 2.69139 23.8808 2.59082 24.1339 2.59082C24.3871 2.59082 24.6299 2.69139 24.8089 2.87039C24.9879 3.04939 25.0884 3.29216 25.0884 3.54531V14.0338C25.0884 14.287 24.9879 14.5297 24.8089 14.7087C24.6299 14.8877 24.3871 14.9883 24.1339 14.9883Z" fill="#DEE4F3"/>
<path d="M31.0446 11.4921C30.7914 11.4921 30.5487 11.3916 30.3697 11.2126C30.1907 11.0336 30.0901 10.7908 30.0901 10.5376V3.54531C30.0901 3.29216 30.1907 3.04939 30.3697 2.87039C30.5487 2.69139 30.7914 2.59082 31.0446 2.59082C31.2977 2.59082 31.5405 2.69139 31.7195 2.87039C31.8985 3.04939 31.9991 3.29216 31.9991 3.54531V10.5376C31.9991 10.7908 31.8985 11.0336 31.7195 11.2126C31.5405 11.3916 31.2977 11.4921 31.0446 11.4921Z" fill="#FDAF17"/>
<path d="M22.9668 42.6958V42.6794C22.9668 40.8959 24.3631 39.4996 26.2612 39.4996C27.1715 39.4688 28.0592 39.7868 28.7428 40.3886L27.7447 41.5858C27.3435 41.2142 26.8162 41.0085 26.2693 41.0104C26.0558 41.0157 25.8454 41.0634 25.6505 41.151C25.4556 41.2385 25.2802 41.364 25.1344 41.5202C24.9886 41.6764 24.8755 41.8601 24.8016 42.0605C24.7276 42.261 24.6945 42.4742 24.704 42.6876V42.6958C24.693 42.9183 24.7281 43.1407 24.8073 43.349C24.8864 43.5573 25.0078 43.7469 25.1638 43.906C25.3198 44.0651 25.507 44.1901 25.7137 44.2733C25.9204 44.3565 26.1421 44.396 26.3648 44.3893C26.7091 44.4044 27.0501 44.3161 27.3438 44.1357V43.4048H26.1357V42.164H28.9474V44.9157C28.2002 45.5323 27.2599 45.8663 26.2912 45.8592C24.3904 45.8592 22.9668 44.5502 22.9668 42.6958Z" fill="#DEE4F3"/>
<path d="M29.8938 39.6196H33.0327C33.8018 39.6196 34.3417 39.8133 34.7017 40.1651C34.8299 40.295 34.9307 40.4493 34.9982 40.6188C35.0656 40.7884 35.0984 40.9698 35.0944 41.1523V41.1714C35.1001 41.4689 35.012 41.7607 34.8427 42.0054C34.6733 42.2502 34.4313 42.4354 34.1508 42.5349C34.8926 42.7776 35.3644 43.1976 35.3644 44.0294V44.0594C35.3644 45.1093 34.5081 45.7447 33.0491 45.7447H29.8938V39.6196ZM32.6209 42.0577C33.1363 42.0577 33.4254 41.8832 33.4254 41.5259V41.5095C33.4254 41.1768 33.1527 40.9832 32.6564 40.9832H31.5655V42.0577H32.6209ZM32.8664 44.3757C33.3818 44.3757 33.6845 44.1739 33.6845 43.8139V43.7867C33.6845 43.454 33.4118 43.2413 32.8664 43.2413H31.5737V44.3703L32.8664 44.3757Z" fill="#DEE4F3"/>
</svg>
