<svg width="49" height="37" viewBox="0 0 49 37" fill="none" xmlns="http://www.w3.org/2000/svg">
<rect width="48" height="36.03" transform="translate(0.5)" fill="#F4F6F8"/>
<path d="M17.4092 34.5627C17.8946 33.6519 18.1485 32.6357 18.1485 31.6036C18.1485 30.5716 17.8946 29.5553 17.4092 28.6445H31.591C31.1056 29.5553 30.8517 30.5716 30.8517 31.6036C30.8517 32.6357 31.1056 33.6519 31.591 34.5627" fill="#1F157C"/>
<path d="M8.58638 34.3311H40.4137C40.8643 34.3311 41.2965 34.5101 41.6151 34.8287C41.9337 35.1473 42.1127 35.5795 42.1127 36.0301H6.88184C6.88184 35.5795 7.06085 35.1473 7.37949 34.8287C7.69813 34.5101 8.1303 34.3311 8.58093 34.3311H8.58638Z" fill="#DEE4F3"/>
<path d="M43.0455 0H5.95455C4.50924 0.00431653 3.12436 0.580381 2.10236 1.60237C1.08037 2.62436 0.504317 4.00924 0.5 5.45455V24.4091H48.5V5.45455C48.4957 4.00924 47.9196 2.62436 46.8976 1.60237C45.8757 0.580381 44.4908 0.00431653 43.0455 0Z" fill="#1F157C"/>
<path d="M5.95455 30.6625H43.0455C44.4875 30.6582 45.8695 30.0848 46.8909 29.0669C47.9124 28.049 48.4907 26.669 48.5 25.2271H0.5C0.509339 26.669 1.08761 28.049 2.10906 29.0669C3.13052 30.0848 4.51253 30.6582 5.95455 30.6625Z" fill="#DEE4F3"/>
<path d="M0.5 25.2083V25.2274H48.5C48.5 25.2274 48.5 25.2137 48.5 25.2083V24.4092H0.5V25.2083Z" fill="#DEE4F3"/>
<path d="M26.2973 7.63623V8.60714C26.2973 10.9326 26.2973 13.259 26.2973 15.5862C26.3135 15.9776 26.2897 16.3697 26.2264 16.7562C25.9755 17.9481 25.2228 18.758 24.1182 19.2544C23.7896 19.3937 23.4526 19.5121 23.1091 19.609C22.9046 19.6717 22.7873 19.5926 22.7409 19.3826C22.7265 19.3035 22.7201 19.223 22.7219 19.1426C22.7219 17.0699 22.7219 14.9999 22.7219 12.9271C22.7134 12.343 22.8325 11.7641 23.0709 11.2308C23.5805 10.0591 24.3412 9.01354 25.2991 8.16805C25.5752 7.90036 25.9212 7.71602 26.2973 7.63623Z" fill="#DEE4F3"/>
<path d="M22.7 5.44922L22.7299 10.2138C23.2675 9.50124 23.9335 8.8954 24.6936 8.42741C25.1955 8.11962 25.7331 7.87415 26.2945 7.69649V5.44922H22.7Z" fill="#FDAF17"/>
</svg>
