<svg width="49" height="48" viewBox="0 0 49 48" fill="none" xmlns="http://www.w3.org/2000/svg">
<path d="M48.0695 26.0197C48.0638 26.2645 47.9638 26.4976 47.7904 26.6704C47.617 26.8432 47.3836 26.9423 47.1388 26.9471C46.9162 26.9136 46.7127 26.8021 46.5647 26.6325C46.4166 26.4628 46.3337 26.2461 46.3307 26.0209C46.3276 25.7958 46.4047 25.577 46.5481 25.4034C46.6914 25.2298 46.8918 25.1128 47.1135 25.0733C47.2385 25.0724 47.3624 25.0963 47.4781 25.1434C47.5939 25.1906 47.6992 25.2601 47.788 25.348C47.8768 25.436 47.9474 25.5405 47.9957 25.6558C48.044 25.7711 48.069 25.8947 48.0695 26.0197Z" fill="#1F157C"/>
<path d="M47.0376 14.5703C48.1399 12.7342 48.605 10.5855 48.3607 8.45796C47.8353 3.75102 43.7836 0.0189923 39.0513 0C35.351 0 32.5053 1.5827 30.5522 4.74809C30.1692 5.38117 29.8147 6.01424 29.438 6.64732L28.8999 6.41309C26.5428 5.32715 23.9273 4.92783 21.3536 5.26092C16.5549 5.894 12.8925 8.31232 10.4488 12.5033C7.79622 17.0488 5.17212 21.6133 2.53534 26.1651C1.80115 27.402 1.25395 28.7407 0.911497 30.1377C0.740566 30.8626 0.636112 31.6033 0.5 32.3345V34.68C0.651939 35.4904 0.769059 36.3071 0.965313 37.1047C1.68776 39.9707 3.2739 42.5453 5.50876 44.4795C7.74362 46.4137 10.5191 47.614 13.4591 47.9177C13.5811 47.9373 13.7016 47.9648 13.82 48H16.0737C16.1594 47.9684 16.2472 47.943 16.3365 47.924C21.2112 47.3606 24.9526 44.9992 27.447 40.7766C30.1903 36.153 32.8841 31.5104 35.5282 26.8489C37.2572 23.8813 37.868 20.3933 37.2503 17.0149C36.6327 13.6364 34.8273 10.5902 32.1602 8.42631C31.8152 8.14142 31.448 7.88186 31.0745 7.59381C31.524 6.83095 31.9355 6.0744 32.4008 5.35586C33.3071 3.97191 34.6346 2.91626 36.1871 2.34495C37.7396 1.77364 39.4347 1.717 41.0219 2.18336C42.6091 2.64971 44.0041 3.61435 45.0007 4.93468C45.9974 6.25501 46.5429 7.86096 46.5564 9.51519C46.5534 10.9749 46.1529 12.4062 45.3979 13.6555C42.5491 18.5555 39.7076 23.4619 36.8735 28.3746C36.5718 28.8681 36.3719 29.417 36.2857 29.9889C36.1994 30.5609 36.2286 31.1443 36.3713 31.7048C36.5141 32.2653 36.7677 32.7915 37.117 33.2525C37.4664 33.7135 37.9045 34.0998 38.4056 34.3888C40.501 35.6075 43.1125 34.8637 44.3881 32.6795C44.8693 31.8597 45.3378 31.0335 45.8221 30.2073C46.0247 29.856 46.2367 29.5078 46.433 29.1533C46.7495 28.5962 46.6166 28.0422 46.1165 27.7668C45.6163 27.4915 45.1162 27.6687 44.7775 28.2258C44.6794 28.3872 44.5876 28.5424 44.4926 28.7133C43.8754 29.78 43.2739 30.8563 42.6314 31.9103C42.3892 32.3052 42.0398 32.6232 41.6239 32.8271C41.2079 33.031 40.7426 33.1125 40.2821 33.0621C39.8216 33.0117 39.3849 32.8314 39.023 32.5423C38.661 32.2532 38.3887 31.8671 38.2378 31.4292C38.1136 31.0571 38.0776 30.6613 38.1325 30.273C38.1875 29.8846 38.3319 29.5143 38.5543 29.1913C41.3821 24.3271 44.2098 19.4534 47.0376 14.5703ZM18.4699 7.92298C20.0152 7.31677 21.666 7.02522 23.3255 7.06545C24.985 7.10567 26.6197 7.47685 28.1339 8.15722L28.4821 8.325C27.8806 9.36641 27.3077 10.3698 26.7158 11.3574C26.6714 11.4122 26.6155 11.4565 26.552 11.4872C26.4885 11.5178 26.4191 11.5341 26.3486 11.5347C25.0318 11.4777 24.117 12.0697 23.4997 13.1997C22.8825 14.3298 22.2589 15.3648 21.629 16.4411C21.3192 16.9125 21.1575 17.4659 21.1649 18.0301C21.1722 18.5942 21.3482 19.1432 21.6701 19.6065C21.7055 19.6672 21.7272 19.7349 21.7337 19.8049C21.7403 19.8748 21.7316 19.9454 21.7081 20.0116C21.3916 20.6257 21.0181 21.2271 20.6477 21.8665L10.6103 16.1214C12.3386 12.516 14.5227 9.37276 18.4573 7.91035L18.4699 7.92298ZM26.9184 14.7476C26.6904 15.2066 26.4151 15.6434 26.1555 16.0897C25.7123 16.8589 25.2913 17.6439 24.8039 18.3846C24.6255 18.6035 24.4114 18.7908 24.1708 18.9386C23.3256 18.9196 22.8287 18.2422 23.1325 17.6724C23.8353 16.3556 24.5981 15.0673 25.3705 13.7853C25.4344 13.6903 25.5165 13.609 25.6121 13.546C25.7077 13.483 25.8149 13.4397 25.9274 13.4185C26.0399 13.3973 26.1555 13.3986 26.2675 13.4225C26.3794 13.4463 26.4856 13.4922 26.5797 13.5574C26.7696 13.679 26.9079 13.8664 26.9681 14.0838C27.0283 14.3011 27.006 14.533 26.9057 14.7349L26.9184 14.7476ZM35.4807 18.0522C35.8621 20.8812 35.2514 23.7549 33.7524 26.1841C33.2745 26.9882 32.8028 27.7985 32.3217 28.6405L22.2716 22.8193C22.6419 22.1863 22.9838 21.5532 23.3541 20.9707C23.4037 20.92 23.4635 20.8806 23.5295 20.8549C23.5956 20.8293 23.6664 20.818 23.7371 20.822C24.2948 20.8636 24.8523 20.7403 25.3403 20.4673C25.8284 20.1943 26.2252 19.7837 26.4815 19.2867C27.1336 18.1472 27.7952 17.014 28.4536 15.8808C28.7566 15.411 28.9135 14.862 28.9044 14.3031C28.8954 13.7442 28.7209 13.2004 28.4029 12.7407C28.366 12.6813 28.3423 12.6147 28.3335 12.5453C28.3248 12.4759 28.3312 12.4054 28.3523 12.3387C28.922 11.3195 29.5108 10.3129 30.1249 9.25564C33.189 11.4524 34.9743 14.3646 35.4681 18.0396L35.4807 18.0522Z" fill="#1F157C"/>
<path d="M28.4726 8.3121C27.868 9.35351 27.2951 10.3538 26.7032 11.3414C26.659 11.3966 26.6032 11.4414 26.5397 11.4726C26.4762 11.5038 26.4067 11.5206 26.336 11.5218C25.0192 11.4648 24.1044 12.0568 23.4871 13.1836C22.8699 14.3105 22.2431 15.3519 21.6132 16.4282C21.3034 16.8997 21.1418 17.4531 21.1491 18.0172C21.1565 18.5813 21.3324 19.1303 21.6544 19.5936C21.6896 19.6537 21.7113 19.7209 21.7179 19.7904C21.7245 19.8598 21.7157 19.9299 21.6923 19.9956C21.3758 20.6128 21.0023 21.2142 20.6319 21.8505L10.5977 16.1085C12.3481 12.4999 14.5322 9.35987 18.4668 7.89746C20.0118 7.29004 21.6625 6.99757 23.3221 7.03725C24.9817 7.07693 26.6166 7.44796 28.1308 8.12852C28.2194 8.1855 28.3175 8.23613 28.4726 8.3121Z" fill="#DEE4F3"/>
<path d="M30.1121 9.23975C33.1889 11.4555 34.9742 14.3614 35.4711 18.0395C35.8487 20.8677 35.237 23.7394 33.7397 26.1683C33.2617 26.9723 32.79 27.7826 32.3089 28.6278L22.2588 22.8066C22.6291 22.1735 22.971 21.5405 23.3414 20.9549C23.3912 20.9038 23.4515 20.8643 23.5183 20.8392C23.585 20.814 23.6564 20.8038 23.7275 20.8093C24.285 20.85 24.8421 20.7259 25.3295 20.4523C25.8169 20.1788 26.2131 19.7679 26.4688 19.2709C27.1208 18.1345 27.7824 17.0013 28.4408 15.8681C28.7438 15.3983 28.9007 14.8493 28.8917 14.2903C28.8827 13.7314 28.7081 13.1878 28.3902 12.728C28.3532 12.6686 28.3295 12.602 28.3208 12.5326C28.312 12.4632 28.3184 12.3927 28.3395 12.326C28.9093 11.3067 29.5012 10.3002 30.1121 9.23975Z" fill="#DEE4F3"/>
<path d="M24.1454 18.9324C23.3003 18.9103 22.8033 18.2329 23.1072 17.6663C23.8131 16.3463 24.5728 15.058 25.3451 13.7792C25.4091 13.6843 25.4911 13.603 25.5867 13.5399C25.6822 13.4769 25.7892 13.4334 25.9016 13.4119C26.014 13.3904 26.1295 13.3914 26.2416 13.4148C26.3536 13.4382 26.4599 13.4835 26.5543 13.5481C26.751 13.6659 26.8962 13.8533 26.9613 14.0731C27.0263 14.293 27.0065 14.5292 26.9057 14.7351C26.6777 15.1941 26.4024 15.6309 26.1428 16.0772C25.6996 16.8464 25.2786 17.6314 24.7912 18.3753C24.609 18.5962 24.3906 18.7846 24.1454 18.9324Z" fill="#DEE4F3"/>
<path d="M17.8052 31.3532C17.6912 31.5526 17.5836 31.7394 17.4886 31.9261C16.7099 33.283 15.9313 34.642 15.1526 36.0031C15.0312 36.238 14.8858 36.4597 14.7189 36.6647C14.4651 36.9527 14.1434 37.1728 13.783 37.3049C13.4226 37.437 13.0349 37.477 12.6551 37.4212C12.4163 37.3924 12.1795 37.349 11.946 37.2914C11.8036 37.263 11.7624 37.1743 11.8068 37.0382C11.8237 36.9864 11.846 36.9366 11.8732 36.8894C12.5665 35.6771 13.2628 34.4711 13.9434 33.2524C14.1339 32.9073 14.3975 32.6081 14.7158 32.3756C15.404 31.8602 16.1972 31.5025 17.0392 31.3279C17.2918 31.264 17.5573 31.2727 17.8052 31.3532Z" fill="#DEE4F3"/>
<path d="M16.4313 28.875L14.8486 31.67C15.7714 31.2777 16.7927 31.1794 17.7735 31.3883L18.5237 30.0747L16.4313 28.875Z" fill="#FDAF17"/>
</svg>
