<svg width="39" height="48" viewBox="0 0 39 48" fill="none" xmlns="http://www.w3.org/2000/svg">
<path d="M38.9201 5.57786C38.9201 2.51045 36.5781 0 33.7144 0H5.73005C2.86641 0 0.524414 2.51045 0.524414 5.57786C0.524414 5.65937 0.524414 5.74088 0.524414 5.81967C0.540716 6.2408 0.540716 6.65921 0.524414 7.07761C0.524414 7.15912 0.524414 7.24062 0.524414 7.32213C0.524414 7.40364 0.524414 7.48515 0.524414 7.56666C0.540716 7.98506 0.540716 8.40619 0.524414 8.8246C0.524414 8.90611 0.524414 8.9876 0.524414 9.06911C0.524414 9.15062 0.524414 9.23213 0.524414 9.31364C0.540716 9.73205 0.540716 10.1505 0.524414 10.5716C0.524414 10.6504 0.524414 10.7319 0.524414 10.8161C0.524414 10.8976 0.524414 10.9791 0.524414 11.0579C0.540716 11.479 0.540716 11.8974 0.524414 12.3158C0.524414 12.3974 0.524414 12.4789 0.524414 12.5604C0.524414 12.6419 0.524414 12.7234 0.524414 12.8049C0.540716 13.2233 0.540716 13.6444 0.524414 14.0628C0.524414 14.1443 0.524414 14.2259 0.524414 14.3074C0.524414 14.3889 0.524414 14.4704 0.524414 14.5519C0.540716 14.9703 0.540716 15.3887 0.524414 15.8098C0.524414 15.8886 0.524414 15.9701 0.524414 16.0516C0.524414 16.1358 0.524414 16.2174 0.524414 16.2962C0.540716 16.7173 0.540716 17.1357 0.524414 17.5541C0.524414 17.6356 0.524414 17.7171 0.524414 17.7986C0.524414 17.8801 0.524414 17.9616 0.524414 18.0431C0.540716 18.4615 0.540716 18.8827 0.524414 19.3011C0.524414 19.3826 0.524414 19.4641 0.524414 19.5456C0.524414 19.6271 0.524414 19.7086 0.524414 19.7901C0.540716 20.2085 0.540716 20.6269 0.524414 21.0481C0.524414 21.1269 0.524414 21.2084 0.524414 21.2899C0.524414 21.3741 0.524414 21.4529 0.524414 21.5344C0.540716 21.9555 0.540716 22.3739 0.524414 22.7923C0.524414 22.8738 0.524414 22.9553 0.524414 23.0369C0.524414 23.1184 0.524414 23.1999 0.524414 23.2814C0.540716 23.6998 0.540716 24.1209 0.524414 24.5393C0.524414 24.6208 0.524414 24.7023 0.524414 24.7838C0.524414 24.8653 0.524414 24.9469 0.524414 25.0284C0.540716 25.4468 0.540716 25.8652 0.524414 26.2836C0.524414 26.3651 0.524414 26.4466 0.524414 26.5281C0.524414 26.6096 0.524414 26.6911 0.524414 26.7726C0.540716 27.191 0.540716 27.6122 0.524414 28.0306C0.524414 28.1121 0.524414 28.1936 0.524414 28.2751C0.524414 28.3566 0.524414 28.4381 0.524414 28.5196C0.540716 28.938 0.540716 29.3564 0.524414 29.7776C0.524414 29.8591 0.524414 29.9378 0.524414 30.0221C0.524414 30.1036 0.524414 30.1851 0.524414 30.2639C0.540716 30.685 0.540716 31.1034 0.524414 31.5218C0.524414 31.6033 0.524414 31.6848 0.524414 31.7663C0.524414 31.8479 0.524414 31.9294 0.524414 32.0109C0.540716 32.4293 0.540716 32.8504 0.524414 33.2688C0.524414 33.3503 0.524414 33.4318 0.524414 33.5133C0.524414 33.5948 0.524414 33.6763 0.524414 33.7578C0.540716 34.1763 0.540716 34.5947 0.524414 35.0158C0.524414 35.0946 0.524414 35.1761 0.524414 35.2603C0.524414 35.3418 0.524414 35.4233 0.524414 35.5021C0.540716 35.9233 0.540716 36.3417 0.524414 36.7601C0.524414 36.8416 0.524414 36.9231 0.524414 37.0046C0.524414 37.0861 0.524414 37.1676 0.524414 37.2491C0.540716 37.6675 0.540716 38.0886 0.524414 38.507C0.524414 38.5886 0.524414 38.6701 0.524414 38.7516C0.524414 38.8331 0.524414 38.9146 0.524414 38.9961C0.540716 39.4145 0.540716 39.8329 0.524414 40.254C0.524414 40.3328 0.524414 40.4143 0.524414 40.4958C0.524414 40.5801 0.524414 40.6616 0.524414 40.7404C0.540716 41.1615 0.540716 41.5799 0.524414 41.9983C0.524414 42.0798 0.524414 42.1613 0.524414 42.2428C0.524414 45.3102 2.86641 47.818 5.73005 47.818H33.7144C36.5781 47.818 38.9201 45.3102 38.9201 42.2428C38.9201 42.1613 38.9201 42.0798 38.9201 41.9983C38.901 41.5799 38.901 41.1615 38.9201 40.7404C38.9201 40.6616 38.9201 40.5801 38.9201 40.4958C38.9201 40.4143 38.9201 40.3328 38.9201 40.254C38.901 39.8329 38.901 39.4145 38.9201 38.9961C38.9201 38.9146 38.9201 38.8331 38.9201 38.7516C38.9201 38.6701 38.9201 38.5886 38.9201 38.507C38.901 38.0886 38.901 37.6675 38.9201 37.2491C38.9201 37.1676 38.9201 37.0861 38.9201 37.0046C38.9201 36.9231 38.9201 36.8416 38.9201 36.7601C38.901 36.3417 38.901 35.9233 38.9201 35.5021C38.9201 35.4233 38.9201 35.3418 38.9201 35.2603C38.9201 35.1761 38.9201 35.0973 38.9201 35.0158C38.901 34.5947 38.901 34.1763 38.9201 33.7578C38.9201 33.6763 38.9201 33.5948 38.9201 33.5133C38.9201 33.4318 38.9201 33.3503 38.9201 33.2688C38.901 32.8504 38.901 32.4293 38.9201 32.0109C38.9201 31.9294 38.9201 31.8479 38.9201 31.7663C38.9201 31.6848 38.9201 31.6033 38.9201 31.5218C38.901 31.1034 38.901 30.685 38.9201 30.2639C38.9201 30.1851 38.9201 30.1036 38.9201 30.0221C38.9201 29.9406 38.9201 29.8591 38.9201 29.7776C38.901 29.3564 38.901 28.938 38.9201 28.5196C38.9201 28.4381 38.9201 28.3566 38.9201 28.2751C38.9201 28.1936 38.9201 28.1121 38.9201 28.0306C38.901 27.6122 38.901 27.191 38.9201 26.7726C38.9201 26.6911 38.9201 26.6096 38.9201 26.5281C38.9201 26.4466 38.9201 26.3651 38.9201 26.2863C38.901 25.8652 38.901 25.4468 38.9201 25.0256C38.9201 24.9469 38.9201 24.8653 38.9201 24.7838C38.9201 24.7023 38.9201 24.6208 38.9201 24.5393C38.901 24.1209 38.901 23.6998 38.9201 23.2814C38.9201 23.1999 38.9201 23.1184 38.9201 23.0369C38.9201 22.9553 38.9201 22.8738 38.9201 22.7923C38.901 22.3739 38.901 21.9555 38.9201 21.5344C38.9201 21.4529 38.9201 21.3714 38.9201 21.2899C38.9201 21.2084 38.9201 21.1269 38.9201 21.0481C38.901 20.6269 38.901 20.2085 38.9201 19.7901C38.9201 19.7086 38.9201 19.6271 38.9201 19.5456C38.9201 19.4641 38.9201 19.3826 38.9201 19.3011C38.901 18.8827 38.901 18.4615 38.9201 18.0431C38.9201 17.9616 38.9201 17.8801 38.9201 17.7986C38.9201 17.7171 38.9201 17.6356 38.9201 17.5541C38.901 17.1357 38.901 16.7173 38.9201 16.2962C38.9201 16.2146 38.9201 16.1358 38.9201 16.0516C38.9201 15.9701 38.9201 15.8886 38.9201 15.8098C38.901 15.3887 38.901 14.9703 38.9201 14.5519C38.9201 14.4704 38.9201 14.3889 38.9201 14.3074C38.9201 14.2259 38.9201 14.1443 38.9201 14.0628C38.901 13.6444 38.901 13.2233 38.9201 12.8049C38.9201 12.7234 38.9201 12.6419 38.9201 12.5604C38.9201 12.4789 38.9201 12.3974 38.9201 12.3158C38.901 11.8974 38.901 11.479 38.9201 11.0579C38.9201 10.9791 38.9201 10.8976 38.9201 10.8161C38.9201 10.7319 38.9201 10.6504 38.9201 10.5716C38.901 10.1505 38.901 9.73205 38.9201 9.31364C38.9201 9.23213 38.9201 9.15062 38.9201 9.06911C38.9201 8.9876 38.9201 8.90611 38.9201 8.8246C38.901 8.40619 38.901 7.98506 38.9201 7.56666C38.9201 7.48515 38.9201 7.40364 38.9201 7.32213C38.9201 7.24062 38.9201 7.15912 38.9201 7.07761C38.901 6.65921 38.901 6.2408 38.9201 5.81967C38.9201 5.74088 38.9201 5.65937 38.9201 5.57786Z" fill="#1F157C"/>
<path d="M34.1003 37.5698H5.35515C2.67372 37.5698 0.5 39.7435 0.5 42.425V43.145C0.5 45.8264 2.67372 48.0001 5.35515 48.0001H34.1003C36.7817 48.0001 38.9554 45.8264 38.9554 43.145V42.425C38.9554 39.7435 36.7817 37.5698 34.1003 37.5698Z" fill="#DEE4F3"/>
<path d="M25.7783 21.7708C25.776 22.6912 25.5524 23.5976 25.1263 24.4134C24.7001 25.2293 24.084 25.9306 23.3298 26.4583C22.5757 26.986 21.7057 27.3245 20.7932 27.4453C19.8808 27.5661 18.9527 27.4656 18.0872 27.1523C17.2217 26.8391 16.4443 26.3222 15.8205 25.6454C15.1968 24.9685 14.745 24.1516 14.5033 23.2635C14.2617 22.3753 14.2372 21.4421 14.4319 20.5425C14.6267 19.6429 15.035 18.8034 15.6224 18.0948C15.7021 17.997 15.7863 17.9019 15.8751 17.8095C16.3587 17.315 16.9428 17.2661 17.3857 17.6737C17.4865 17.768 17.567 17.882 17.6219 18.0086C17.6769 18.1353 17.7053 18.2719 17.7053 18.41C17.7053 18.548 17.6769 18.6846 17.6219 18.8113C17.567 18.938 17.4865 19.052 17.3857 19.1463C16.7071 19.8541 16.331 20.7984 16.337 21.779C16.3407 22.3684 16.4848 22.9486 16.7573 23.4713C17.0298 23.994 17.423 24.4443 17.9041 24.7848C18.3853 25.1254 18.9407 25.3464 19.5243 25.4296C20.1079 25.5129 20.7029 25.4559 21.2601 25.2634C21.8172 25.0709 22.3206 24.7484 22.7283 24.3227C23.1361 23.897 23.4366 23.3803 23.605 22.8154C23.7733 22.2505 23.8047 21.6535 23.6964 21.0741C23.5882 20.4946 23.3435 19.9492 22.9826 19.4832C22.8793 19.35 22.7571 19.2305 22.6538 19.0974C22.4739 18.9002 22.3785 18.6403 22.3881 18.3736C22.3978 18.1069 22.5117 17.8546 22.7054 17.671C22.8052 17.5755 22.9237 17.5019 23.0535 17.4547C23.1833 17.4076 23.3215 17.388 23.4592 17.3972C23.597 17.4064 23.7313 17.4442 23.8536 17.5082C23.976 17.5722 24.0837 17.6609 24.1699 17.7688C24.6906 18.2954 25.101 18.9206 25.3772 19.6078C25.6534 20.2949 25.7897 21.0303 25.7783 21.7708Z" fill="#DEE4F3"/>
<path d="M19.0322 19.016C19.0322 18.133 19.0322 17.2473 19.0322 16.3615C19.0322 15.6606 19.4289 15.2204 20.0212 15.2068C20.6135 15.1933 21.0482 15.6497 21.0536 16.3806C21.0536 18.1303 21.0536 19.88 21.0536 21.6297C21.0536 22.3768 20.6596 22.8115 20.032 22.8061C19.4044 22.8006 19.0376 22.3687 19.0322 21.6079C19.0268 20.7439 19.0322 19.88 19.0322 19.016Z" fill="#FDAF17"/>
<path d="M33.9835 45.3103C35.379 45.3103 36.5103 44.1791 36.5103 42.7836C36.5103 41.3881 35.379 40.2568 33.9835 40.2568C32.588 40.2568 31.4568 41.3881 31.4568 42.7836C31.4568 44.1791 32.588 45.3103 33.9835 45.3103Z" fill="#1F157C"/>
<path d="M11.8104 42.7834C11.8108 42.9084 11.7865 43.0322 11.7388 43.1478C11.6911 43.2633 11.6211 43.3683 11.5327 43.4567C11.4443 43.545 11.3394 43.6151 11.2238 43.6627C11.1083 43.7104 10.9845 43.7347 10.8595 43.7344H3.89331C3.64111 43.7344 3.39924 43.6342 3.22091 43.4558C3.04257 43.2775 2.94238 43.0356 2.94238 42.7834C2.94238 42.5312 3.04257 42.2894 3.22091 42.111C3.39924 41.9327 3.64111 41.8325 3.89331 41.8325H10.8595C11.1117 41.8325 11.3536 41.9327 11.5319 42.111C11.7103 42.2894 11.8104 42.5312 11.8104 42.7834Z" fill="#1F157C"/>
<path d="M19.7575 43.7344H15.6033C15.3511 43.7344 15.1092 43.6342 14.9309 43.4558C14.7525 43.2775 14.6523 43.0356 14.6523 42.7834C14.6523 42.5312 14.7525 42.2894 14.9309 42.111C15.1092 41.9327 15.3511 41.8325 15.6033 41.8325H19.7575C20.0097 41.8325 20.2515 41.9327 20.4299 42.111C20.6082 42.2894 20.7084 42.5312 20.7084 42.7834C20.7084 43.0356 20.6082 43.2775 20.4299 43.4558C20.2515 43.6342 20.0097 43.7344 19.7575 43.7344Z" fill="#1F157C"/>
</svg>
