<svg width="36" height="48" viewBox="0 0 36 48" fill="none" xmlns="http://www.w3.org/2000/svg">
<path d="M34.25 6.31348H2.03273C1.18623 6.31348 0.5 6.99973 0.5 7.84624C0.5 8.69274 1.18623 9.37896 2.03273 9.37896H34.25C35.0965 9.37896 35.7827 8.69274 35.7827 7.84624C35.7827 6.99973 35.0965 6.31348 34.25 6.31348Z" fill="#FDAF17"/>
<path d="M34.25 14.3892H2.03273C1.18623 14.3892 0.5 15.0754 0.5 15.9219C0.5 16.7684 1.18623 17.4546 2.03273 17.4546H34.25C35.0965 17.4546 35.7827 16.7684 35.7827 15.9219C35.7827 15.0754 35.0965 14.3892 34.25 14.3892Z" fill="#1F157C"/>
<path d="M34.25 22.4673H2.03273C1.18623 22.4673 0.5 23.1535 0.5 24C0.5 24.8465 1.18623 25.5327 2.03273 25.5327H34.25C35.0965 25.5327 35.7827 24.8465 35.7827 24C35.7827 23.1535 35.0965 22.4673 34.25 22.4673Z" fill="#FDAF17"/>
<path d="M34.25 30.543H2.03273C1.18623 30.543 0.5 31.2292 0.5 32.0757C0.5 32.9222 1.18623 33.6084 2.03273 33.6084H34.25C35.0965 33.6084 35.7827 32.9222 35.7827 32.0757C35.7827 31.2292 35.0965 30.543 34.25 30.543Z" fill="#1F157C"/>
<path d="M34.25 38.6211H2.03273C1.18623 38.6211 0.5 39.3073 0.5 40.1538C0.5 41.0003 1.18623 41.6865 2.03273 41.6865H34.25C35.0965 41.6865 35.7827 41.0003 35.7827 40.1538C35.7827 39.3073 35.0965 38.6211 34.25 38.6211Z" fill="#FDAF17"/>
<path d="M27.5355 0H8.75007C7.05556 0 5.68188 1.37367 5.68188 3.06818V44.9318C5.68188 46.6263 7.05556 48 8.75007 48H27.5355C29.23 48 30.6037 46.6263 30.6037 44.9318V3.06818C30.6037 1.37367 29.23 0 27.5355 0Z" fill="#1F157C"/>
<path d="M24.6256 3.56982H11.6601C10.2955 3.56982 9.18921 4.67607 9.18921 6.04072V41.9589C9.18921 43.3236 10.2955 44.4298 11.6601 44.4298H24.6256C25.9902 44.4298 27.0965 43.3236 27.0965 41.9589V6.04072C27.0965 4.67607 25.9902 3.56982 24.6256 3.56982Z" fill="#DEE4F3"/>
<path d="M22.3865 32.3402L19.6892 34.1484V35.6048H22.3865V37.4593H13.9592V33.6057C13.9592 32.6021 14.2038 31.8212 14.6929 31.263C14.9514 30.9812 15.2692 30.7602 15.6233 30.6159C15.9775 30.4716 16.3592 30.4076 16.741 30.4284H16.7629C17.3596 30.4018 17.9478 30.5777 18.432 30.9275C18.864 31.2647 19.1912 31.7178 19.3756 32.2339L22.3756 30.1748L22.3865 32.3402ZM16.8365 32.3048C16.666 32.2925 16.4951 32.3212 16.338 32.3886C16.181 32.456 16.0423 32.5601 15.9338 32.6921C15.7153 33.0042 15.6086 33.3809 15.631 33.7611V35.6048H18.0529V33.7393C18.0778 33.3605 17.9623 32.9857 17.7283 32.6866C17.6205 32.5643 17.4866 32.4678 17.3365 32.4041C17.1864 32.3403 17.0239 32.3111 16.861 32.3184L16.8365 32.3048Z" fill="#1F157C"/>
<path d="M22.3864 22.4811L20.4964 23.2502V26.8147L22.3864 27.5865V29.4765L13.8992 25.8629V24.1556L22.3864 20.542V22.4811ZM16.1137 25.0338L18.841 26.152V23.9211L16.1137 25.0338Z" fill="#1F157C"/>
<path d="M22.3864 12.6435H16.8855L20.4855 15.0162V15.0626L16.921 17.4108H22.3755V19.2408H13.9482V17.2444L17.5128 15.0271L13.9482 12.8126V10.8135H22.3755L22.3864 12.6435Z" fill="#1F157C"/>
</svg>
