<svg width="48" height="37" viewBox="0 0 48 37" fill="none" xmlns="http://www.w3.org/2000/svg">
<path d="M37.2897 36.678H10.7018C10.3244 36.678 9.96257 36.5281 9.69575 36.2613C9.42894 35.9945 9.27905 35.6326 9.27905 35.2552C9.27905 34.8779 9.42894 34.516 9.69575 34.2492C9.96257 33.9824 10.3244 33.8325 10.7018 33.8325H37.2897C37.667 33.8325 38.0289 33.9824 38.2957 34.2492C38.5626 34.516 38.7124 34.8779 38.7124 35.2552C38.7124 35.6326 38.5626 35.9945 38.2957 36.2613C38.0289 36.5281 37.667 36.678 37.2897 36.678Z" fill="#1F157C"/>
<path d="M48 6.31691V27.2652C48 27.6388 47.9264 28.0088 47.7834 28.3541C47.6404 28.6993 47.4308 29.013 47.1666 29.2772C46.9024 29.5414 46.5887 29.751 46.2435 29.894C45.8982 30.037 45.5282 30.1106 45.1545 30.1106H2.84546V32.1593C2.84546 32.5367 2.69556 32.8986 2.42875 33.1654C2.16193 33.4322 1.80006 33.5821 1.42273 33.5821C1.0454 33.5821 0.683524 33.4322 0.416711 33.1654C0.149897 32.8986 0 32.5367 0 32.1593V1.42273C0 1.0454 0.149897 0.683521 0.416711 0.416707C0.683524 0.149894 1.0454 0 1.42273 0C1.80006 0 2.16193 0.149894 2.42875 0.416707C2.69556 0.683521 2.84546 1.0454 2.84546 1.42273V3.47146H45.1545C45.9092 3.47146 46.633 3.77125 47.1666 4.30487C47.7002 4.8385 48 5.56225 48 6.31691Z" fill="#1F157C"/>
<path d="M25.4185 3.47168V9.10568C25.4185 9.48301 25.2686 9.84489 25.0017 10.1117C24.7349 10.3785 24.3731 10.5284 23.9957 10.5284C23.6184 10.5284 23.2565 10.3785 22.9897 10.1117C22.7229 9.84489 22.573 9.48301 22.573 9.10568V3.47168H25.4185Z" fill="#FDAF17"/>
<path d="M25.4185 24.5507V30.1107H22.573V24.5507C22.573 24.1733 22.7229 23.8114 22.9897 23.5446C23.2565 23.2778 23.6184 23.1279 23.9957 23.1279C24.3731 23.1279 24.7349 23.2778 25.0017 23.5446C25.2686 23.8114 25.4185 24.1733 25.4185 24.5507Z" fill="#FDAF17"/>
<path d="M12.503 8.5249C7.7909 8.5249 4.21985 12.1216 4.23123 16.8621C4.27144 19.0304 5.16105 21.0964 6.70872 22.6157C8.2564 24.1349 10.3385 24.9861 12.5072 24.9861C14.676 24.9861 16.7581 24.1349 18.3058 22.6157C19.8534 21.0964 20.743 19.0304 20.7833 16.8621C20.8003 12.1273 17.2236 8.52775 12.503 8.5249ZM12.6623 22.1091C9.53231 22.1603 7.1905 19.9295 7.1279 16.8479C7.11688 16.1416 7.24507 15.4401 7.50515 14.7834C7.76523 14.1267 8.15211 13.5277 8.6437 13.0205C9.13529 12.5133 9.72197 12.1079 10.3702 11.8275C11.0185 11.5471 11.7156 11.397 12.4219 11.386C13.1281 11.375 13.8296 11.5032 14.4863 11.7633C15.143 12.0233 15.742 12.4102 16.2492 12.9018C16.7564 13.3934 17.1618 13.9801 17.4422 14.6283C17.7227 15.2766 17.8727 15.9737 17.8837 16.68C17.9061 17.3816 17.7879 18.0805 17.5361 18.7357C17.2842 19.3909 16.9038 19.9891 16.4173 20.495C15.9307 21.0009 15.3478 21.4044 14.7029 21.6816C14.0581 21.9588 13.3642 22.1042 12.6623 22.1091Z" fill="#DEE4F3"/>
<path d="M35.48 8.5249C30.7679 8.5249 27.1969 12.1216 27.2083 16.8621C27.2485 19.0304 28.1381 21.0964 29.6858 22.6157C31.2335 24.1349 33.3156 24.9861 35.4843 24.9861C37.653 24.9861 39.7351 24.1349 41.2828 22.6157C42.8305 21.0964 43.7201 19.0304 43.7603 16.8621C43.7774 12.1273 40.2006 8.52775 35.48 8.5249ZM35.6394 22.1091C32.5094 22.1603 30.1676 19.9295 30.105 16.8479C30.0827 15.4216 30.6279 14.0448 31.6208 13.0205C32.6136 11.9962 33.9726 11.4083 35.3989 11.386C36.8252 11.3637 38.202 11.909 39.2263 12.9018C40.2506 13.8946 40.8385 15.2537 40.8608 16.68C40.8832 17.3816 40.765 18.0805 40.5131 18.7357C40.2613 19.3909 39.8809 19.9891 39.3943 20.495C38.9077 21.0009 38.3249 21.4044 37.68 21.6816C37.0351 21.9588 36.3413 22.1042 35.6394 22.1091Z" fill="#DEE4F3"/>
<path d="M13.9113 14.2246H11.1C10.4604 14.2246 9.94189 14.7431 9.94189 15.3827V18.194C9.94189 18.8336 10.4604 19.3521 11.1 19.3521H13.9113C14.5509 19.3521 15.0694 18.8336 15.0694 18.194V15.3827C15.0694 14.7431 14.5509 14.2246 13.9113 14.2246Z" fill="#DEE4F3"/>
<path d="M36.8884 14.2246H34.077C33.4374 14.2246 32.9189 14.7431 32.9189 15.3827V18.194C32.9189 18.8336 33.4374 19.3521 34.077 19.3521H36.8884C37.528 19.3521 38.0465 18.8336 38.0465 18.194V15.3827C38.0465 14.7431 37.528 14.2246 36.8884 14.2246Z" fill="#DEE4F3"/>
</svg>
