<svg preserveAspectRatio="none" width="100%" height="100%" overflow="visible" style="display: block;" viewBox="0 0 8 6" fill="none" xmlns="http://www.w3.org/2000/svg">
<path id="Vector" d="M3.75667 0C2.04909 0 0.590821 1.11269 0 2.68333C0.590821 4.25398 2.04909 5.36667 3.75667 5.36667C5.46424 5.36667 6.92251 4.25398 7.51333 2.68333C6.92251 1.11269 5.46424 0 3.75667 0ZM3.75667 4.47222C2.81408 4.47222 2.04909 3.6708 2.04909 2.68333C2.04909 1.69587 2.81408 0.894444 3.75667 0.894444C4.69925 0.894444 5.46424 1.69587 5.46424 2.68333C5.46424 3.6708 4.69925 4.47222 3.75667 4.47222ZM3.75667 1.61C3.18975 1.61 2.73212 2.08942 2.73212 2.68333C2.73212 3.27724 3.18975 3.75667 3.75667 3.75667C4.32358 3.75667 4.78121 3.27724 4.78121 2.68333C4.78121 2.08942 4.32358 1.61 3.75667 1.61Z" fill="var(--fill-0, white)"/>
</svg>
