<svg preserveAspectRatio="none" width="100%" height="100%" overflow="visible" style="display: block;" viewBox="0 0 24 22" fill="none" xmlns="http://www.w3.org/2000/svg">
<path id="Vector" d="M21.1888 1.18833C18.022 -0.970842 14.1115 0.0367709 12.0003 2.50782C9.88914 0.0367709 5.97864 -0.982837 2.81186 1.18833C1.13251 2.33989 0.0769138 4.28314 0.00494147 6.33435C-0.162994 10.9886 3.96342 14.7191 10.261 20.4409L10.381 20.5489C11.2926 21.3766 12.6961 21.3766 13.6077 20.5369L13.7397 20.4169C20.0372 14.7071 24.1517 10.9766 23.9957 6.32235C23.9237 4.28314 22.8681 2.33989 21.1888 1.18833ZM12.1203 18.6536L12.0003 18.7736L11.8804 18.6536C6.17057 13.4836 2.40402 10.0649 2.40402 6.59825C2.40402 4.19917 4.20333 2.39986 6.6024 2.39986C8.44969 2.39986 10.249 3.58741 10.8848 5.23077H13.1279C13.7517 3.58741 15.551 2.39986 17.3983 2.39986C19.7973 2.39986 21.5966 4.19917 21.5966 6.59825C21.5966 10.0649 17.8301 13.4836 12.1203 18.6536Z" fill="var(--fill-0, white)"/>
</svg>
