<svg preserveAspectRatio="none" width="100%" height="100%" overflow="visible" style="display: block;" viewBox="0 0 12 11" fill="none" xmlns="http://www.w3.org/2000/svg">
<path id="Vector" d="M3.08887 0.577148H3.10059C3.76847 0.598146 4.4199 0.931417 4.89258 1.46289L4.90625 1.47852L4.9209 1.49219C4.96761 1.53782 5.12198 1.70459 5.27539 1.81445C5.44495 1.93578 5.75054 2.09358 6.125 1.98047L6.12988 1.97949C6.34688 1.91182 6.51134 1.77818 6.61523 1.68359L6.8877 1.41113L6.90234 1.39453C7.71669 0.45353 9.07248 0.339239 10.1035 1.04785L10.1104 1.05273C10.7877 1.50422 11.1938 2.31554 11.1807 3.17773V3.18164C11.1604 5.84691 9.04483 8.17981 6.75488 9.71777C6.37648 9.96479 6.18309 10.0931 5.99805 10.1416C5.88405 10.1715 5.74051 10.1809 5.46484 10L5.45801 9.99512L5.45215 9.99121L4.96777 9.67871C3.83013 8.9128 2.64924 7.89254 1.79785 6.72559C0.827855 5.39604 0.329008 3.94225 0.696289 2.46875C1.01074 1.33574 2.00572 0.531254 3.08887 0.577148Z" stroke="var(--stroke-0, black)" stroke-width="1.15"/>
</svg>
