<svg preserveAspectRatio="none" width="100%" height="100%" overflow="visible" style="display: block;" viewBox="0 0 14 16" fill="none" xmlns="http://www.w3.org/2000/svg">
<g id="Group 4581">
<g id="Group">
<path id="Vector" d="M13.9953 11.6275C13.937 12.192 12.7854 11.9779 12.3921 12.0541C12.0153 12.0908 11.9467 12.2886 11.9419 12.6986C11.9372 12.9287 11.9402 13.221 11.9393 13.47C11.9122 14.0751 12.0742 14.9084 11.4885 15.2107C11.2327 15.3474 10.9261 15.4079 10.6332 15.3961C10.3081 15.3835 9.92485 15.2778 9.71568 15.0472C9.56891 14.8949 9.50146 14.6266 9.4872 14.3731C9.47146 14.1582 9.47443 13.9083 9.47413 13.6328C9.47413 13.4097 9.47413 13.1755 9.47413 12.9675C9.46819 12.7182 9.4875 12.499 9.41649 12.2937C9.35707 12.1251 9.18385 12.0727 9.02163 12.0544C8.59735 12.0005 7.97045 12.0938 7.5331 11.9084C7.26778 11.7961 7.35453 11.4977 7.42554 11.2692C7.80852 10.1568 8.50287 8.308 8.88793 7.1423C8.95656 6.89694 8.97409 6.69523 8.97884 6.42367C8.99608 5.82697 8.91288 5.11166 9.1895 4.55259C9.4872 3.93873 10.183 3.81138 10.8316 3.83216C11.3953 3.8451 11.9945 4.02544 12.2405 4.58691C12.5567 5.28717 12.3531 6.14218 12.4961 6.87646C12.5391 7.13417 12.6101 7.38435 12.6933 7.63242C13.0817 8.75056 13.4854 9.86568 13.8833 10.9796C13.9477 11.181 14.0176 11.4342 13.9953 11.6236L13.9947 11.6278L13.9953 11.6275Z" fill="var(--fill-0, #414042)"/>
<path id="Vector_2" d="M10.9666 0.0486347C11.7823 0.18953 12.2955 0.910261 12.3611 1.72673C12.3995 2.10907 12.4301 2.61966 12.3026 2.93698C12.19 3.24737 11.8682 3.35786 11.5633 3.38074C11.3039 3.40452 11.0296 3.3994 10.7663 3.40874C10.3646 3.41175 9.85138 3.45991 9.50609 3.33377C8.96171 3.1411 9.01163 2.45167 9.03422 1.97058C9.04878 1.74118 9.07701 1.51689 9.13079 1.31277C9.31948 0.496909 10.139 -0.103399 10.9609 0.0471294L10.9666 0.0480326V0.0486347Z" fill="var(--fill-0, #414042)"/>
<path id="Vector_3" d="M2.91828 0.0253619C3.80558 0.16716 4.46466 1.08057 4.27954 1.97772C4.19425 2.43442 3.90899 2.86584 3.52031 3.11752C2.6039 3.73439 1.2373 3.15877 1.01681 2.06533C0.763639 0.903546 1.74632 -0.176346 2.91234 0.0241577L2.91828 0.0250609V0.0253619Z" fill="var(--fill-0, #424143)"/>
<path id="Vector_4" d="M4.46628 9.57839C4.29957 9.74788 4.24698 9.97909 4.22885 10.263C4.20954 10.4999 4.19171 10.7347 4.1721 10.9765C4.08295 12.0555 3.99678 13.2889 3.9002 14.3504C3.84642 15.0215 3.35434 15.3864 2.70625 15.3981C2.19336 15.4267 1.62551 15.206 1.45791 14.6997C1.37679 14.4654 1.36996 14.2195 1.34708 13.9684C1.26714 12.9779 1.12689 11.1776 1.04695 10.2124C1.02794 10.0143 0.994953 9.8686 0.925122 9.74758C0.829142 9.57929 0.671058 9.45495 0.532288 9.30472C0.375095 9.13944 0.232462 8.93984 0.151934 8.72067C-0.063501 8.11434 0.0122727 7.40656 0.0155413 6.7632C0.0232673 6.48261 0.0312904 6.20173 0.0348562 5.92114C0.0413935 5.51983 0.0390163 5.08992 0.165306 4.72805C0.458891 3.84776 1.37709 3.83752 2.15206 3.83331C3.11394 3.8577 4.57563 3.5464 5.08257 4.60823C5.27691 5.01737 5.28344 5.49906 5.28433 5.96148C5.28315 6.3637 5.26829 6.76741 5.25848 7.16993C5.22847 7.79944 5.31672 8.50481 4.96074 9.0419C4.82969 9.24602 4.62733 9.40889 4.46955 9.57537L4.46687 9.57808L4.46628 9.57839Z" fill="var(--fill-0, #414042)"/>
</g>
<path id="Vector_5" d="M6.895 0.412215C6.895 0.246444 6.76236 0.11206 6.59874 0.11206C6.43512 0.11206 6.30248 0.246444 6.30248 0.412215V14.9888C6.30248 15.1546 6.43512 15.289 6.59874 15.289C6.76236 15.289 6.895 15.1546 6.895 14.9888V0.412215Z" fill="var(--fill-0, #414042)"/>
</g>
</svg>
