<svg preserveAspectRatio="none" width="100%" height="100%" overflow="visible" style="display: block;" viewBox="0 0 20 20" fill="none" xmlns="http://www.w3.org/2000/svg">
<path id="Union" fill-rule="evenodd" clip-rule="evenodd" d="M10.2656 0.0590046C10.1075 -0.0148996 9.92571 -0.0195786 9.76401 0.0460926L0.391167 3.85269C0.154686 3.94873 0 4.17851 0 4.43375V15.3508C0 15.6016 0.149387 15.8282 0.379839 15.9271L9.75269 19.9492C9.90004 20.0124 10.066 20.0168 10.2165 19.9614L19.5893 16.514C19.8361 16.4232 20 16.1882 20 15.9254V5.00833C20 4.76481 19.859 4.5433 19.6384 4.44018L10.2656 0.0590046ZM9.37285 9.42134L1.25431 5.43983V14.9374L9.37285 18.4213V9.42134ZM17.8395 4.98387L10.0175 8.34044L2.16127 4.4876L9.98239 1.31121L17.8395 4.98387Z" fill="var(--fill-0, #4E4E4E)"/>
</svg>
