<svg preserveAspectRatio="none" width="100%" height="100%" overflow="visible" style="display: block;" viewBox="0 0 14 16" fill="none" xmlns="http://www.w3.org/2000/svg">
<g id="Group 4511">
<g id="Vector">
<path d="M12.6408 8.20652C11.2197 8.88122 9.3947 9.14982 8.34822 10.4121C7.53328 11.3939 7.22973 13.0284 6.66729 14.1808C6.58069 14.4347 6.27805 14.3852 6.11761 14.2266C5.46675 12.8057 5.19328 11.0172 3.97451 9.95653C2.94991 9.06548 1.30361 8.76938 0.0866659 8.1781C-0.030015 8.08093 -0.0145177 7.88109 0.0474691 7.76008C0.140449 7.57674 2.70196 6.67652 3.13131 6.46201C5.24798 5.40412 5.08936 3.60278 6.05745 1.8216C6.26438 1.43933 6.44213 1.29174 6.7074 1.75559C7.21058 2.63381 7.43848 3.94013 7.97083 4.88343C8.98176 6.67194 11.0456 6.87637 12.7438 7.70599C12.8796 7.88292 12.8222 8.08368 12.6417 8.20836L12.6408 8.20652Z" fill="url(#paint0_linear_2195_7190)"/>
<path d="M13.9356 2.5218C13.4033 2.77389 12.7205 2.87473 12.3294 3.34684C12.025 3.71445 11.911 4.32589 11.7005 4.75767C11.6686 4.85301 11.5546 4.83467 11.4944 4.77509C11.2511 4.24339 11.148 3.57419 10.6923 3.17725C10.3085 2.84357 9.69227 2.73356 9.2374 2.51171C9.19364 2.47505 9.19911 2.40079 9.22281 2.35496C9.25745 2.2862 10.2164 1.94977 10.3769 1.8691C11.169 1.47308 11.1098 0.79929 11.4717 0.132838C11.5491 -0.0101697 11.6157 -0.0651731 11.715 0.108086C11.9037 0.43627 11.9885 0.925797 12.1881 1.27873C12.5664 1.94793 13.3385 2.02494 13.9748 2.33479C14.0259 2.40079 14.004 2.47596 13.9365 2.52271L13.9356 2.5218Z" fill="url(#paint1_linear_2195_7190)"/>
<path d="M13.9356 13.5222C13.4033 13.7743 12.7205 13.8752 12.3294 14.3473C12.025 14.7149 11.911 15.3263 11.7005 15.7581C11.6686 15.8534 11.5546 15.8351 11.4944 15.7755C11.2511 15.2438 11.148 14.5746 10.6923 14.1777C10.3085 13.844 9.69227 13.734 9.2374 13.5121C9.19364 13.4755 9.19911 13.4012 9.22281 13.3554C9.25745 13.2866 10.2164 12.9502 10.3769 12.8695C11.169 12.4735 11.1098 11.7997 11.4717 11.1333C11.5491 10.9902 11.6157 10.9352 11.715 11.1085C11.9037 11.4367 11.9885 11.9262 12.1881 12.2792C12.5664 12.9484 13.3385 13.0254 13.9748 13.3352C14.0259 13.4012 14.004 13.4764 13.9365 13.5231L13.9356 13.5222Z" fill="url(#paint2_linear_2195_7190)"/>
</g>
</g>
<defs>
<linearGradient id="paint0_linear_2195_7190" x1="3.10524" y1="3.54762" x2="14.1052" y2="13.5476" gradientUnits="userSpaceOnUse">
<stop offset="0.0240385" stop-color="#291ABD"/>
<stop offset="0.817308" stop-color="#857CDE"/>
<stop offset="1" stop-color="#DEDBFF"/>
</linearGradient>
<linearGradient id="paint1_linear_2195_7190" x1="3.10524" y1="3.54762" x2="14.1052" y2="13.5476" gradientUnits="userSpaceOnUse">
<stop offset="0.0240385" stop-color="#291ABD"/>
<stop offset="0.817308" stop-color="#857CDE"/>
<stop offset="1" stop-color="#DEDBFF"/>
</linearGradient>
<linearGradient id="paint2_linear_2195_7190" x1="3.10524" y1="3.54762" x2="14.1052" y2="13.5476" gradientUnits="userSpaceOnUse">
<stop offset="0.0240385" stop-color="#291ABD"/>
<stop offset="0.817308" stop-color="#857CDE"/>
<stop offset="1" stop-color="#DEDBFF"/>
</linearGradient>
</defs>
</svg>
