<svg preserveAspectRatio="none" width="100%" height="100%" overflow="visible" style="display: block;" viewBox="0 0 24 20" fill="none" xmlns="http://www.w3.org/2000/svg">
<path id="Union" fill-rule="evenodd" clip-rule="evenodd" d="M9.79884 3.2591C9.67504 2.98409 9.63088 2.65709 9.91057 2.15368C10.1195 1.95785 10.731 1.68193 11.8776 2.19269C13.0974 2.7361 14.7679 4.14429 16.5763 7.15627C17.5095 8.71054 17.9106 9.53694 18.1201 10.8625C18.3436 12.2771 18.3467 14.2446 18.3467 18.0951C18.3467 18.3982 18.3983 18.8586 18.7646 19.2249C19.1036 19.5639 19.5426 19.6448 19.8289 19.6766C20.1372 19.7109 20.5156 19.7086 20.9215 19.7021C21.0236 19.7005 21.13 19.6986 21.2414 19.6965C21.5951 19.6899 21.9986 19.6824 22.4739 19.6824C22.9999 19.6824 23.4263 19.256 23.4263 18.73C23.4263 18.204 22.9999 17.7776 22.4739 17.7776C21.979 17.7776 21.5513 17.7855 21.1953 17.7921C21.0873 17.7942 20.9859 17.796 20.8912 17.7975C20.6133 17.802 20.4076 17.8025 20.2516 17.7973C20.2515 14.2115 20.2479 12.1239 20.0016 10.5652C19.7345 8.87483 19.1825 7.7964 18.2094 6.17574C16.2915 2.98148 14.3639 1.21495 12.6527 0.452675C10.9545 -0.303813 9.30475 -0.100823 8.40681 0.976747C8.37543 1.01441 8.34701 1.05443 8.32179 1.09646C7.69798 2.13622 7.65596 3.13932 8.06188 4.04102C8.42902 4.85658 9.12221 5.49134 9.73466 5.9812C10.0072 6.19921 10.2917 6.40945 10.5534 6.6028L10.6744 6.6923C10.9769 6.91635 11.2408 7.11549 11.4637 7.30784C11.6895 7.50261 11.8353 7.65863 11.9208 7.78376C11.9291 7.7959 11.9365 7.80725 11.9431 7.81784L11.2166 9.27031C11.1594 9.24798 11.1019 9.22649 11.0442 9.20587C3.93272 6.66606 0.884955 11.1107 0.250006 13.6505C-0.765914 17.2062 1.51918 20 3.42427 20L13.5834 20C18.586 20 16.8849 13.1569 12.881 10.2009L13.8008 8.36201C13.8669 8.22976 13.9014 8.08393 13.9014 7.93606C13.9015 6.99043 13.2115 6.29987 12.708 5.86549C12.4249 5.62132 12.1083 5.38394 11.8081 5.16155L11.6821 5.06834C11.4185 4.87353 11.1663 4.68708 10.9245 4.49364C10.3462 4.0311 9.96764 3.63407 9.79884 3.2591ZM20.2526 18.1301L20.2533 18.1356C20.2532 18.1356 20.2529 18.1339 20.2526 18.1301ZM7.86866 15.5553C7.86866 16.958 6.73156 18.0951 5.32886 18.0951C3.92617 18.0951 2.78907 16.958 2.78907 15.5553C2.78907 14.1527 3.92617 13.0156 5.32886 13.0156C6.73156 13.0156 7.86866 14.1527 7.86866 15.5553Z" fill="var(--fill-0, #4E4E4E)"/>
</svg>
