<svg preserveAspectRatio="none" width="100%" height="100%" overflow="visible" style="display: block;" viewBox="0 0 18 20" fill="none" xmlns="http://www.w3.org/2000/svg">
<path id="Vector" d="M12.8541 0.00423503C12.793 -0.00517474 12.7236 0.000706362 12.6483 0.0257991C11.6446 0.226541 10.5417 0.828766 9.83907 1.53136C9.23685 2.13359 8.73539 3.1373 8.73539 4.04064C8.73539 4.24138 8.93456 4.44251 9.1353 4.44251C10.2394 4.34214 11.3439 3.73952 12.0464 3.03693C12.6487 2.23396 13.1501 1.33101 13.1501 0.427675C13.1501 0.20184 13.0376 0.0324643 12.8541 0.00423503ZM13.1501 4.34253C11.3435 4.34253 10.5417 5.44622 9.33722 5.44622C8.0324 5.44622 6.82795 4.44251 5.32238 4.44251C3.21459 4.44251 0.00194181 6.44954 0.00194181 11.0666C-0.0984291 15.2822 3.71606 20 5.92422 20C7.22904 20 7.53054 19.1962 9.33722 19.1962C11.1439 19.1962 11.5454 20 12.8502 20C14.3558 20 15.4598 18.3937 16.3632 17.0889C16.7647 16.3863 17.0658 15.9856 17.3669 15.3833C17.5676 14.9818 17.3665 14.5804 16.965 14.3796C14.3554 13.0748 13.8543 8.85922 16.7651 7.35366C17.2669 7.05255 17.3665 6.44914 16.965 6.14803C15.8609 5.14432 14.2542 4.34253 13.1501 4.34253Z" fill="var(--fill-0, #4E4E4E)"/>
</svg>
