<svg preserveAspectRatio="none" width="100%" height="100%" overflow="visible" style="display: block;" viewBox="0 0 24 24" fill="none" xmlns="http://www.w3.org/2000/svg">
<path id="Vector" d="M17.4511 13.1999C18.3511 13.1999 19.1431 12.7079 19.5511 11.9639L23.8471 4.17598C24.2911 3.38398 23.7151 2.39999 22.8031 2.39999H5.04318L3.91519 0H0V2.39999H2.3912L6.71118 11.5079L5.09119 14.4359C4.21519 16.0439 5.36718 17.9999 7.19117 17.9999H21.5911V15.5999H7.19117L8.51117 13.1999H17.4511ZM6.18318 4.79998H20.7631L17.4511 10.7999H9.02716L6.18318 4.79998ZM7.19117 19.1999C5.87118 19.1999 4.80319 20.2799 4.80319 21.5999C4.80319 22.9199 5.87118 23.9999 7.19117 23.9999C8.51117 23.9999 9.59116 22.9199 9.59116 21.5999C9.59116 20.2799 8.51117 19.1999 7.19117 19.1999ZM19.1911 19.1999C17.8711 19.1999 16.8031 20.2799 16.8031 21.5999C16.8031 22.9199 17.8711 23.9999 19.1911 23.9999C20.5111 23.9999 21.5911 22.9199 21.5911 21.5999C21.5911 20.2799 20.5111 19.1999 19.1911 19.1999Z" fill="var(--fill-0, white)"/>
</svg>
