<svg width="32" height="19" viewBox="0 0 32 19" fill="none" xmlns="http://www.w3.org/2000/svg">
<path fill-rule="evenodd" clip-rule="evenodd" d="M2.10124 0H9.39252C9.94962 0.000282371 10.4838 0.224822 10.8776 0.624254C11.2715 1.02369 11.4927 1.56531 11.4927 2.13006V15.3012C11.493 15.7547 11.3504 16.1964 11.0859 16.5621C10.8213 16.9278 10.4486 17.1983 10.0218 17.3344V18.548C10.0218 18.6438 9.98432 18.7356 9.91752 18.8033C9.85073 18.871 9.76014 18.9091 9.66568 18.9091C9.57122 18.9091 9.48063 18.871 9.41384 18.8033C9.34705 18.7356 9.30952 18.6438 9.30952 18.548V17.4313H2.45739V18.548C2.45739 18.6438 2.41987 18.7356 2.35308 18.8033C2.28629 18.871 2.19569 18.9091 2.10124 18.9091C2.00678 18.9091 1.91619 18.871 1.84939 18.8033C1.7826 18.7356 1.74508 18.6438 1.74508 18.548V17.3983C1.25762 17.3133 0.81536 17.0567 0.496153 16.6737C0.176945 16.2907 0.00125174 15.8058 0 15.3044V2.13006C0 1.56513 0.22138 1.02334 0.615438 0.623877C1.0095 0.224414 1.54395 0 2.10124 0ZM7.78508 3.25153H5.74794C5.52476 3.25153 5.30182 3.25141 5.0793 3.25129L5.07803 3.25129C4.63371 3.25106 4.19111 3.25082 3.75176 3.25153C3.39245 3.25153 3.15816 3.45601 3.15396 3.78937C3.14976 4.12272 3.3872 4.34637 3.75491 4.34637H7.76932C8.09081 4.34531 8.31985 4.14615 8.34716 3.85966C8.35705 3.7807 8.34962 3.7005 8.32543 3.62479C8.30123 3.54908 8.26085 3.4797 8.20716 3.42163C8.15348 3.36355 8.08782 3.31819 8.01486 3.28879C7.94191 3.25939 7.86345 3.24667 7.78508 3.25153ZM7.78298 5.47423H3.70974C3.35778 5.47743 3.12559 5.72558 3.14766 6.06425C3.16867 6.36992 3.40611 6.56801 3.76542 6.56801H7.73045C7.80837 6.56812 7.88601 6.55846 7.96159 6.53926C8.06953 6.50914 8.16515 6.44484 8.23451 6.35575C8.30387 6.26666 8.34334 6.15744 8.34717 6.04402C8.35977 5.71386 8.13179 5.47423 7.78298 5.47423Z" fill="#4E4E4E"/>
<path d="M25.2877 16.0353C25.2873 16.0549 25.2871 16.0745 25.2871 16.0941C25.2871 16.4785 25.3642 16.8581 25.5129 17.2107H19.2585C19.4072 16.8581 19.4843 16.4785 19.4843 16.0941C19.4843 16.0745 19.4841 16.0549 19.4837 16.0353H25.2877Z" fill="#4E4E4E"/>
<path fill-rule="evenodd" clip-rule="evenodd" d="M29.2493 4.57529H15.1446C14.3332 4.57529 13.6754 5.23309 13.6754 6.04453V13.0969C13.6754 13.9083 14.3332 14.5661 15.1446 14.5661H29.2493C30.0608 14.5661 30.7186 13.9083 30.7186 13.0969V6.04453C30.7186 5.23309 30.0608 4.57529 29.2493 4.57529ZM15.1446 3.3999C13.684 3.3999 12.5 4.58394 12.5 6.04453V13.0969C12.5 14.5575 13.684 15.7415 15.1446 15.7415H29.2493C30.7099 15.7415 31.8939 14.5575 31.8939 13.0969V6.04453C31.8939 4.58394 30.7099 3.3999 29.2493 3.3999H15.1446Z" fill="#4E4E4E"/>
<path d="M15.1447 5.16295H29.2494C29.7362 5.16295 30.1309 5.55763 30.1309 6.04449V13.0968C30.1309 13.5837 29.7362 13.9784 29.2494 13.9784H15.1447C14.6578 13.9784 14.2631 13.5837 14.2631 13.0968V6.04449C14.2631 5.55763 14.6578 5.16295 15.1447 5.16295Z" fill="#4E4E4E"/>
<path d="M15.1446 17.9453C15.1446 17.7019 15.342 17.5045 15.5854 17.5045H29.1024C29.3458 17.5045 29.5431 17.7019 29.5431 17.9453C29.5431 18.1888 29.3458 18.3861 29.1024 18.3861H15.5854C15.342 18.3861 15.1446 18.1888 15.1446 17.9453Z" fill="#4E4E4E"/>
</svg>
