<svg preserveAspectRatio="none" width="100%" height="100%" overflow="visible" style="display: block;" viewBox="0 0 33 20" fill="none" xmlns="http://www.w3.org/2000/svg">
<g id="Group 83">
<path id="Subtract" d="M25.5809 0.0802616C26.8534 -0.254175 28.1618 0.487091 28.5028 1.73554L29.1444 4.08807C28.6241 3.98488 28.0931 3.9742 27.5731 4.05487L27.5008 3.79022C27.4468 3.59291 27.2401 3.47562 27.0389 3.5285L24.8534 4.1037C24.6521 4.1566 24.5319 4.35939 24.5858 4.55682L24.7811 5.27167C24.7989 5.33698 24.8351 5.39221 24.8807 5.43671C24.5428 5.77857 24.2576 6.17343 24.0272 6.61835L23.9813 6.63104C23.7801 6.68395 23.6608 6.88771 23.7147 7.08514L23.7547 7.23261C23.7161 7.33685 23.6798 7.44326 23.6463 7.55194C23.483 8.08222 23.3216 8.61431 23.16 9.14569L23.1092 9.15936C22.9083 9.21238 22.789 9.41528 22.8426 9.61249L22.9256 9.9162C22.8941 10.0201 22.8624 10.1239 22.8309 10.2277C22.695 10.6756 22.5594 11.1231 22.4237 11.5685C22.4122 11.605 22.4031 11.6422 22.3924 11.6789C22.3424 11.6714 22.2901 11.674 22.2381 11.6877L10.578 14.7531C10.3769 14.8061 10.2575 15.0089 10.3114 15.2062L10.5067 15.9211C10.5606 16.1185 10.7674 16.2356 10.9686 16.1828L22.1883 13.2326C22.1912 13.3506 22.1936 13.4688 22.1981 13.5627C22.2005 13.6138 22.2028 13.6578 22.2039 13.6906L22.2079 13.798L22.3846 14.6203L22.4188 14.7053L5.28305 19.2101C4.01056 19.5446 2.70214 18.8033 2.36118 17.5549L0.0818797 9.20721C-0.259083 7.95875 0.495935 6.67557 1.7684 6.341L25.5809 0.0802616ZM4.7479 16.2853L4.01938 16.4767C3.81838 16.5297 3.69915 16.7326 3.75278 16.9299L3.94809 17.6457C4.00215 17.8428 4.20897 17.9601 4.41 17.9074L5.13852 17.715C5.33975 17.6621 5.45904 17.4593 5.40512 17.2619L5.21079 16.5471C5.15687 16.3496 4.94913 16.2324 4.7479 16.2853ZM6.93442 15.7111L6.2059 15.9025C6.00467 15.9554 5.88538 16.1582 5.9393 16.3557L6.13461 17.0705C6.18855 17.2679 6.3953 17.3851 6.59653 17.3322L7.32504 17.1408C7.5262 17.0879 7.6454 16.885 7.59165 16.6877L7.39633 15.9728C7.34241 15.7754 7.13565 15.6582 6.93442 15.7111ZM9.12094 15.1359L8.39243 15.3273C8.19135 15.3802 8.07124 15.5832 8.12485 15.7805L8.32016 16.4963C8.3742 16.6934 8.58106 16.8097 8.78207 16.757L9.51157 16.5656C9.71259 16.5126 9.83206 16.3098 9.77817 16.1125L9.58286 15.3976C9.52895 15.2003 9.32211 15.0831 9.12094 15.1359ZM6.34848 13.5656L3.43344 14.3322C3.23247 14.3853 3.11301 14.5881 3.16684 14.7853L3.36215 15.5002C3.41605 15.6975 3.6229 15.8147 3.82407 15.7619L6.73911 14.9953C6.94034 14.9424 7.05963 14.7396 7.00571 14.5422L6.8104 13.8273C6.75637 13.63 6.54964 13.5127 6.34848 13.5656ZM8.535 12.9914L7.80649 13.1828C7.60525 13.2357 7.48597 13.4385 7.53989 13.6359L7.7352 14.3508C7.78912 14.5482 7.99588 14.6654 8.19711 14.6125L8.92563 14.4211C9.12672 14.3682 9.246 14.1653 9.19223 13.968L8.99692 13.2531C8.943 13.0557 8.73624 12.9385 8.535 12.9914ZM10.7215 12.4162L9.99204 12.6076C9.79114 12.6606 9.67187 12.8635 9.72543 13.0607L9.92075 13.7766C9.97477 13.9737 10.1817 14.0909 10.3827 14.0383L11.1122 13.8459C11.3131 13.7928 11.4326 13.59 11.3788 13.3928L11.1834 12.6779C11.1295 12.4806 10.9226 12.3635 10.7215 12.4162ZM5.03403 11.6125L2.84848 12.1867C2.64725 12.2396 2.52698 12.4434 2.5809 12.6408L2.77622 13.3557C2.83015 13.5529 3.03708 13.67 3.23813 13.6174L5.42465 13.0422C5.62589 12.9893 5.74518 12.7865 5.69125 12.5891L5.49594 11.8742C5.44202 11.6768 5.23526 11.5596 5.03403 11.6125ZM12.9071 11.842L12.1786 12.0334C11.9774 12.0863 11.858 12.2891 11.912 12.4865L12.1073 13.2014C12.1612 13.3988 12.368 13.516 12.5692 13.4631L13.2977 13.2717C13.4989 13.2188 13.6181 13.0159 13.5643 12.8185L13.369 12.1037C13.3151 11.9063 13.1083 11.7891 12.9071 11.842ZM15.0936 11.2668L14.3651 11.4582C14.1639 11.5111 14.0447 11.714 14.0985 11.9113L14.2938 12.6271C14.3479 12.8243 14.5547 12.9417 14.7557 12.8889L15.4842 12.6965C15.6853 12.6435 15.8047 12.4407 15.7508 12.2433L15.5555 11.5285C15.5016 11.3311 15.2948 11.2139 15.0936 11.2668ZM7.22055 11.0373L6.49204 11.2297C6.2908 11.2826 6.17151 11.4854 6.22543 11.6828L6.41977 12.3976C6.47369 12.5951 6.68143 12.7123 6.88266 12.6594L7.61118 12.468C7.81219 12.415 7.93139 12.2121 7.87778 12.0148L7.68247 11.299C7.62841 11.1019 7.4216 10.9846 7.22055 11.0373ZM17.2801 10.6926L16.5506 10.884C16.3497 10.9371 16.2301 11.1398 16.284 11.3371L16.4793 12.0519C16.5332 12.2493 16.7401 12.3664 16.9413 12.3137L17.6707 12.1223C17.8716 12.0692 17.991 11.8663 17.9373 11.6691L17.742 10.9543C17.6881 10.7569 17.4813 10.6398 17.2801 10.6926ZM9.40707 10.4631L8.67758 10.6545C8.47661 10.7075 8.35726 10.9103 8.41098 11.1076L8.60629 11.8224C8.6602 12.0198 8.86701 12.137 9.06821 12.0842L9.79672 11.8928C9.99793 11.8399 10.1182 11.637 10.0643 11.4396L9.86899 10.7248C9.8151 10.5275 9.60819 10.4104 9.40707 10.4631ZM19.4657 10.1174L18.7372 10.3088C18.536 10.3617 18.4168 10.5646 18.4706 10.7619L18.6659 11.4767C18.7198 11.6742 18.9265 11.7914 19.1278 11.7385L19.8563 11.5471C20.0575 11.4942 20.1768 11.2914 20.1229 11.0939L19.9276 10.3791C19.8736 10.1817 19.6669 10.0645 19.4657 10.1174ZM11.5926 9.88788L10.8641 10.0803C10.6629 10.1332 10.5436 10.336 10.5975 10.5334L10.7928 11.2482C10.8468 11.4456 11.0536 11.5628 11.2547 11.5099L11.9832 11.3185C12.1845 11.2656 12.3038 11.0619 12.2498 10.8644L12.0545 10.1496C12.0004 9.95241 11.7937 9.83501 11.5926 9.88788ZM3.71957 9.65936L2.26254 10.0422C2.06134 10.0951 1.94209 10.2979 1.99594 10.4953L2.19028 11.2101C2.2442 11.4076 2.45193 11.5248 2.65317 11.4719L4.1102 11.0891C4.3114 11.0362 4.43065 10.8333 4.3768 10.6359L4.18149 9.92108C4.12757 9.72365 3.92081 9.60646 3.71957 9.65936ZM21.6522 9.54315L20.9237 9.73456C20.7224 9.78746 20.6032 9.99025 20.6571 10.1877L20.8524 10.9025C20.9064 11.0999 21.1131 11.2171 21.3143 11.1642L22.0428 10.9728C22.2439 10.9199 22.3631 10.717 22.3094 10.5197L22.1141 9.80389C22.06 9.60674 21.8533 9.49029 21.6522 9.54315ZM13.7791 9.31366L13.0506 9.50507C12.8494 9.55796 12.7301 9.76077 12.784 9.95819L12.9784 10.673C13.0323 10.8705 13.24 10.9877 13.4413 10.9348L14.1698 10.7433C14.3709 10.6904 14.4902 10.4876 14.4364 10.2902L14.2411 9.57538C14.1871 9.37796 13.9804 9.2608 13.7791 9.31366ZM5.9061 9.08417L5.17758 9.27557C4.97635 9.32848 4.85608 9.53224 4.91 9.72968L5.10532 10.4445C5.15928 10.6417 5.36623 10.7588 5.56723 10.7062L6.29672 10.5139C6.49773 10.4608 6.61721 10.258 6.56332 10.0607L6.36801 9.34589C6.31405 9.14861 6.10721 9.03142 5.9061 9.08417ZM15.9657 8.73846L15.2362 8.93085C15.0352 8.98393 14.9157 9.18668 14.9696 9.38397L15.1649 10.0988C15.2188 10.2961 15.4257 10.4132 15.6268 10.3605L16.3553 10.1691C16.5566 10.1162 16.6768 9.91246 16.6229 9.71503L16.4276 9.00018C16.3736 8.80302 16.1667 8.68589 15.9657 8.73846ZM8.09165 8.50995L7.36313 8.70136C7.16207 8.75436 7.04266 8.95714 7.09653 9.15448L7.29184 9.86932C7.34575 10.0667 7.55256 10.1839 7.75375 10.131L8.48227 9.93964C8.6834 9.88676 8.80356 9.68385 8.74985 9.48651L8.55454 8.77167C8.50062 8.57423 8.29288 8.45705 8.09165 8.50995ZM18.1512 8.16425L17.4227 8.35565C17.2215 8.40855 17.1022 8.61138 17.1561 8.80878L17.3514 9.52362C17.4053 9.72106 17.6121 9.83824 17.8133 9.78534L18.5418 9.59393C18.7431 9.54103 18.8624 9.33824 18.8084 9.14081L18.6131 8.42596C18.5592 8.22853 18.3525 8.11134 18.1512 8.16425ZM10.2782 7.93475L9.54965 8.12616C9.34855 8.17903 9.22939 8.38197 9.28305 8.57929L9.47836 9.29511C9.53246 9.49229 9.73918 9.60969 9.94028 9.55682L10.6688 9.36444C10.87 9.31152 10.9893 9.10873 10.9354 8.91132L10.7401 8.19647C10.6861 7.99915 10.4793 7.88187 10.2782 7.93475ZM2.40512 7.70526L1.67661 7.89764C1.47537 7.95055 1.35608 8.15333 1.41 8.35077L1.60532 9.06561C1.65929 9.26297 1.86604 9.38022 2.06723 9.32733L2.79575 9.13593C2.99687 9.08305 3.11605 8.88013 3.06235 8.6828L2.86704 7.96698C2.81292 7.76985 2.60618 7.65244 2.40512 7.70526ZM20.3377 7.58905L19.6092 7.78046C19.408 7.83336 19.2887 8.03712 19.3426 8.23456L19.5379 8.9494C19.592 9.14662 19.7987 9.26399 19.9998 9.21112L20.7284 9.01971C20.9296 8.96679 21.0489 8.76303 20.995 8.56561L20.7997 7.85077C20.7456 7.65353 20.5388 7.53627 20.3377 7.58905ZM12.4647 7.36054L11.7362 7.55194C11.535 7.60484 11.4147 7.80766 11.4686 8.00507L11.6639 8.71991C11.7178 8.9172 11.9247 9.03425 12.1258 8.98163L12.8553 8.79022C13.0563 8.73725 13.1756 8.53437 13.1219 8.3371L12.9266 7.62225C12.8727 7.42484 12.6659 7.30768 12.4647 7.36054ZM4.59165 7.13104L3.86313 7.32245C3.66202 7.37532 3.54188 7.57826 3.59555 7.77557L3.79086 8.49042C3.84476 8.68776 4.05163 8.80486 4.25278 8.75214L4.98227 8.56073C5.18327 8.50767 5.30276 8.30491 5.24887 8.10761L5.05356 7.39276C4.99966 7.19541 4.7928 7.0783 4.59165 7.13104ZM22.5243 7.01483L21.7948 7.20624C21.5938 7.25927 21.4744 7.46208 21.5282 7.65936L21.7235 8.37421C21.7774 8.57158 21.9842 8.6887 22.1854 8.63593L22.9139 8.44452C23.1151 8.39164 23.2353 8.18876 23.1815 7.99139L22.9862 7.27655C22.9323 7.07922 22.7254 6.96214 22.5243 7.01483ZM14.6502 6.78534L13.9217 6.97675C13.7207 7.02968 13.6015 7.23263 13.6551 7.42987L13.8504 8.14569C13.9045 8.34282 14.1113 8.46011 14.3123 8.40741L15.0409 8.21503C15.2421 8.16212 15.3624 7.95934 15.3084 7.7619L15.1131 7.04706C15.0592 6.84962 14.8515 6.73244 14.6502 6.78534ZM6.77719 6.55585L6.04868 6.74823C5.8476 6.80124 5.72818 7.004 5.78207 7.20136L5.97739 7.9162C6.03133 8.11355 6.23813 8.23075 6.4393 8.17792L7.16782 7.98651C7.36895 7.93363 7.48815 7.73073 7.43442 7.53339L7.23911 6.81757C7.18497 6.62044 6.97825 6.50299 6.77719 6.55585ZM16.8368 6.21112L16.1082 6.40253C15.907 6.45543 15.7877 6.65822 15.8416 6.85565L16.037 7.5705C16.0909 7.76792 16.2976 7.88512 16.4989 7.83221L17.2274 7.64081C17.4285 7.58793 17.5478 7.38505 17.494 7.18768L17.2987 6.47284C17.2448 6.2754 17.038 6.15822 16.8368 6.21112ZM8.96372 5.98163L8.2352 6.17304C8.03402 6.22592 7.91479 6.42878 7.9686 6.62616L8.16391 7.341C8.21783 7.53844 8.42459 7.65562 8.62582 7.60272L9.35434 7.41132C9.55553 7.35839 9.67486 7.1556 9.62094 6.95819L9.42563 6.24335C9.37171 6.04591 9.16495 5.92873 8.96372 5.98163ZM19.0233 5.63593L18.2948 5.82733C18.0937 5.88019 17.9736 6.08317 18.0272 6.28046L18.2225 6.99628C18.2766 7.19351 18.4843 7.31087 18.6854 7.258L19.4139 7.06561C19.615 7.01258 19.7344 6.80982 19.6805 6.61249L19.4852 5.89764C19.4313 5.70027 19.2245 5.58313 19.0233 5.63593ZM11.1502 5.40643L10.4217 5.59882C10.2205 5.65172 10.1002 5.85451 10.1541 6.05194L10.3495 6.76679C10.4034 6.96406 10.6103 7.08113 10.8114 7.0285L11.5409 6.8371C11.7418 6.78414 11.861 6.58117 11.8075 6.38397L11.6122 5.66815C11.5581 5.47101 11.3513 5.35377 11.1502 5.40643ZM21.2098 5.06171L20.4803 5.25311C20.2793 5.30615 20.1598 5.50891 20.2137 5.70624L20.409 6.42108C20.4629 6.61846 20.6698 6.73559 20.8709 6.6828L21.5995 6.49139C21.8005 6.43853 21.9207 6.23557 21.867 6.03827L21.6717 5.32343C21.6178 5.1261 21.4109 5.00902 21.2098 5.06171ZM13.3358 4.83221L12.6073 5.02362C12.4062 5.07657 12.2869 5.27943 12.3407 5.47675L12.536 6.19159C12.5899 6.38902 12.7967 6.5062 12.9979 6.45331L13.7264 6.2619C13.9276 6.209 14.0469 6.00621 13.993 5.80878L13.7987 5.09393C13.7448 4.8965 13.537 4.77931 13.3358 4.83221ZM23.3954 4.48651L22.6668 4.67792C22.4657 4.7308 22.3465 4.93369 22.4002 5.13104L22.5956 5.84589C22.6495 6.04332 22.8562 6.16051 23.0575 6.10761L23.786 5.9162C23.9872 5.8633 24.1065 5.66051 24.0526 5.46307L23.8573 4.74823C23.8033 4.55083 23.5966 4.43361 23.3954 4.48651ZM15.5223 4.25702L14.7938 4.4494C14.5926 4.5023 14.4733 4.70509 14.5272 4.90253L14.7225 5.61737C14.7765 5.81466 14.9833 5.93197 15.1844 5.87909L15.9129 5.68768C16.1142 5.63478 16.2335 5.43102 16.1795 5.23358L15.9842 4.51874C15.9302 4.32152 15.7234 4.20415 15.5223 4.25702ZM17.7088 3.6828L16.9803 3.87421C16.7792 3.92709 16.659 4.12998 16.7127 4.32733L16.9081 5.04218C16.9619 5.2395 17.1688 5.35658 17.37 5.30389L18.0995 5.11249C18.3005 5.05946 18.4199 4.85666 18.3661 4.65936L18.1707 3.94452C18.1168 3.74714 17.91 3.63001 17.7088 3.6828ZM19.8944 3.10761L19.1659 3.29901C18.9647 3.35194 18.8453 3.5557 18.8993 3.75311L19.0946 4.46796C19.1486 4.66522 19.3554 4.78245 19.5565 4.72968L20.285 4.53827C20.4862 4.48537 20.6055 4.2816 20.5516 4.08417L20.3573 3.36932C20.3033 3.17198 20.0956 3.05472 19.8944 3.10761ZM22.0809 2.53339L21.3524 2.72479C21.1512 2.77769 21.0319 2.9805 21.0858 3.17792L21.2811 3.89276C21.335 4.0902 21.5418 4.20738 21.743 4.15448L22.4715 3.96307C22.6727 3.91017 22.792 3.70736 22.7381 3.50995L22.5428 2.79511C22.4889 2.59767 22.2821 2.48048 22.0809 2.53339ZM24.2674 1.95819L23.5389 2.1496C23.3377 2.2025 23.2174 2.40626 23.2713 2.6037L23.4666 3.31854C23.5206 3.51572 23.7275 3.63283 23.9286 3.58026L24.6581 3.38886C24.8592 3.33588 24.9786 3.13213 24.9247 2.93475L24.7293 2.21991C24.6754 2.02267 24.4685 1.90548 24.2674 1.95819ZM26.453 1.38397L25.7245 1.57538C25.5234 1.62837 25.404 1.83117 25.4579 2.0285L25.6532 2.74335C25.7071 2.94076 25.9139 3.05792 26.1151 3.00507L26.8436 2.81366C27.0448 2.76076 27.1641 2.55797 27.1102 2.36054L26.9159 1.64569C26.8619 1.44826 26.6542 1.33107 26.453 1.38397Z" fill="var(--fill-0, #221692)"/>
<g id="Subtract_2">
<mask id="path-2-outside-1_2188_7139" maskUnits="userSpaceOnUse" x="22.307" y="4.16467" width="10" height="13" fill="black">
<rect fill="white" x="22.307" y="4.16467" width="10" height="13"/>
<path fill-rule="evenodd" clip-rule="evenodd" d="M29.1625 5.27699L29.0141 5.24726C28.3607 5.10141 27.6808 5.14943 27.0524 5.38579C25.8816 5.82961 25.0964 6.67237 24.7169 7.90601C24.3047 9.24414 23.9007 10.5856 23.4929 11.9244C23.3776 12.2893 23.3151 12.6698 23.3072 13.0535C23.3049 13.2523 23.3201 13.4513 23.3269 13.6496L23.4583 14.2606C23.5419 14.4628 23.6171 14.6687 23.7111 14.8651C24.0533 15.5696 24.5962 16.148 25.2664 16.5219C25.9366 16.8957 26.7016 17.0471 27.4577 16.9553C27.4894 16.9533 27.5213 16.9535 27.553 16.9557L28.1196 16.8247C28.1393 16.8115 28.16 16.7998 28.1814 16.7897C29.3753 16.3596 30.1835 15.5271 30.574 14.2822C31.0046 12.9185 31.4217 11.5527 31.8253 10.1848C32.0936 9.31138 32.0518 8.36737 31.7072 7.5233C31.3627 6.67922 30.7382 5.99072 29.9465 5.58213C29.8438 5.52798 29.7369 5.48172 29.6269 5.4284L29.1625 5.27699ZM29.0125 5.76864L29.0161 5.76953C28.9985 5.82767 28.9811 5.88539 28.9637 5.94276C28.8897 6.18752 28.8177 6.42577 28.742 6.66204C28.7339 6.67889 28.7223 6.69369 28.7081 6.70536C28.6939 6.71703 28.6773 6.7253 28.6596 6.72956C28.3254 6.79126 28.1286 6.99861 28.0367 7.32883C27.9654 7.58527 27.8899 7.82702 27.8138 8.07068C27.7919 8.14077 27.7699 8.21102 27.748 8.28183C27.6966 8.42264 27.6869 8.57617 27.7204 8.72268C27.7538 8.86919 27.8288 9.00196 27.9357 9.10391C27.948 9.11768 27.9573 9.13405 27.9628 9.15189C27.9684 9.16974 27.9702 9.18862 27.968 9.20724C27.9356 9.33488 27.8956 9.46253 27.8545 9.59375C27.8381 9.64587 27.8216 9.69855 27.8053 9.75202L24.9601 8.83901C24.9602 8.8386 24.9603 8.83819 24.9604 8.83778L24.9562 8.83644C25.1941 7.79479 25.5673 6.84997 26.4744 6.24036C26.8288 5.99235 27.2274 5.82022 27.6468 5.73409C28.0662 5.64797 28.498 5.64958 28.9168 5.73883C28.9423 5.74852 28.9698 5.75601 29.013 5.76678C29.0128 5.7674 29.0126 5.76802 29.0125 5.76864ZM28.9829 7.53329C28.9595 7.63136 28.929 7.7278 28.8985 7.82442C28.8876 7.85863 28.8768 7.89287 28.8663 7.92721C28.8489 7.98456 28.832 8.0421 28.8151 8.09965C28.7653 8.26897 28.7156 8.43838 28.6551 8.60352C28.6225 8.6709 28.5792 8.73212 28.5269 8.7846C28.4903 8.79218 28.4551 8.79411 28.4222 8.79127C28.2597 8.78012 28.1508 8.65379 28.1883 8.51497C28.2918 8.13013 28.4106 7.75041 28.5331 7.37243C28.5439 7.344 28.5599 7.31805 28.5804 7.29608C28.6009 7.27411 28.6254 7.25655 28.6524 7.24442C28.6795 7.2323 28.7086 7.22584 28.7381 7.22542C28.7469 7.22529 28.7557 7.22571 28.7645 7.22666C28.7873 7.22851 28.8098 7.234 28.831 7.24297C28.8856 7.2636 28.9309 7.30438 28.9582 7.35749C28.9855 7.4106 28.9929 7.47229 28.979 7.53072L28.9829 7.53329ZM31.3205 7.89635C31.5749 8.61102 31.5823 9.39502 31.3416 10.1149C31.2665 10.3521 31.1933 10.5906 31.1195 10.8379L28.2669 9.9058C28.267 9.9054 28.2672 9.90501 28.2673 9.90462L28.263 9.90322C28.2826 9.84005 28.3013 9.77706 28.3198 9.71462C28.356 9.59283 28.3916 9.47303 28.4314 9.35798C28.4411 9.34179 28.4541 9.328 28.4694 9.31757C28.4848 9.30713 28.5022 9.30033 28.5203 9.29761C28.6628 9.27583 28.7959 9.21111 28.9031 9.11153C29.0103 9.01195 29.0869 8.8819 29.1233 8.73758C29.2016 8.47661 29.2816 8.21581 29.3615 7.95513C29.3838 7.88229 29.4061 7.80946 29.4284 7.73664C29.4782 7.59667 29.4869 7.44455 29.4533 7.29949C29.4198 7.15444 29.3454 7.02297 29.2397 6.92171C29.2271 6.90839 29.2174 6.8924 29.2113 6.87484C29.2053 6.85727 29.2029 6.83854 29.2045 6.81994C29.2654 6.60867 29.3295 6.3984 29.3951 6.18307C29.4222 6.0942 29.4497 6.00407 29.4772 5.91305C29.7238 6.02249 29.9489 6.15118 30.1525 6.29955C30.313 6.41641 30.4603 6.54574 30.5942 6.68768C30.9083 7.02015 31.1483 7.4214 31.3166 7.8938C31.3167 7.89411 31.3176 7.89422 31.3177 7.89453L31.3205 7.89635Z"/>
<path fill-rule="evenodd" clip-rule="evenodd" d="M29.0161 5.76953L29.0125 5.76864C28.9914 5.83741 28.9707 5.90554 28.9501 5.97315L28.9493 5.97602C28.8787 6.20803 28.8099 6.43399 28.7379 6.65866C28.7299 6.6756 28.7184 6.69051 28.7042 6.70233C28.69 6.71414 28.6734 6.72256 28.6557 6.72699C28.3215 6.78869 28.1247 6.99604 28.0327 7.32543C27.9613 7.58079 27.8856 7.8231 27.8095 8.06679C27.7875 8.13744 27.7654 8.2082 27.7433 8.27944C27.6919 8.42025 27.6822 8.57379 27.7157 8.72029C27.7491 8.8668 27.8241 8.99957 27.931 9.10152C27.9433 9.11514 27.9525 9.13138 27.958 9.14909C27.9636 9.16679 27.9653 9.18555 27.9631 9.20402C27.93 9.33592 27.8886 9.46737 27.8462 9.60226C27.831 9.65061 27.8156 9.69939 27.8004 9.7488L24.9604 8.83778C24.9603 8.83819 24.9602 8.8386 24.9601 8.83901L27.8053 9.75202C27.8216 9.69855 27.8381 9.64587 27.8545 9.59375C27.8956 9.46253 27.9356 9.33488 27.968 9.20724C27.9702 9.18862 27.9684 9.16974 27.9628 9.15189C27.9573 9.13405 27.948 9.11768 27.9357 9.10391C27.8288 9.00196 27.7538 8.86919 27.7204 8.72268C27.6869 8.57617 27.6966 8.42264 27.748 8.28183C27.7699 8.21102 27.7919 8.14077 27.8138 8.07068C27.8899 7.82702 27.9654 7.58527 28.0367 7.32883C28.1286 6.99861 28.3254 6.79126 28.6596 6.72956C28.6773 6.7253 28.6939 6.71703 28.7081 6.70536C28.7223 6.69369 28.7339 6.67889 28.742 6.66204C28.8177 6.42577 28.8897 6.18752 28.9637 5.94276C28.9811 5.88539 28.9985 5.82767 29.0161 5.76953Z"/>
<path fill-rule="evenodd" clip-rule="evenodd" d="M28.8985 7.82442C28.929 7.7278 28.9595 7.63136 28.9829 7.53329L28.979 7.53072C28.9929 7.47229 28.9855 7.4106 28.9582 7.35749C28.9309 7.30438 28.8856 7.2636 28.831 7.24297C28.8098 7.234 28.7873 7.22851 28.7645 7.22666C28.7849 7.22889 28.805 7.23402 28.8241 7.24196C28.8802 7.26123 28.9272 7.30159 28.9559 7.35506C28.9845 7.40854 28.9928 7.47124 28.979 7.53072C28.9556 7.6288 28.9251 7.72522 28.8946 7.82185C28.8838 7.85603 28.8729 7.89033 28.8624 7.92464C28.8448 7.98284 28.8276 8.04124 28.8105 8.09966C28.761 8.26816 28.7114 8.43686 28.6514 8.60177C28.6179 8.66989 28.5736 8.73165 28.5202 8.78441C28.4861 8.79135 28.4532 8.7934 28.4222 8.79127C28.4551 8.79411 28.4903 8.79218 28.5269 8.7846C28.5792 8.73212 28.6225 8.6709 28.6551 8.60352C28.7156 8.43838 28.7653 8.26897 28.8151 8.09965C28.832 8.0421 28.8489 7.98456 28.8663 7.92721C28.8768 7.89287 28.8876 7.85863 28.8985 7.82442Z"/>
<path fill-rule="evenodd" clip-rule="evenodd" d="M31.3416 10.1149C31.5823 9.39502 31.5749 8.61102 31.3205 7.89635L31.3177 7.89453C31.5708 8.60898 31.5778 9.39215 31.3375 10.1115C31.2624 10.3487 31.1892 10.5872 31.1156 10.8353L28.2673 9.90462C28.2672 9.90501 28.267 9.9054 28.2669 9.9058L31.1195 10.8379C31.1933 10.5906 31.2665 10.3521 31.3416 10.1149Z"/>
</mask>
<path fill-rule="evenodd" clip-rule="evenodd" d="M29.1625 5.27699L29.0141 5.24726C28.3607 5.10141 27.6808 5.14943 27.0524 5.38579C25.8816 5.82961 25.0964 6.67237 24.7169 7.90601C24.3047 9.24414 23.9007 10.5856 23.4929 11.9244C23.3776 12.2893 23.3151 12.6698 23.3072 13.0535C23.3049 13.2523 23.3201 13.4513 23.3269 13.6496L23.4583 14.2606C23.5419 14.4628 23.6171 14.6687 23.7111 14.8651C24.0533 15.5696 24.5962 16.148 25.2664 16.5219C25.9366 16.8957 26.7016 17.0471 27.4577 16.9553C27.4894 16.9533 27.5213 16.9535 27.553 16.9557L28.1196 16.8247C28.1393 16.8115 28.16 16.7998 28.1814 16.7897C29.3753 16.3596 30.1835 15.5271 30.574 14.2822C31.0046 12.9185 31.4217 11.5527 31.8253 10.1848C32.0936 9.31138 32.0518 8.36737 31.7072 7.5233C31.3627 6.67922 30.7382 5.99072 29.9465 5.58213C29.8438 5.52798 29.7369 5.48172 29.6269 5.4284L29.1625 5.27699ZM29.0125 5.76864L29.0161 5.76953C28.9985 5.82767 28.9811 5.88539 28.9637 5.94276C28.8897 6.18752 28.8177 6.42577 28.742 6.66204C28.7339 6.67889 28.7223 6.69369 28.7081 6.70536C28.6939 6.71703 28.6773 6.7253 28.6596 6.72956C28.3254 6.79126 28.1286 6.99861 28.0367 7.32883C27.9654 7.58527 27.8899 7.82702 27.8138 8.07068C27.7919 8.14077 27.7699 8.21102 27.748 8.28183C27.6966 8.42264 27.6869 8.57617 27.7204 8.72268C27.7538 8.86919 27.8288 9.00196 27.9357 9.10391C27.948 9.11768 27.9573 9.13405 27.9628 9.15189C27.9684 9.16974 27.9702 9.18862 27.968 9.20724C27.9356 9.33488 27.8956 9.46253 27.8545 9.59375C27.8381 9.64587 27.8216 9.69855 27.8053 9.75202L24.9601 8.83901C24.9602 8.8386 24.9603 8.83819 24.9604 8.83778L24.9562 8.83644C25.1941 7.79479 25.5673 6.84997 26.4744 6.24036C26.8288 5.99235 27.2274 5.82022 27.6468 5.73409C28.0662 5.64797 28.498 5.64958 28.9168 5.73883C28.9423 5.74852 28.9698 5.75601 29.013 5.76678C29.0128 5.7674 29.0126 5.76802 29.0125 5.76864ZM28.9829 7.53329C28.9595 7.63136 28.929 7.7278 28.8985 7.82442C28.8876 7.85863 28.8768 7.89287 28.8663 7.92721C28.8489 7.98456 28.832 8.0421 28.8151 8.09965C28.7653 8.26897 28.7156 8.43838 28.6551 8.60352C28.6225 8.6709 28.5792 8.73212 28.5269 8.7846C28.4903 8.79218 28.4551 8.79411 28.4222 8.79127C28.2597 8.78012 28.1508 8.65379 28.1883 8.51497C28.2918 8.13013 28.4106 7.75041 28.5331 7.37243C28.5439 7.344 28.5599 7.31805 28.5804 7.29608C28.6009 7.27411 28.6254 7.25655 28.6524 7.24442C28.6795 7.2323 28.7086 7.22584 28.7381 7.22542C28.7469 7.22529 28.7557 7.22571 28.7645 7.22666C28.7873 7.22851 28.8098 7.234 28.831 7.24297C28.8856 7.2636 28.9309 7.30438 28.9582 7.35749C28.9855 7.4106 28.9929 7.47229 28.979 7.53072L28.9829 7.53329ZM31.3205 7.89635C31.5749 8.61102 31.5823 9.39502 31.3416 10.1149C31.2665 10.3521 31.1933 10.5906 31.1195 10.8379L28.2669 9.9058C28.267 9.9054 28.2672 9.90501 28.2673 9.90462L28.263 9.90322C28.2826 9.84005 28.3013 9.77706 28.3198 9.71462C28.356 9.59283 28.3916 9.47303 28.4314 9.35798C28.4411 9.34179 28.4541 9.328 28.4694 9.31757C28.4848 9.30713 28.5022 9.30033 28.5203 9.29761C28.6628 9.27583 28.7959 9.21111 28.9031 9.11153C29.0103 9.01195 29.0869 8.8819 29.1233 8.73758C29.2016 8.47661 29.2816 8.21581 29.3615 7.95513C29.3838 7.88229 29.4061 7.80946 29.4284 7.73664C29.4782 7.59667 29.4869 7.44455 29.4533 7.29949C29.4198 7.15444 29.3454 7.02297 29.2397 6.92171C29.2271 6.90839 29.2174 6.8924 29.2113 6.87484C29.2053 6.85727 29.2029 6.83854 29.2045 6.81994C29.2654 6.60867 29.3295 6.3984 29.3951 6.18307C29.4222 6.0942 29.4497 6.00407 29.4772 5.91305C29.7238 6.02249 29.9489 6.15118 30.1525 6.29955C30.313 6.41641 30.4603 6.54574 30.5942 6.68768C30.9083 7.02015 31.1483 7.4214 31.3166 7.8938C31.3167 7.89411 31.3176 7.89422 31.3177 7.89453L31.3205 7.89635Z" fill="var(--fill-0, #221692)"/>
<path fill-rule="evenodd" clip-rule="evenodd" d="M29.0161 5.76953L29.0125 5.76864C28.9914 5.83741 28.9707 5.90554 28.9501 5.97315L28.9493 5.97602C28.8787 6.20803 28.8099 6.43399 28.7379 6.65866C28.7299 6.6756 28.7184 6.69051 28.7042 6.70233C28.69 6.71414 28.6734 6.72256 28.6557 6.72699C28.3215 6.78869 28.1247 6.99604 28.0327 7.32543C27.9613 7.58079 27.8856 7.8231 27.8095 8.06679C27.7875 8.13744 27.7654 8.2082 27.7433 8.27944C27.6919 8.42025 27.6822 8.57379 27.7157 8.72029C27.7491 8.8668 27.8241 8.99957 27.931 9.10152C27.9433 9.11514 27.9525 9.13138 27.958 9.14909C27.9636 9.16679 27.9653 9.18555 27.9631 9.20402C27.93 9.33592 27.8886 9.46737 27.8462 9.60226C27.831 9.65061 27.8156 9.69939 27.8004 9.7488L24.9604 8.83778C24.9603 8.83819 24.9602 8.8386 24.9601 8.83901L27.8053 9.75202C27.8216 9.69855 27.8381 9.64587 27.8545 9.59375C27.8956 9.46253 27.9356 9.33488 27.968 9.20724C27.9702 9.18862 27.9684 9.16974 27.9628 9.15189C27.9573 9.13405 27.948 9.11768 27.9357 9.10391C27.8288 9.00196 27.7538 8.86919 27.7204 8.72268C27.6869 8.57617 27.6966 8.42264 27.748 8.28183C27.7699 8.21102 27.7919 8.14077 27.8138 8.07068C27.8899 7.82702 27.9654 7.58527 28.0367 7.32883C28.1286 6.99861 28.3254 6.79126 28.6596 6.72956C28.6773 6.7253 28.6939 6.71703 28.7081 6.70536C28.7223 6.69369 28.7339 6.67889 28.742 6.66204C28.8177 6.42577 28.8897 6.18752 28.9637 5.94276C28.9811 5.88539 28.9985 5.82767 29.0161 5.76953Z" fill="var(--fill-0, #221692)"/>
<path fill-rule="evenodd" clip-rule="evenodd" d="M28.8985 7.82442C28.929 7.7278 28.9595 7.63136 28.9829 7.53329L28.979 7.53072C28.9929 7.47229 28.9855 7.4106 28.9582 7.35749C28.9309 7.30438 28.8856 7.2636 28.831 7.24297C28.8098 7.234 28.7873 7.22851 28.7645 7.22666C28.7849 7.22889 28.805 7.23402 28.8241 7.24196C28.8802 7.26123 28.9272 7.30159 28.9559 7.35506C28.9845 7.40854 28.9928 7.47124 28.979 7.53072C28.9556 7.6288 28.9251 7.72522 28.8946 7.82185C28.8838 7.85603 28.8729 7.89033 28.8624 7.92464C28.8448 7.98284 28.8276 8.04124 28.8105 8.09966C28.761 8.26816 28.7114 8.43686 28.6514 8.60177C28.6179 8.66989 28.5736 8.73165 28.5202 8.78441C28.4861 8.79135 28.4532 8.7934 28.4222 8.79127C28.4551 8.79411 28.4903 8.79218 28.5269 8.7846C28.5792 8.73212 28.6225 8.6709 28.6551 8.60352C28.7156 8.43838 28.7653 8.26897 28.8151 8.09965C28.832 8.0421 28.8489 7.98456 28.8663 7.92721C28.8768 7.89287 28.8876 7.85863 28.8985 7.82442Z" fill="var(--fill-0, #221692)"/>
<path fill-rule="evenodd" clip-rule="evenodd" d="M31.3416 10.1149C31.5823 9.39502 31.5749 8.61102 31.3205 7.89635L31.3177 7.89453C31.5708 8.60898 31.5778 9.39215 31.3375 10.1115C31.2624 10.3487 31.1892 10.5872 31.1156 10.8353L28.2673 9.90462C28.2672 9.90501 28.267 9.9054 28.2669 9.9058L31.1195 10.8379C31.1933 10.5906 31.2665 10.3521 31.3416 10.1149Z" fill="var(--fill-0, #221692)"/>
<path d="M26.4767 6.24678L26.4607 6.27112L26.4772 6.28194L26.4933 6.27064L26.4767 6.24678ZM28.9192 5.74607L28.9261 5.71776L28.9253 5.7176L28.9192 5.74607ZM29.0161 5.76953L29.044 5.77798L29.0529 5.74849L29.023 5.74123L29.0161 5.76953ZM28.742 6.66204L28.7685 6.67475L28.7697 6.67093L28.742 6.66204ZM28.6596 6.72956L28.6649 6.75824L28.6664 6.75787L28.6596 6.72956ZM28.0367 7.32883L28.0087 7.32102L28.0087 7.32102L28.0367 7.32883ZM27.748 8.28183L27.7754 8.29183L27.7759 8.29043L27.748 8.28183ZM27.9357 9.10391L27.9575 9.08446L27.9558 9.08284L27.9357 9.10391ZM27.968 9.20724L27.9964 9.21445L27.9969 9.21063L27.968 9.20724ZM27.8053 9.75202L27.7964 9.77974L27.8246 9.78877L27.8332 9.7605L27.8053 9.75202ZM24.9601 8.83901L24.9317 8.83265L24.9259 8.85861L24.9512 8.86674L24.9601 8.83901ZM26.4728 6.24422L26.4888 6.21988L26.4726 6.20927L26.4565 6.22005L26.4728 6.24422ZM28.9829 7.53329L29.0112 7.54003L29.0159 7.52019L28.9989 7.50897L28.9829 7.53329ZM28.8663 7.92721L28.8384 7.91868L28.8384 7.91879L28.8663 7.92721ZM28.6551 8.60352L28.6814 8.61625L28.6824 8.61353L28.6551 8.60352ZM28.5269 8.7846L28.5328 8.81311L28.5414 8.81134L28.5476 8.80513L28.5269 8.7846ZM28.195 8.51515L28.1669 8.50762L28.1669 8.50762L28.195 8.51515ZM28.5398 7.37262L28.5126 7.36232L28.5121 7.36367L28.5398 7.37262ZM28.745 7.22597L28.7453 7.25509L28.745 7.22597ZM28.831 7.24297L28.8197 7.26982L28.8207 7.27021L28.831 7.24297ZM28.979 7.53072L28.9506 7.52398L28.9459 7.54382L28.9629 7.55504L28.979 7.53072ZM31.3205 7.89635L31.3479 7.88659L31.3446 7.87738L31.3365 7.87202L31.3205 7.89635ZM31.3416 10.1149L31.314 10.1057L31.3138 10.1061L31.3416 10.1149ZM31.1195 10.8379L31.1105 10.8655L31.1389 10.8748L31.1474 10.8462L31.1195 10.8379ZM28.2669 9.9058L28.2391 9.89721L28.2307 9.92458L28.2579 9.93347L28.2669 9.9058ZM28.4355 9.36137L28.41 9.34611L28.408 9.35178L28.4355 9.36137ZM28.5234 9.30036L28.5191 9.27157L28.5185 9.27166L28.5234 9.30036ZM29.1273 8.74098L29.0994 8.73263L29.0991 8.73382L29.1273 8.74098ZM29.4323 7.73921L29.4048 7.72944L29.4044 7.7307L29.4323 7.73921ZM29.2436 6.92427L29.2225 6.94433L29.2235 6.9453L29.2436 6.92427ZM29.2084 6.82252L29.1798 6.81429L29.1794 6.82008L29.2084 6.82252ZM29.4813 5.91645L29.493 5.88981L29.463 5.87657L29.4534 5.90793L29.4813 5.91645ZM28.9493 5.97602L28.9771 5.9845L28.9771 5.9845L28.9493 5.97602ZM29.0125 5.76864L29.0056 5.79694L29.0056 5.79694L29.0125 5.76864ZM24.9604 8.83778L24.9888 8.84414L24.9888 8.84414L24.9604 8.83778ZM28.4222 8.79127L28.4248 8.76227L28.4248 8.76227L28.4222 8.79127ZM28.7645 7.22666L28.7621 7.25569L28.7621 7.25569L28.7645 7.22666ZM28.2673 9.90462L28.2395 9.89602L28.2395 9.89603L28.2673 9.90462ZM27.8545 9.59375L27.8267 9.58503L27.8267 9.58503L27.8545 9.59375ZM27.8138 8.07068L27.8416 8.07936L27.8416 8.07936L27.8138 8.07068ZM28.9637 5.94276L28.9358 5.93433L28.9358 5.93433L28.9637 5.94276ZM28.8985 7.82442L28.9262 7.83321L28.9262 7.83321L28.8985 7.82442ZM28.8151 8.09965L28.7872 8.09144L28.7872 8.09144L28.8151 8.09965ZM26.4767 6.24678L26.4933 6.27064C26.8446 6.02517 27.2396 5.85488 27.6551 5.76971L27.6493 5.74119L27.6434 5.71266C27.2201 5.79945 26.8177 5.97294 26.46 6.22291L26.4767 6.24678ZM27.6493 5.74119L27.6551 5.76971C28.0706 5.68454 28.4983 5.68618 28.9131 5.77455L28.9192 5.74607L28.9253 5.7176C28.5026 5.62755 28.0668 5.62588 27.6434 5.71266L27.6493 5.74119ZM28.742 6.66204L28.7157 6.64946C28.7095 6.66253 28.7005 6.67391 28.6896 6.68284L28.7081 6.70536L28.7266 6.72788C28.7441 6.71346 28.7584 6.69526 28.7682 6.67463L28.742 6.66204ZM28.7081 6.70536L28.6896 6.68284C28.6788 6.69177 28.6662 6.69803 28.6528 6.70126L28.6596 6.72956L28.6664 6.75787C28.6885 6.75256 28.709 6.74229 28.7266 6.72788L28.7081 6.70536ZM28.6596 6.72956L28.6543 6.70093C28.4823 6.73269 28.344 6.80233 28.2369 6.90775C28.1299 7.01298 28.0556 7.1523 28.0087 7.32102L28.0367 7.32883L28.0648 7.33663C28.1097 7.17514 28.1797 7.04567 28.2777 6.94925C28.3755 6.85301 28.5028 6.78813 28.6649 6.75819L28.6596 6.72956ZM27.748 8.28183L27.7207 8.27183C27.6673 8.41793 27.6573 8.57719 27.692 8.72916L27.7204 8.72268L27.7488 8.7162C27.7166 8.57516 27.7259 8.42734 27.7754 8.29182L27.748 8.28183ZM27.7204 8.72268L27.692 8.72916C27.7267 8.88113 27.8045 9.01901 27.9156 9.12498L27.9357 9.10391L27.9558 9.08284C27.8531 8.9849 27.781 8.85724 27.7488 8.7162L27.7204 8.72268ZM27.9357 9.10391L27.914 9.1233C27.9235 9.13393 27.9307 9.14664 27.935 9.16057L27.9628 9.15189L27.9906 9.14322C27.9838 9.12146 27.9725 9.10142 27.9574 9.08452L27.9357 9.10391ZM27.9628 9.15189L27.935 9.16057C27.9394 9.1745 27.9408 9.18927 27.9391 9.20385L27.968 9.20724L27.9969 9.21063C27.9995 9.18797 27.9974 9.16497 27.9906 9.14322L27.9628 9.15189ZM27.8053 9.75202L27.8142 9.72429L24.969 8.81129L24.9601 8.83901L24.9512 8.86674L27.7964 9.77974L27.8053 9.75202ZM26.4728 6.24422L26.4568 6.26856L26.4607 6.27112L26.4767 6.24678L26.4926 6.22244L26.4888 6.21988L26.4728 6.24422ZM28.6551 8.60352L28.6288 8.59084C28.5977 8.65535 28.5562 8.7139 28.5063 8.76406L28.5269 8.7846L28.5476 8.80513C28.6021 8.75034 28.6473 8.68646 28.6813 8.61619L28.6551 8.60352ZM28.195 8.51515L28.2231 8.52269C28.3258 8.13961 28.4452 7.76029 28.5675 7.38156L28.5398 7.37262L28.5121 7.36367C28.3898 7.74255 28.27 8.12304 28.1669 8.50762L28.195 8.51515ZM28.5398 7.37262L28.5671 7.3829C28.5765 7.35795 28.5906 7.33526 28.6084 7.31611L28.5872 7.29624L28.5659 7.27637C28.5428 7.30114 28.5247 7.33037 28.5126 7.36233L28.5398 7.37262ZM28.5872 7.29624L28.6084 7.31611C28.6263 7.29697 28.6476 7.28176 28.6711 7.2713L28.6593 7.2447L28.6474 7.2181C28.6167 7.23177 28.589 7.25159 28.5659 7.27637L28.5872 7.29624ZM28.6593 7.2447L28.6711 7.2713C28.6946 7.26085 28.7198 7.25534 28.7453 7.25509L28.745 7.22597L28.7447 7.19686C28.7112 7.1972 28.6781 7.20443 28.6474 7.2181L28.6593 7.2447ZM28.831 7.24297L28.8207 7.27021C28.8684 7.28822 28.9082 7.32394 28.9323 7.3708L28.9582 7.35749L28.9841 7.34418C28.9535 7.28483 28.9028 7.23898 28.8413 7.21574L28.831 7.24297ZM28.9582 7.35749L28.9323 7.3708C28.9564 7.41769 28.9629 7.47226 28.9506 7.52398L28.979 7.53072L29.0073 7.53747C29.0228 7.47232 29.0146 7.40351 28.9841 7.34418L28.9582 7.35749ZM28.979 7.53072L28.9629 7.55504L28.9668 7.5576L28.9829 7.53329L28.9989 7.50897L28.995 7.50641L28.979 7.53072ZM31.3205 7.89635L31.2931 7.90612C31.5452 8.61465 31.5526 9.39196 31.314 10.1057L31.3416 10.1149L31.3692 10.1241C31.612 9.39808 31.6045 8.6074 31.3479 7.88659L31.3205 7.89635ZM31.3416 10.1149L31.3138 10.1061C31.2387 10.3435 31.1655 10.5821 31.0916 10.8295L31.1195 10.8379L31.1474 10.8462C31.2212 10.599 31.2943 10.3607 31.3694 10.1237L31.3416 10.1149ZM31.1195 10.8379L31.1286 10.8102L28.276 9.87812L28.2669 9.9058L28.2579 9.93347L31.1105 10.8655L31.1195 10.8379ZM28.4355 9.36137L28.4605 9.37632C28.468 9.36375 28.478 9.35307 28.4897 9.34494L28.4731 9.32101L28.4565 9.29709C28.4379 9.31001 28.4222 9.32684 28.4105 9.34643L28.4355 9.36137ZM28.4731 9.32101L28.4897 9.34494C28.5014 9.33681 28.5146 9.33142 28.5284 9.32906L28.5234 9.30036L28.5185 9.27166C28.4963 9.27548 28.4751 9.28417 28.4565 9.29709L28.4731 9.32101ZM28.5234 9.30036L28.5278 9.32915C28.6762 9.30671 28.8148 9.23954 28.9264 9.13617L28.9066 9.11481L28.8868 9.09344C28.7836 9.18901 28.6557 9.25091 28.5191 9.27157L28.5234 9.30036ZM28.9066 9.11481L28.9264 9.13617C29.038 9.0328 29.1176 8.89783 29.1556 8.74813L29.1273 8.74098L29.0991 8.73382C29.0639 8.87282 28.99 8.99786 28.8868 9.09344L28.9066 9.11481ZM29.1273 8.74098L29.1552 8.74932C29.2553 8.41472 29.3581 8.08124 29.4601 7.74773L29.4323 7.73921L29.4044 7.7307C29.3024 8.06405 29.1996 8.39781 29.0995 8.73264L29.1273 8.74098ZM29.4323 7.73921L29.4597 7.74898C29.5114 7.60376 29.5204 7.44597 29.4856 7.2955L29.4572 7.30207L29.4289 7.30863C29.4612 7.44828 29.4528 7.59473 29.4049 7.72945L29.4323 7.73921ZM29.4572 7.30207L29.4856 7.2955C29.4508 7.14503 29.3736 7.0085 29.2638 6.90325L29.2436 6.92427L29.2235 6.9453C29.325 7.04257 29.3965 7.16899 29.4289 7.30863L29.4572 7.30207ZM29.2436 6.92427L29.2648 6.90425C29.255 6.89397 29.2475 6.88158 29.2427 6.86787L29.2152 6.8774L29.1877 6.88693C29.1951 6.90836 29.207 6.92794 29.2225 6.9443L29.2436 6.92427ZM29.2152 6.8774L29.2427 6.86787C29.238 6.85416 29.2362 6.83952 29.2374 6.82496L29.2084 6.82252L29.1794 6.82008C29.1775 6.84271 29.1803 6.86551 29.1877 6.88693L29.2152 6.8774ZM29.2084 6.82252L29.2363 6.83059C29.3224 6.53227 29.4139 6.23616 29.5091 5.92496L29.4813 5.91645L29.4534 5.90793C29.3583 6.21887 29.2666 6.51557 29.1804 6.81445L29.2084 6.82252ZM29.0125 5.76864L29.0056 5.79694L29.0093 5.79783L29.0161 5.76953L29.023 5.74123L29.0193 5.74034L29.0125 5.76864ZM24.9601 8.83901L24.9886 8.84537C24.9886 8.84516 24.9886 8.84495 24.9887 8.84475C24.9887 8.84454 24.9888 8.84434 24.9888 8.84414L24.9604 8.83778L24.932 8.83142C24.932 8.83163 24.9319 8.83184 24.9319 8.83205C24.9318 8.83225 24.9318 8.83245 24.9317 8.83265L24.9601 8.83901ZM28.5269 8.7846L28.521 8.75608C28.4871 8.76312 28.4547 8.76485 28.4248 8.76227L28.4222 8.79127L28.4197 8.82028C28.4555 8.82337 28.4935 8.82124 28.5328 8.81311L28.5269 8.7846ZM28.7645 7.22666L28.7621 7.25569C28.7819 7.25728 28.8013 7.26203 28.8197 7.2698L28.831 7.24297L28.8423 7.21614C28.8182 7.20598 28.7928 7.19974 28.7669 7.19764L28.7645 7.22666ZM28.2669 9.9058L28.2947 9.91438C28.2948 9.9142 28.2949 9.91402 28.2949 9.91382C28.295 9.91362 28.295 9.91341 28.2951 9.9132L28.2673 9.90462L28.2395 9.89603C28.2394 9.89621 28.2393 9.8964 28.2393 9.8966C28.2392 9.89679 28.2392 9.897 28.2391 9.89721L28.2669 9.9058ZM31.3177 7.89453L31.3017 7.91887L31.3045 7.92069L31.3205 7.89635L31.3365 7.87202L31.3337 7.8702L31.3177 7.89453ZM28.4222 8.79127L28.4248 8.76227C28.2791 8.74968 28.1922 8.63818 28.2231 8.52269L28.195 8.51515L28.1669 8.50762C28.1241 8.66725 28.2481 8.80545 28.4197 8.82028L28.4222 8.79127ZM29.4813 5.91645L29.4695 5.94309C29.7126 6.05033 29.9345 6.17693 30.1353 6.32309L30.1525 6.29955L30.1696 6.27601C29.9652 6.12724 29.7397 5.99861 29.493 5.88981L29.4813 5.91645ZM28.2673 9.90462L28.2951 9.91321C28.353 9.72587 28.4028 9.54323 28.463 9.37097L28.4355 9.36137L28.408 9.35178C28.3475 9.52524 28.2965 9.71131 28.2395 9.89602L28.2673 9.90462ZM24.9604 8.83778L24.9888 8.84414C25.2208 7.80726 25.5917 6.87139 26.489 6.26839L26.4728 6.24422L26.4565 6.22005C25.5402 6.83578 25.165 7.7902 24.932 8.83142L24.9604 8.83778ZM28.745 7.22597L28.7453 7.25509C28.7509 7.25503 28.7565 7.25523 28.7621 7.25569L28.7645 7.22666L28.7669 7.19764C28.7595 7.19705 28.7521 7.19678 28.7447 7.19686L28.745 7.22597ZM28.9192 5.74607L28.9124 5.77437L29.0056 5.79694L29.0125 5.76864L29.0193 5.74034L28.926 5.71777L28.9192 5.74607ZM27.8053 9.75202L27.8332 9.7605C27.8494 9.70716 27.8659 9.6546 27.8823 9.60246L27.8545 9.59375L27.8267 9.58503C27.8103 9.63714 27.7938 9.68993 27.7775 9.74353L27.8053 9.75202ZM27.8545 9.59375L27.8823 9.60246C27.9234 9.47139 27.9636 9.34295 27.9962 9.21439L27.968 9.20724L27.9397 9.20009C27.9077 9.32681 27.8679 9.45368 27.8267 9.58503L27.8545 9.59375ZM27.748 8.28183L27.7759 8.29043C27.7977 8.21967 27.8197 8.14946 27.8416 8.07936L27.8138 8.07068L27.786 8.062C27.7641 8.13209 27.7421 8.20237 27.7202 8.27322L27.748 8.28183ZM27.8138 8.07068L27.8416 8.07936C27.9177 7.83576 27.9933 7.59358 28.0648 7.33663L28.0367 7.32883L28.0087 7.32102C27.9375 7.57696 27.8621 7.81828 27.786 8.062L27.8138 8.07068ZM28.742 6.66204L28.7697 6.67093C28.8455 6.43439 28.9176 6.19591 28.9916 5.95118L28.9637 5.94276L28.9358 5.93433C28.8619 6.17914 28.7899 6.41716 28.7143 6.65316L28.742 6.66204ZM28.9637 5.94276L28.9916 5.95118C29.0089 5.89382 29.0264 5.83611 29.044 5.77798L29.0161 5.76953L28.9883 5.76109C28.9706 5.81924 28.9532 5.87697 28.9358 5.93433L28.9637 5.94276ZM28.9493 5.97602L28.9771 5.9845C28.9771 5.98446 28.9771 5.98444 28.9771 5.98443C28.9771 5.98443 28.9771 5.98442 28.9771 5.98442C28.9771 5.98442 28.9771 5.98442 28.9771 5.98442C28.9771 5.98442 28.9771 5.98442 28.9771 5.98442C28.9771 5.98442 28.9771 5.98442 28.9771 5.98442C28.9771 5.98442 28.9771 5.98442 28.9771 5.98442C28.9578 5.94809 28.9214 5.96747 28.9214 5.96747C28.9214 5.96747 28.9214 5.96747 28.9214 5.96747C28.9214 5.96747 28.9214 5.96747 28.9214 5.96747C28.9214 5.96747 28.9214 5.96747 28.9214 5.96747C28.9214 5.96748 28.9214 5.96751 28.9214 5.96755C28.9214 5.96758 28.9214 5.96761 28.9214 5.96762C28.9214 5.96762 28.9214 5.96762 28.9214 5.96762C28.9214 5.96762 28.9214 5.96762 28.9214 5.96762C28.9214 5.96762 28.9214 5.96762 28.9214 5.96762C28.9214 5.96762 28.9408 6.00395 28.9771 5.98457C28.9771 5.98457 28.9771 5.98457 28.9771 5.98457C28.9771 5.98457 28.9771 5.98457 28.9771 5.98457C28.9771 5.98457 28.9771 5.98457 28.9771 5.98457C28.9771 5.98457 28.9771 5.98457 28.9771 5.98457C28.9771 5.98457 28.9771 5.98456 28.9771 5.98456C28.9771 5.98455 28.9771 5.98453 28.9771 5.9845L28.9493 5.97602L28.9214 5.96755C28.9214 5.96758 28.9214 5.9676 28.9214 5.96761C28.9214 5.96761 28.9214 5.96762 28.9214 5.96762C28.9214 5.96762 28.9214 5.96762 28.9214 5.96762C28.9214 5.96762 28.9214 5.96762 28.9214 5.96762C28.9577 5.94824 28.9771 5.98457 28.9771 5.98457C28.9771 5.98457 28.9771 5.98457 28.9771 5.98457C28.9771 5.98457 28.9771 5.98457 28.9771 5.98457C28.9771 5.98457 28.9771 5.98457 28.9771 5.98457C28.9771 5.98456 28.9771 5.98453 28.9771 5.9845C28.9771 5.98446 28.9771 5.98443 28.9771 5.98442C28.9771 5.98442 28.9771 5.98442 28.9771 5.98442C28.9771 5.98442 28.9771 5.98442 28.9771 5.98442C28.9771 5.98442 28.9771 5.98442 28.9771 5.98442C28.9771 5.98442 28.9771 5.98442 28.9771 5.98442C28.9771 5.98442 28.9408 6.0038 28.9214 5.96747C28.9214 5.96747 28.9214 5.96747 28.9214 5.96747C28.9214 5.96747 28.9214 5.96747 28.9214 5.96747C28.9214 5.96747 28.9214 5.96748 28.9214 5.96748C28.9214 5.96749 28.9214 5.96751 28.9214 5.96755L28.9493 5.97602ZM28.8985 7.82442L28.9262 7.83321C28.9567 7.73675 28.9876 7.63931 29.0112 7.54003L28.9829 7.53329L28.9545 7.52655C28.9315 7.62342 28.9013 7.71884 28.8707 7.81564L28.8985 7.82442ZM28.6551 8.60352L28.6824 8.61353C28.7433 8.44735 28.7933 8.27703 28.843 8.10786L28.8151 8.09965L28.7872 8.09144C28.7374 8.26091 28.6878 8.42941 28.6277 8.5935L28.6551 8.60352ZM28.8151 8.09965L28.843 8.10786C28.86 8.0503 28.8769 7.99286 28.8941 7.93563L28.8663 7.92721L28.8384 7.91879C28.821 7.97627 28.8041 8.03391 28.7872 8.09144L28.8151 8.09965ZM28.8663 7.92721L28.8941 7.93574C28.9046 7.90155 28.9154 7.86744 28.9262 7.83321L28.8985 7.82442L28.8707 7.81564C28.8599 7.84983 28.849 7.88419 28.8384 7.91868L28.8663 7.92721ZM29.1625 5.27699L29.1806 5.22124L29.1739 5.2199L29.1625 5.27699ZM29.0141 5.24726L29.0014 5.30411L29.0026 5.30436L29.0141 5.24726ZM27.0524 5.38579L27.0319 5.33128L27.0318 5.33133L27.0524 5.38579ZM24.7169 7.90601L24.7725 7.92316L24.7725 7.92314L24.7169 7.90601ZM23.4929 11.9244L23.5484 11.942L23.5486 11.9414L23.4929 11.9244ZM23.3072 13.0535L23.249 13.0523L23.249 13.0528L23.3072 13.0535ZM23.3269 13.6496L23.2677 13.6516L23.2699 13.6619L23.3269 13.6496ZM23.4583 14.2606L23.4004 14.273L23.4045 14.2828L23.4583 14.2606ZM23.7111 14.8651L23.6586 14.8902L23.6587 14.8905L23.7111 14.8651ZM27.4577 16.9553L27.454 16.8971L27.4507 16.8975L27.4577 16.9553ZM27.553 16.9557L27.5488 17.0138L27.5576 17.0145L27.5661 17.0125L27.553 16.9557ZM28.1196 16.8247L28.1327 16.8815L28.1431 16.8791L28.1519 16.8732L28.1196 16.8247ZM28.1814 16.7897L28.1615 16.7346L28.1564 16.7371L28.1814 16.7897ZM30.574 14.2822L30.5185 14.2647L30.5184 14.2648L30.574 14.2822ZM31.8253 10.1848L31.7696 10.1677L31.7694 10.1683L31.8253 10.1848ZM29.9465 5.58213L29.9193 5.63364L29.9198 5.63388L29.9465 5.58213ZM29.6269 5.4284L29.6525 5.37551L29.6449 5.37303L29.6269 5.4284ZM28.979 7.53072L29.0356 7.5442L29.0357 7.54389L28.979 7.53072ZM31.3166 7.8938L31.3715 7.87433L31.3715 7.87426L31.3166 7.8938ZM28.9493 5.97602L29.005 5.99297L29.005 5.99297L28.9493 5.97602ZM29.013 5.76678L29.0687 5.78378L29.0866 5.7251L29.0271 5.71027L29.013 5.76678ZM28.7379 6.65866L28.791 6.68377L28.7934 6.67643L28.7379 6.65866ZM28.7042 6.70233L28.7414 6.74711L28.7414 6.7471L28.7042 6.70233ZM28.6557 6.72699L28.6663 6.78437L28.6699 6.78348L28.6557 6.72699ZM28.0327 7.32543L28.0887 7.3411L28.0887 7.3411L28.0327 7.32543ZM27.8095 8.06679L27.8651 8.08415L27.8651 8.08415L27.8095 8.06679ZM27.7433 8.27944L27.7981 8.29945L27.799 8.29665L27.7433 8.27944ZM27.931 9.10152L27.9745 9.06248L27.9712 9.05938L27.931 9.10152ZM27.9631 9.20402L28.02 9.21832L28.0209 9.2109L27.9631 9.20402ZM27.8462 9.60226L27.7906 9.58478L27.7906 9.58478L27.8462 9.60226ZM27.8004 9.7488L27.7827 9.80425L27.8388 9.82227L27.8561 9.76588L27.8004 9.7488ZM24.9562 8.83644L24.8995 8.82348L24.8876 8.87557L24.9384 8.89189L24.9562 8.83644ZM26.4744 6.24036L26.5069 6.2887L26.5078 6.28807L26.4744 6.24036ZM28.9168 5.73883L28.9377 5.68376L28.9289 5.68188L28.9168 5.73883ZM29.4772 5.91305L29.5008 5.85982L29.4405 5.83306L29.4214 5.8962L29.4772 5.91305ZM31.3375 10.1115L31.2823 10.093L31.282 10.0939L31.3375 10.1115ZM31.1156 10.8353L31.0976 10.8906L31.1544 10.9092L31.1715 10.8518L31.1156 10.8353ZM28.263 9.90322L28.2074 9.88602L28.1905 9.94078L28.2449 9.95858L28.263 9.90322ZM28.3198 9.71462L28.3756 9.7312L28.3756 9.7312L28.3198 9.71462ZM28.4314 9.35798L28.3804 9.32751L28.3764 9.33892L28.4314 9.35798ZM28.5203 9.29761L28.5289 9.35521L28.5292 9.35518L28.5203 9.29761ZM29.1233 8.73758L29.0674 8.72081L29.0668 8.72333L29.1233 8.73758ZM29.3615 7.95513L29.3058 7.93806L29.3058 7.93806L29.3615 7.95513ZM29.4284 7.73664L29.3735 7.71708L29.3727 7.7196L29.4284 7.73664ZM29.2397 6.92171L29.1974 6.96181L29.1994 6.96376L29.2397 6.92171ZM29.2045 6.81994L29.1474 6.80349L29.1464 6.81506L29.2045 6.81994ZM29.3951 6.18307L29.4508 6.20005L29.4508 6.20005L29.3951 6.18307ZM28.5202 8.78441L28.5318 8.84148L28.5488 8.83803L28.5612 8.82582L28.5202 8.78441ZM28.1883 8.51497L28.2445 8.53016L28.2445 8.53009L28.1883 8.51497ZM28.6514 8.60177L28.7039 8.62757L28.7061 8.6217L28.6514 8.60177ZM28.8105 8.09966L28.8664 8.11607L28.8664 8.11607L28.8105 8.09966ZM28.8624 7.92464L28.8067 7.90758L28.8066 7.9078L28.8624 7.92464ZM28.8946 7.82185L28.839 7.80429L28.839 7.80429L28.8946 7.82185ZM28.9559 7.35506L29.0072 7.32755L29.0072 7.32755L28.9559 7.35506ZM28.8241 7.24196L28.8018 7.29586L28.8052 7.29703L28.8241 7.24196ZM28.7381 7.22542L28.7389 7.28365L28.7389 7.28365L28.7381 7.22542ZM28.5804 7.29608L28.623 7.33579L28.623 7.33579L28.5804 7.29608ZM28.5331 7.37243L28.4786 7.3518L28.4777 7.35448L28.5331 7.37243ZM29.0125 5.76864L29.0681 5.78566L29.0681 5.78565L29.0125 5.76864ZM24.9604 8.83778L24.9426 8.89323L24.9426 8.89323L24.9604 8.83778ZM28.4222 8.79127L28.4183 8.84937L28.4183 8.84937L28.4222 8.79127ZM28.7645 7.22666L28.7708 7.16877L28.7708 7.16877L28.7645 7.22666ZM28.2673 9.90462L28.2854 9.84926L28.2854 9.84926L28.2673 9.90462ZM30.1525 6.29955L30.1182 6.34661L30.1182 6.34663L30.1525 6.29955ZM30.5942 6.68768L30.5519 6.72765L30.5519 6.72766L30.5942 6.68768ZM31.3177 7.89453L31.3726 7.87509L31.3726 7.87507L31.3177 7.89453ZM28.9501 5.97315L28.8944 5.9562L28.8944 5.9562L28.9501 5.97315ZM29.1625 5.27699L29.1739 5.2199L29.0255 5.19016L29.0141 5.24726L29.0026 5.30436L29.151 5.33409L29.1625 5.27699ZM29.0141 5.24726L29.0267 5.19043C28.3623 5.0421 27.6709 5.09095 27.0319 5.33128L27.0524 5.38579L27.0729 5.44029C27.6907 5.20791 28.3591 5.16072 29.0014 5.30409L29.0141 5.24726ZM27.0524 5.38579L27.0318 5.33133C25.8437 5.78169 25.0459 6.63851 24.6612 7.88889L24.7169 7.90601L24.7725 7.92314C25.1469 6.70622 25.9194 5.87752 27.0731 5.44024L27.0524 5.38579ZM24.7169 7.90601L24.6612 7.88887C24.249 9.2271 23.8449 10.5689 23.4372 11.9075L23.4929 11.9244L23.5486 11.9414C23.9565 10.6023 24.3604 9.26119 24.7725 7.92316L24.7169 7.90601ZM23.4929 11.9244L23.4374 11.9069C23.3204 12.277 23.2569 12.663 23.249 13.0523L23.3072 13.0535L23.3655 13.0547C23.3732 12.6765 23.4348 12.3015 23.5484 11.942L23.4929 11.9244ZM23.3072 13.0535L23.249 13.0528C23.2466 13.2532 23.262 13.4567 23.2687 13.6516L23.3269 13.6496L23.3851 13.6477C23.3782 13.4458 23.3631 13.2513 23.3655 13.0542L23.3072 13.0535ZM23.3269 13.6496L23.2699 13.6619L23.4013 14.2728L23.4583 14.2606L23.5152 14.2483L23.3838 13.6374L23.3269 13.6496ZM23.4583 14.2606L23.4045 14.2828C23.4868 14.482 23.5637 14.692 23.6586 14.8902L23.7111 14.8651L23.7636 14.8399C23.6705 14.6454 23.597 14.4437 23.5121 14.2383L23.4583 14.2606ZM23.7111 14.8651L23.6587 14.8905C24.006 15.6055 24.5572 16.1929 25.2381 16.5727L25.2664 16.5219L25.2948 16.471C24.6353 16.103 24.1006 15.5336 23.7635 14.8396L23.7111 14.8651ZM25.2664 16.5219L25.2381 16.5727C25.9189 16.9526 26.6963 17.1064 27.4647 17.0131L27.4577 16.9553L27.4507 16.8975C26.7069 16.9878 25.9543 16.8389 25.2948 16.471L25.2664 16.5219ZM27.4577 16.9553L27.4613 17.0134C27.4905 17.0116 27.5197 17.0117 27.5488 17.0138L27.553 16.9557L27.5572 16.8977C27.5229 16.8952 27.4884 16.895 27.454 16.8972L27.4577 16.9553ZM27.553 16.9557L27.5661 17.0125L28.1327 16.8815L28.1196 16.8247L28.1065 16.768L27.5399 16.899L27.553 16.9557ZM28.1196 16.8247L28.1519 16.8732C28.1693 16.8615 28.1875 16.8512 28.2063 16.8423L28.1814 16.7897L28.1564 16.7371C28.1325 16.7484 28.1093 16.7616 28.0872 16.7763L28.1196 16.8247ZM28.1814 16.7897L28.2011 16.8445C29.4121 16.4082 30.2337 15.5618 30.6296 14.2997L30.574 14.2822L30.5184 14.2648C30.1334 15.4923 29.3384 16.311 28.1616 16.7349L28.1814 16.7897ZM30.574 14.2822L30.6295 14.2998C31.0603 12.9357 31.4775 11.5695 31.8811 10.2013L31.8253 10.1848L31.7694 10.1683C31.366 11.5359 30.949 12.9013 30.5185 14.2647L30.574 14.2822ZM31.8253 10.1848L31.8809 10.2019C32.1532 9.31567 32.1108 8.35784 31.7611 7.50129L31.7072 7.5233L31.6533 7.5453C31.9928 8.37691 32.034 9.30709 31.7696 10.1677L31.8253 10.1848ZM31.7072 7.5233L31.7611 7.50129C31.4115 6.64471 30.7775 5.94549 29.9732 5.53038L29.9465 5.58213L29.9198 5.63388C30.6988 6.03595 31.3139 6.71374 31.6533 7.5453L31.7072 7.5233ZM29.9465 5.58213L29.9736 5.53062C29.8701 5.47602 29.759 5.42772 29.6523 5.37599L29.6269 5.4284L29.6015 5.4808C29.7148 5.53571 29.8175 5.57994 29.9193 5.63364L29.9465 5.58213ZM29.1625 5.27699L29.1444 5.33236L29.6088 5.48376L29.6269 5.4284L29.6449 5.37303L29.1805 5.22163L29.1625 5.27699ZM28.7379 6.65866L28.7934 6.67643C28.8655 6.45129 28.9344 6.2249 29.005 5.99297L28.9493 5.97602L28.8936 5.95907C28.8229 6.19115 28.7543 6.4167 28.6825 6.64088L28.7379 6.65866ZM28.7042 6.70233L28.7414 6.7471C28.7622 6.72979 28.779 6.70806 28.7906 6.68355L28.7379 6.65866L28.6853 6.63376C28.6808 6.64315 28.6745 6.65124 28.6669 6.65755L28.7042 6.70233ZM28.6557 6.72699L28.6699 6.78348C28.6961 6.7769 28.7206 6.76444 28.7414 6.74711L28.7042 6.70233L28.6669 6.65755C28.6594 6.66384 28.6507 6.66821 28.6416 6.6705L28.6557 6.72699ZM28.0327 7.32543L28.0887 7.3411C28.1327 7.18364 28.2007 7.05928 28.2942 6.96736C28.3874 6.87578 28.5091 6.81327 28.6663 6.78425L28.6557 6.72699L28.6451 6.66972C28.4681 6.70241 28.3243 6.77442 28.2125 6.88429C28.1011 6.99382 28.0246 7.13782 27.9766 7.30976L28.0327 7.32543ZM27.8095 8.06679L27.8651 8.08415C27.9412 7.84057 28.0171 7.59744 28.0887 7.3411L28.0327 7.32543L27.9766 7.30976C27.9055 7.56414 27.8301 7.80563 27.754 8.04943L27.8095 8.06679ZM27.7433 8.27944L27.799 8.29665C27.821 8.2255 27.8431 8.15481 27.8651 8.08415L27.8095 8.06679L27.754 8.04943C27.7319 8.12007 27.7098 8.19091 27.6877 8.26223L27.7433 8.27944ZM27.7157 8.72029L27.7725 8.70733C27.7415 8.57175 27.7504 8.42966 27.798 8.29943L27.7433 8.27944L27.6886 8.25945C27.6333 8.41084 27.623 8.57582 27.6589 8.73325L27.7157 8.72029ZM27.931 9.10152L27.9712 9.05938C27.8728 8.96546 27.8034 8.8429 27.7725 8.70733L27.7157 8.72029L27.6589 8.73325C27.6949 8.89069 27.7755 9.03368 27.8908 9.14366L27.931 9.10152ZM27.958 9.14909L28.0136 9.1317C28.0056 9.10612 27.9922 9.08252 27.9743 9.0626L27.931 9.10152L27.8877 9.14044C27.8943 9.14777 27.8994 9.15664 27.9024 9.16648L27.958 9.14909ZM27.9631 9.20402L28.0209 9.2109C28.0241 9.18429 28.0216 9.15727 28.0136 9.1317L27.958 9.14909L27.9024 9.16648C27.9055 9.17632 27.9065 9.1868 27.9053 9.19715L27.9631 9.20402ZM27.8462 9.60226L27.9017 9.61974C27.9441 9.48515 27.986 9.35205 28.0196 9.21821L27.9631 9.20402L27.9066 9.18984C27.874 9.31979 27.8332 9.44959 27.7906 9.58478L27.8462 9.60226ZM27.8004 9.7488L27.8561 9.76588C27.8712 9.71671 27.8865 9.66812 27.9017 9.61974L27.8462 9.60226L27.7906 9.58478C27.7754 9.6331 27.76 9.68208 27.7448 9.73172L27.8004 9.7488ZM26.4744 6.24036L26.442 6.19203C25.5159 6.81434 25.1383 7.77768 24.8995 8.82348L24.9562 8.83644L25.013 8.8494C25.2499 7.8119 25.6187 6.88559 26.5069 6.28869L26.4744 6.24036ZM27.6468 5.73409L27.6351 5.67705C27.2078 5.76479 26.8018 5.94013 26.441 6.19265L26.4744 6.24036L26.5078 6.28807C26.8557 6.04457 27.247 5.87565 27.6585 5.79114L27.6468 5.73409ZM28.9168 5.73883L28.9289 5.68188C28.5023 5.59095 28.0624 5.58931 27.6351 5.67705L27.6468 5.73409L27.6585 5.79114C28.0701 5.70663 28.4938 5.70821 28.9047 5.79579L28.9168 5.73883ZM29.013 5.76678L29.0271 5.71027C28.9838 5.69949 28.9594 5.69272 28.9375 5.6844L28.9168 5.73883L28.8961 5.79326C28.9252 5.80432 28.9557 5.81252 28.999 5.82328L29.013 5.76678ZM31.1156 10.8353L31.1715 10.8518C31.245 10.6041 31.318 10.3659 31.393 10.1291L31.3375 10.1115L31.282 10.0939C31.2068 10.3315 31.1335 10.5703 31.0598 10.8187L31.1156 10.8353ZM28.3198 9.71462L28.264 9.69804C28.2454 9.76053 28.2268 9.82321 28.2074 9.88602L28.263 9.90322L28.3187 9.92042C28.3383 9.85689 28.3571 9.79359 28.3756 9.7312L28.3198 9.71462ZM28.4314 9.35798L28.3764 9.33892C28.336 9.45541 28.3001 9.57648 28.264 9.69804L28.3198 9.71462L28.3756 9.7312C28.4119 9.60917 28.4471 9.49065 28.4864 9.37704L28.4314 9.35798ZM28.4694 9.31757L28.4367 9.26939C28.4142 9.28467 28.3954 9.30477 28.3814 9.32814L28.4314 9.35798L28.4814 9.38782C28.4868 9.37882 28.4939 9.37132 28.5021 9.36574L28.4694 9.31757ZM28.5203 9.29761L28.5118 9.24002C28.4848 9.24403 28.4592 9.2541 28.4367 9.26939L28.4694 9.31757L28.5021 9.36574C28.5103 9.36017 28.5195 9.35662 28.5289 9.35521L28.5203 9.29761ZM28.9031 9.11153L28.8634 9.06887C28.7646 9.16064 28.6422 9.22006 28.5115 9.24005L28.5203 9.29761L28.5292 9.35518C28.6833 9.3316 28.8271 9.26159 28.9427 9.1542L28.9031 9.11153ZM29.1233 8.73758L29.0668 8.72333C29.0331 8.85696 28.9623 8.97708 28.8634 9.06887L28.9031 9.11153L28.9427 9.1542C29.0583 9.04683 29.1406 8.90685 29.1797 8.75182L29.1233 8.73758ZM29.3615 7.95513L29.3058 7.93806C29.2259 8.19872 29.1459 8.45968 29.0675 8.72083L29.1233 8.73758L29.179 8.75432C29.2574 8.49354 29.3372 8.2329 29.4171 7.97219L29.3615 7.95513ZM29.4284 7.73664L29.3727 7.7196C29.3504 7.79241 29.3281 7.86522 29.3058 7.93806L29.3615 7.95513L29.4171 7.97219C29.4395 7.89935 29.4618 7.82651 29.4841 7.75368L29.4284 7.73664ZM29.4533 7.29949L29.3966 7.31263C29.4277 7.44686 29.4196 7.58765 29.3735 7.7171L29.4284 7.73664L29.4832 7.75618C29.5368 7.6057 29.5462 7.44224 29.5101 7.28636L29.4533 7.29949ZM29.2397 6.92171L29.1994 6.96376C29.2968 7.05705 29.3655 7.1784 29.3966 7.31263L29.4533 7.29949L29.5101 7.28636C29.474 7.13047 29.394 6.9889 29.28 6.87966L29.2397 6.92171ZM29.2113 6.87484L29.1563 6.8939C29.1651 6.91919 29.1791 6.94236 29.1975 6.96177L29.2397 6.92171L29.282 6.88165C29.2752 6.87443 29.2698 6.86562 29.2664 6.85577L29.2113 6.87484ZM29.2045 6.81994L29.1464 6.81506C29.1442 6.84173 29.1476 6.86862 29.1563 6.8939L29.2113 6.87484L29.2664 6.85577C29.263 6.84592 29.2616 6.83535 29.2625 6.82483L29.2045 6.81994ZM29.3951 6.18307L29.3394 6.16609C29.2738 6.38135 29.2096 6.59204 29.1485 6.8038L29.2045 6.81994L29.2604 6.83608C29.3212 6.6253 29.3852 6.41545 29.4508 6.20005L29.3951 6.18307ZM29.4772 5.91305L29.4214 5.8962C29.394 5.98715 29.3665 6.07721 29.3394 6.16609L29.3951 6.18307L29.4508 6.20005C29.4779 6.11119 29.5054 6.02099 29.5329 5.92989L29.4772 5.91305ZM28.6514 8.60177L28.5991 8.57612C28.5685 8.63846 28.528 8.69487 28.4793 8.74301L28.5202 8.78441L28.5612 8.82582C28.6192 8.76842 28.6674 8.70133 28.7036 8.62743L28.6514 8.60177ZM28.8105 8.09966L28.7546 8.08324C28.705 8.25205 28.6559 8.41896 28.5966 8.58185L28.6514 8.60177L28.7061 8.6217C28.7669 8.45476 28.8169 8.28428 28.8664 8.11607L28.8105 8.09966ZM28.8624 7.92464L28.8066 7.9078C28.789 7.96625 28.7718 8.02486 28.7546 8.08324L28.8105 8.09966L28.8664 8.11607C28.8835 8.05762 28.9006 7.99944 28.9181 7.94148L28.8624 7.92464ZM28.979 7.53072L28.9223 7.51725C28.8996 7.61291 28.8697 7.70732 28.839 7.80429L28.8946 7.82185L28.9501 7.83942C28.9805 7.74313 29.0117 7.64468 29.0356 7.5442L28.979 7.53072ZM28.9559 7.35506L28.9045 7.38258C28.9265 7.42351 28.9329 7.47173 28.9222 7.51756L28.979 7.53072L29.0357 7.54389C29.0527 7.47074 29.0426 7.39357 29.0072 7.32755L28.9559 7.35506ZM28.8241 7.24196L28.8052 7.29703C28.847 7.3114 28.8826 7.3417 28.9045 7.38258L28.9559 7.35506L29.0072 7.32755C28.9718 7.26147 28.9134 7.21105 28.8431 7.18689L28.8241 7.24196ZM28.6524 7.24442L28.6762 7.29756C28.6961 7.28866 28.7174 7.28395 28.7389 7.28365L28.7381 7.22542L28.7372 7.16719C28.6998 7.16773 28.6629 7.17593 28.6286 7.19129L28.6524 7.24442ZM28.5804 7.29608L28.623 7.33579C28.6383 7.31942 28.6564 7.30646 28.6762 7.29756L28.6524 7.24442L28.6286 7.19129C28.5944 7.20664 28.5635 7.22881 28.5378 7.25638L28.5804 7.29608ZM28.5331 7.37243L28.5876 7.39304C28.5957 7.37159 28.6078 7.35216 28.623 7.33579L28.5804 7.29608L28.5378 7.25638C28.5121 7.28395 28.492 7.3164 28.4786 7.35183L28.5331 7.37243ZM28.1883 8.51497L28.2445 8.53009C28.3476 8.14669 28.4661 7.76807 28.5885 7.39039L28.5331 7.37243L28.4777 7.35448C28.3551 7.73275 28.2359 8.11358 28.1321 8.49985L28.1883 8.51497ZM24.9604 8.83778L24.9782 8.78233L24.974 8.78099L24.9562 8.83644L24.9384 8.89189L24.9426 8.89323L24.9604 8.83778ZM29.013 5.76678L28.9573 5.74978C28.9571 5.75066 28.9571 5.75068 28.9568 5.75164L29.0125 5.76864L29.0681 5.78565C29.0682 5.78537 29.0686 5.78413 29.0687 5.78378L29.013 5.76678ZM28.4222 8.79127L28.4262 8.73318C28.2895 8.72379 28.2192 8.62374 28.2445 8.53016L28.1883 8.51497L28.1321 8.49978C28.0823 8.68384 28.23 8.83645 28.4183 8.84937L28.4222 8.79127ZM28.7381 7.22542L28.7389 7.28365C28.7453 7.28355 28.7518 7.28386 28.7582 7.28456L28.7645 7.22666L28.7708 7.16877C28.7597 7.16756 28.7485 7.16703 28.7372 7.16719L28.7381 7.22542ZM28.2673 9.90462L28.2854 9.84926L28.2811 9.84787L28.263 9.90322L28.2449 9.95858L28.2492 9.95997L28.2673 9.90462ZM29.4772 5.91305L29.4536 5.96627C29.6967 6.07418 29.9182 6.20085 30.1182 6.34661L30.1525 6.29955L30.1868 6.25249C29.9796 6.10151 29.7509 5.97081 29.5008 5.85982L29.4772 5.91305ZM30.1525 6.29955L30.1182 6.34663C30.2759 6.46142 30.4204 6.58838 30.5519 6.72765L30.5942 6.68768L30.6366 6.6477C30.5001 6.5031 30.3501 6.3714 30.1867 6.25247L30.1525 6.29955ZM30.5942 6.68768L30.5519 6.72766C30.8599 7.0537 31.0959 7.44778 31.2617 7.91334L31.3166 7.8938L31.3715 7.87426C31.2007 7.39501 30.9567 6.98661 30.6366 6.64769L30.5942 6.68768ZM31.3166 7.8938L31.2617 7.91327C31.2657 7.92456 31.2722 7.93204 31.2766 7.9362C31.281 7.94037 31.2852 7.94296 31.2874 7.94428C31.2898 7.94568 31.2918 7.94662 31.2928 7.94706C31.2933 7.9473 31.2938 7.9475 31.294 7.94761C31.2942 7.94767 31.2943 7.94772 31.2944 7.94775C31.2944 7.94778 31.2945 7.94781 31.2945 7.94781C31.2947 7.9479 31.294 7.9476 31.2932 7.94722C31.2923 7.94684 31.2904 7.94595 31.2881 7.94461C31.286 7.94335 31.2819 7.94082 31.2776 7.93672C31.2733 7.93262 31.2668 7.92522 31.2628 7.914L31.3177 7.89453L31.3726 7.87507C31.3686 7.86377 31.3621 7.8563 31.3577 7.85213C31.3533 7.84797 31.3492 7.84537 31.3469 7.84406C31.3445 7.84265 31.3425 7.84171 31.3415 7.84127C31.341 7.84103 31.3405 7.84083 31.3403 7.84072C31.3401 7.84066 31.34 7.84061 31.34 7.84058C31.3399 7.84055 31.3398 7.84052 31.3398 7.84052C31.3396 7.84043 31.3403 7.84073 31.3412 7.84111C31.342 7.84149 31.3439 7.84238 31.3462 7.84372C31.3483 7.84498 31.3524 7.84751 31.3567 7.85161C31.361 7.85571 31.3675 7.86311 31.3715 7.87433L31.3166 7.8938ZM31.3375 10.1115L31.3928 10.1299C31.6371 9.39829 31.63 8.60178 31.3726 7.87509L31.3177 7.89453L31.2628 7.91398C31.5115 8.61618 31.5184 9.38601 31.2823 10.093L31.3375 10.1115ZM28.2673 9.90462L28.2492 9.95997L31.0976 10.8906L31.1156 10.8353L31.1337 10.7799L28.2854 9.84926L28.2673 9.90462ZM28.5202 8.78441L28.5087 8.72734C28.4794 8.73327 28.4518 8.73493 28.4262 8.73318L28.4222 8.79127L28.4183 8.84937C28.4546 8.85186 28.4927 8.84942 28.5318 8.84148L28.5202 8.78441ZM24.9604 8.83778L24.9426 8.89323L27.7827 9.80425L27.8004 9.7488L27.8182 9.69335L24.9782 8.78233L24.9604 8.83778ZM28.7645 7.22666L28.7582 7.28456C28.7731 7.28618 28.7878 7.28993 28.8018 7.29575L28.8241 7.24196L28.8464 7.18817C28.8222 7.17812 28.7967 7.1716 28.7708 7.16877L28.7645 7.22666ZM29.0125 5.76864L28.9568 5.75162C28.9357 5.82043 28.915 5.88859 28.8944 5.9562L28.9501 5.97315L29.0058 5.9901C29.0264 5.92248 29.0471 5.85439 29.0681 5.78566L29.0125 5.76864ZM28.9501 5.97315L28.8944 5.9562L28.8936 5.95907L28.9493 5.97602L29.005 5.99297L29.0059 5.9901L28.9501 5.97315ZM28.8946 7.82185L28.839 7.80429C28.8282 7.83843 28.8173 7.87297 28.8067 7.90758L28.8624 7.92464L28.9181 7.9417C28.9285 7.90768 28.9393 7.87364 28.9501 7.83942L28.8946 7.82185Z" fill="var(--stroke-0, #221692)" mask="url(#path-2-outside-1_2188_7139)"/>
</g>
</g>
</svg>
