<svg preserveAspectRatio="none" width="100%" height="100%" overflow="visible" style="display: block;" viewBox="0 0 16 24" fill="none" xmlns="http://www.w3.org/2000/svg">
<path id="Union" d="M10.9092 3.36328C10.9092 3.91557 11.3569 4.36328 11.9092 4.36328H12.1816C13.2861 4.36328 14.1815 5.25887 14.1816 6.36328V7.09131C14.1816 7.39253 14.4258 7.63672 14.7271 7.63672V7.63672C15.0283 7.63672 15.2725 7.88091 15.2725 8.18213V11.4546C15.2725 11.7558 15.0283 12 14.7271 12V12C14.4258 12 14.1816 12.2442 14.1816 12.5454V17.6357C14.1816 18.7403 13.2862 19.6357 12.1816 19.6357H11.9092C11.3569 19.6357 10.9092 20.0835 10.9092 20.6357V23C10.9092 23.5523 10.4615 24 9.90918 24H4.27246C3.72018 24 3.27246 23.5523 3.27246 23V20.6357C3.27246 20.0835 2.82475 19.6357 2.27246 19.6357H2L1.7959 19.626C0.787205 19.5237 0 18.6714 0 17.6357V6.36328C0.000182946 5.25887 0.895543 4.36328 2 4.36328H2.27246C2.82475 4.36328 3.27246 3.91557 3.27246 3.36328V1C3.27246 0.447715 3.72018 0 4.27246 0H9.90918C10.4615 0 10.9092 0.447715 10.9092 1V3.36328ZM2 16.6357C2 17.188 2.44772 17.6357 3 17.6357H11.1816C11.7339 17.6357 12.1816 17.188 12.1816 16.6357V7.36328C12.1816 6.811 11.7339 6.36328 11.1816 6.36328H3C2.44772 6.36328 2 6.811 2 7.36328V16.6357ZM5.4541 13.0908C6.05655 13.0908 6.54485 13.5792 6.54492 14.1816C6.54492 14.7841 6.05659 15.2725 5.4541 15.2725C4.85175 15.2723 4.36328 14.784 4.36328 14.1816C4.36335 13.5793 4.85179 13.091 5.4541 13.0908ZM9.27246 12C10.1762 12 10.9092 12.733 10.9092 13.6367C10.909 14.5403 10.1761 15.2725 9.27246 15.2725C8.36897 15.2723 7.63692 14.5402 7.63672 13.6367C7.63672 12.7331 8.36884 12.0001 9.27246 12ZM4.90918 8.72754C5.81262 8.72777 6.54475 9.45983 6.54492 10.3633C6.54492 11.2669 5.81272 11.9998 4.90918 12C4.00544 12 3.27246 11.267 3.27246 10.3633C3.27263 9.45969 4.00555 8.72754 4.90918 8.72754ZM8.72754 8.72754C9.32991 8.72768 9.81836 9.21596 9.81836 9.81836C9.81825 10.4207 9.32984 10.909 8.72754 10.9092C8.12512 10.9092 7.63683 10.4208 7.63672 9.81836C7.63672 9.21587 8.12505 8.72754 8.72754 8.72754Z" fill="var(--fill-0, #4E4E4E)"/>
</svg>
