<svg preserveAspectRatio="none" width="100%" height="100%" overflow="visible" style="display: block;" viewBox="0 0 20 20" fill="none" xmlns="http://www.w3.org/2000/svg">
<path id="Vector" d="M13 5.29V1C13 0.45 12.55 0 12 0H8C7.45 0 7 0.45 7 1V5.29C7 5.42 7.05 5.55 7.15 5.64L9.65 8.14C9.85 8.34 10.16 8.34 10.36 8.14L12.86 5.64C12.95 5.55 13 5.43 13 5.29ZM5.29 7H1C0.45 7 0 7.45 0 8V12C0 12.55 0.45 13 1 13H5.29C5.42 13 5.55 12.95 5.64 12.85L8.14 10.35C8.34 10.15 8.34 9.84 8.14 9.64L5.64 7.14C5.55 7.05 5.43 7 5.29 7ZM7 14.71V19C7 19.55 7.45 20 8 20H12C12.55 20 13 19.55 13 19V14.71C13 14.58 12.95 14.45 12.85 14.36L10.35 11.86C10.15 11.66 9.84 11.66 9.64 11.86L7.14 14.36C7.05 14.45 7 14.57 7 14.71ZM14.35 7.15L11.85 9.65C11.65 9.85 11.65 10.16 11.85 10.36L14.35 12.86C14.44 12.95 14.57 13.01 14.7 13.01H19C19.55 13.01 20 12.56 20 12.01V8.01C20 7.46 19.55 7.01 19 7.01H14.71C14.57 7 14.45 7.05 14.35 7.15Z" fill="var(--fill-0, #4E4E4E)"/>
</svg>
