<svg preserveAspectRatio="none" width="100%" height="100%" overflow="visible" style="display: block;" viewBox="0 0 29 20" fill="none" xmlns="http://www.w3.org/2000/svg">
<g id="Vector">
<path fill-rule="evenodd" clip-rule="evenodd" d="M24.511 1.67913H5.03306C3.9125 1.67913 3.00411 2.61884 3.00411 3.77804V13.8528C3.00411 15.012 3.9125 15.9517 5.03306 15.9517H24.511C25.6315 15.9517 26.5399 15.012 26.5399 13.8528V3.77804C26.5399 2.61884 25.6315 1.67913 24.511 1.67913ZM5.03306 0C3.01606 0 1.38095 1.69149 1.38095 3.77804V13.8528C1.38095 15.9394 3.01606 17.6309 5.03306 17.6309H24.511C26.528 17.6309 28.1631 15.9394 28.1631 13.8528V3.77804C28.1631 1.69149 26.528 0 24.511 0H5.03306Z" fill="var(--fill-0, #4E4E4E)"/>
<path d="M5.03314 2.51863H24.511C25.1834 2.51863 25.7284 3.08246 25.7284 3.77798V13.8528C25.7284 14.5483 25.1834 15.1121 24.511 15.1121H5.03314C4.3608 15.1121 3.81577 14.5483 3.81577 13.8528V3.77798C3.81577 3.08246 4.3608 2.51863 5.03314 2.51863Z" fill="var(--fill-0, #4E4E4E)"/>
<path d="M0 19.2857C0 18.8912 0.397462 18.5714 0.887755 18.5714H28.1122C28.6025 18.5714 29 18.8912 29 19.2857C29 19.6802 28.6025 20 28.1122 20H0.887756C0.397463 20 0 19.6802 0 19.2857Z" fill="var(--fill-0, #4E4E4E)"/>
</g>
</svg>
