<svg preserveAspectRatio="none" width="100%" height="100%" overflow="visible" style="display: block;" viewBox="0 0 22 20" fill="none" xmlns="http://www.w3.org/2000/svg">
<g id="Union">
<path d="M4 1C4 0.447715 4.44772 0 5 0H17C17.5523 0 18 0.447715 18 1V3C18 3.55228 17.5523 4 17 4H5C4.44772 4 4 3.55228 4 3V1Z" fill="var(--fill-0, #4E4E4E)"/>
<path fill-rule="evenodd" clip-rule="evenodd" d="M0 7C0 5.89539 0.895508 5 2 5H20C21.1045 5 22 5.89539 22 7V14C22 15.1046 21.1045 16 20 16H18V19.1818C18 19.6337 17.5523 20 17 20H5C4.44772 20 4 19.6337 4 19.1818V16H2C0.895508 16 0 15.1046 0 14V7ZM17 8.5C17 7.67163 17.6714 7 18.5 7C19.3286 7 20 7.67163 20 8.5C20 9.32837 19.3286 10 18.5 10C17.6714 10 17 9.32837 17 8.5ZM5.5 18.7727V12.2273H16.5V18.7727H5.5Z" fill="var(--fill-0, #4E4E4E)"/>
</g>
</svg>
