<svg preserveAspectRatio="none" width="100%" height="100%" overflow="visible" style="display: block;" viewBox="0 0 32 32" fill="none" xmlns="http://www.w3.org/2000/svg">
<g id="search-icon">
<rect width="32" height="32" rx="16" fill="var(--fill-0, white)"/>
<path id="Vector" d="M8.92207 15.0225C8.48605 11.4708 11.4749 8.48194 15.0266 8.91797C17.3797 9.2037 19.3289 11.0673 19.7238 13.4033C20.002 15.0643 19.5124 16.6292 18.5549 17.7959L18.6662 17.9033H19.3156L19.3527 17.9404L22.8322 21.4365L22.8996 21.5117C23.2155 21.8997 23.1932 22.4748 22.8322 22.8359C22.4469 23.2212 21.8172 23.2212 21.4318 22.8359L17.9445 19.3477L17.9074 19.3115V18.6611L17.8 18.5508C16.6333 19.5083 15.0684 19.9979 13.4074 19.7197C11.0714 19.3248 9.20687 17.3765 8.9211 15.0234L8.92207 15.0225ZM14.3391 10.7666C12.3647 10.7667 10.7708 12.3606 10.7707 14.335C10.7707 16.3094 12.3646 17.9032 14.3391 17.9033C16.3136 17.9033 17.9074 16.3095 17.9074 14.335C17.9073 12.3605 16.3135 10.7666 14.3391 10.7666Z" fill="var(--fill-0, #221692)" stroke="var(--stroke-0, #221692)" stroke-width="0.25"/>
</g>
</svg>
