<svg preserveAspectRatio="none" width="100%" height="100%" overflow="visible" style="display: block;" viewBox="0 0 7 19" fill="none" xmlns="http://www.w3.org/2000/svg">
<g id="Frame 4640">
<path id="Vector" d="M6.04005 6.78796H5.17717C5.17717 5.83447 4.40489 5.06219 3.45141 5.06219C2.49792 5.06219 1.72564 5.83447 1.72564 6.78796H0.862761C0.388176 6.78796 -0.000120667 7.17625 -0.000120667 7.65084V12.8281C-0.000120667 13.3027 0.388176 13.691 0.862761 13.691H6.04005C6.51464 13.691 6.90294 13.3027 6.90294 12.8281V7.65084C6.90294 7.17625 6.51464 6.78796 6.04005 6.78796ZM2.58853 8.51372C2.58853 8.75101 2.39438 8.94516 2.15708 8.94516C1.91979 8.94516 1.72564 8.75101 1.72564 8.51372V7.65084H2.58853V8.51372ZM3.45141 5.92507C3.92599 5.92507 4.31429 6.31337 4.31429 6.78796H2.58853C2.58853 6.31337 2.97682 5.92507 3.45141 5.92507ZM5.17717 8.51372C5.17717 8.75101 4.98302 8.94516 4.74573 8.94516C4.50844 8.94516 4.31429 8.75101 4.31429 8.51372V7.65084H5.17717V8.51372Z" fill="var(--fill-0, white)"/>
</g>
</svg>
