<svg preserveAspectRatio="none" width="100%" height="100%" overflow="visible" style="display: block;" viewBox="0 0 19 9" fill="none" xmlns="http://www.w3.org/2000/svg">
<g id="Group">
<path id="Vector" d="M18.4 4.70953V4.78675C18.3525 5.73224 16.8757 6.36974 16.1158 6.64073C15.608 6.82186 15.066 6.96741 14.5392 7.08473C13.6967 7.27243 12.838 7.39864 11.978 7.47728V6.53747C13.1084 6.42453 14.2631 6.25359 15.347 5.91015C16.1424 5.65798 18.0841 4.89943 16.9141 3.84655C16.4191 3.40127 15.6553 3.15117 15.0282 2.95856V2.53377C15.505 2.65006 15.9784 2.79342 16.4342 2.97468C17.1258 3.24966 18.3569 3.85081 18.4 4.7094V4.70953Z" fill="var(--fill-0, black)"/>
<path id="Vector_2" d="M3.75415 2.4431V2.84224C3.02354 3.05869 2.16066 3.29487 1.56025 3.78231C0.132887 4.94103 2.52629 5.76662 3.37822 6.00538C4.94802 6.44525 6.61505 6.59789 8.23997 6.65216C8.58732 6.66376 8.98965 6.69754 9.33403 6.67911C9.38786 6.67627 9.43938 6.65861 9.49424 6.66557V5.35241L11.2572 7.0968L9.49424 8.85409V7.61828C9.2735 7.61454 9.05185 7.62305 8.83085 7.61879C7.1937 7.58708 5.53375 7.44888 3.93188 7.09938C2.84839 6.86294 0.986882 6.34186 0.279577 5.44871C-0.648342 4.27684 0.955972 3.39104 1.86264 3.0164C2.46988 2.7654 3.11292 2.58092 3.75415 2.4431Z" fill="var(--fill-0, black)"/>
<path id="Vector_3" d="M12.323 0.27149C13.4734 0.174285 14.0919 0.917887 14.2285 1.98804C14.3774 3.15411 14.069 4.64466 12.6537 4.73465C11.0668 4.83546 10.5721 3.2633 10.785 1.95143C10.9164 1.14156 11.4408 0.346133 12.3231 0.27149H12.323ZM12.425 1.27473C12.2906 1.30271 12.1659 1.53167 12.1173 1.64924C11.9155 2.13797 11.9267 2.96137 12.162 3.43734C12.3118 3.7403 12.571 3.94154 12.7992 3.56729C13.0514 3.15372 13.0511 2.32374 12.937 1.86389C12.8815 1.64022 12.7207 1.21311 12.425 1.27486V1.27473Z" fill="var(--fill-0, black)"/>
<path id="Vector_4" d="M10.4452 0.757852L10.0345 1.56179L9.99539 1.56217C9.60104 1.31156 9.04957 1.09446 8.64427 1.44499C8.47891 1.58809 8.34265 1.8516 8.34188 2.06947C9.02252 1.50506 10.1319 1.77386 10.4652 2.59752C10.9205 3.7222 9.99848 4.76825 8.84389 4.72132C7.06674 4.649 6.81793 2.34664 7.53528 1.10825C8.15745 0.0342325 9.5369 0.102559 10.4451 0.757723L10.4452 0.757852ZM8.88575 2.67796C8.74859 2.6955 8.5688 2.79837 8.46397 2.88694C8.42057 2.92368 8.33608 2.99936 8.33402 3.05428C8.32243 3.36329 8.57022 3.7427 8.90674 3.74193C9.65861 3.74012 9.62538 2.58321 8.88562 2.67809L8.88575 2.67796Z" fill="var(--fill-0, black)"/>
<path id="Vector_5" d="M5.44674 2.12154C5.92996 2.06417 5.97786 1.44137 5.53921 1.26952C5.18698 1.13158 4.8256 1.34313 4.58451 1.59336C4.52578 1.50441 3.97044 0.901974 3.99169 0.859947C4.02132 0.801547 4.24412 0.63898 4.3089 0.597082C4.74639 0.31359 5.20977 0.222445 5.72621 0.310109C6.31014 0.409248 6.77622 0.761195 6.86547 1.37188C6.93038 1.81549 6.77146 2.10427 6.43159 2.37255C6.86058 2.68092 7.08544 3.13291 6.96554 3.6665C6.77069 4.53412 5.66324 4.87614 4.88445 4.69218C4.49564 4.60039 4.07206 4.3704 3.84578 4.03508L4.48148 3.3834C4.74832 3.6723 5.1513 3.87883 5.55016 3.74411C5.99293 3.59456 5.91759 2.86824 5.43386 2.86824H4.88046L4.86114 2.8489V2.14088L4.88046 2.12154C5.05961 2.1062 5.27185 2.1423 5.44674 2.12154Z" fill="var(--fill-0, black)"/>
<path id="Vector_6" d="M15.1288 0.000287214C15.7867 -0.0168589 16.1805 0.737185 15.7927 1.27052C15.4468 1.74636 14.7132 1.68951 14.4423 1.16893C14.1728 0.651325 14.5465 0.0154996 15.1288 0.000287214ZM15.1411 0.386914C14.5887 0.398645 14.612 1.27387 15.2147 1.20735C15.6898 1.15488 15.6687 0.375698 15.1411 0.386914Z" fill="var(--fill-0, black)"/>
</g>
</svg>
